<svg xmlns="http://www.w3.org/2000/svg" width="325.662" height="139.652" viewBox="0 0 325.662 139.652"><defs><style>.a{fill:#fff;fill-rule:evenodd;}</style></defs><g transform="translate(-250.494 -401.279)"><g transform="translate(250.494 401.279)"><path class="a" d="M297.115,418.385c-.716,2.72-2.088,2.143-5.326,2a6.076,6.076,0,0,0-4-3.332c-1.013,3.484-.839,1.483-3.328,2.665v.667h-1.334v.667H281.8l-1.334,1.331h-1.331l-1.331,2h-2v.667h-2v.667h-2q-.33.665-.667,1.331h-1.331v.667h-1.331c-.223.667-.447,1.331-.667,2l-1.334.667c-.22.664-.444,1.331-.664,2h-.667V433.7l-1.331,1.334v1.331h-.667V437.7h-.667v1.331h-.667q.335,2.331.667,4.662h-.667q-.665,2-1.331,4h-.667v2h-.664a5.475,5.475,0,0,0,.664,4h.667v3.328l-2,.667v.667a14.006,14.006,0,0,0-2.665-.667v-.667h-.667c-.22-.664-.444-1.331-.664-2h-.667v-1.331h-.667c-.9-2.736,1.45-4.507,2-6q.665-3.327,1.334-6.66h.664V439.7h.667l.667-4c1.049-2.613,2.4-4.267,2.664-7.99h-3.331v-.667a9.8,9.8,0,0,1-7.327-9.324c8.269.142,13.119-1.421,19.315-2.665.44-.838,1.055-.916,1.331-1.331V412.39c.447-.22.89-.444,1.334-.664v-1.334c.806-1.425,1.913-3.027,2.665-4.662l4-.664c.806,1.415,1.5,1.447,2,3.328q2.331.335,4.662.667V405.73c-.036-.165-.861-.217-.667-1.331h.667v-1.334c2.506.547,3.752,1.884,5.329,3.331.22.444.444.887.667,1.331,1.871,1.14.8-.987,2.661,1.334h.667v2.664l2,1.331q.335,1.666.667,3.332h.667v-.667h.664c1.554-3.367,2.114-4.458,1.334-8.657-2.606-.609-3.276-2.179-3.331-5.329,4.953-.971,6.417-.217,10.658.667,1.489,2.564,2.023,2.091,2,6.66C306.061,411.23,302.03,417.715,297.115,418.385Z" transform="translate(-250.494 -401.279)"/><path class="a" d="M271.572,404.094H274.9c.22.667.444,1.334.664,2h.667c1.191,2.172-.861,6.313,1.331,8.66v.664h2v-.664q2-.335,4-.667c1.055,1.82,1.826,1.629,2,4.662-1.175.913.259.165-.667,1.331q-1,.67-2,1.334v.667h-1.331v.664c-.444.223-.89.443-1.334.667v2h.667v.667c2.02-.4,6.223-1.48,7.327-.667h.667v1.334c-2.011,1.315-.35.722-1.334,2-.444.22-.887.444-1.331.664v.667h-1.334c-3.72,2.535-4.07,3.966-10.655,4-.761-.758,0-.262-1.334-.664l-3.328-4q.33-4.993.667-9.988h-.667v-2h-.667c-1.013-3.115-.1-5.679.667-7.994v-2.664h.667v-1.331C270.42,405.13,271.171,404.832,271.572,404.094Z" transform="translate(-210.298 -394.982)"/><path class="a" d="M278.2,404.507c3.71-.049,5.293.764,7.994,1.331a10.433,10.433,0,0,1,.667,4q-1,.67-2,1.334v.667h-2c-.22.444-.444.887-.664,1.331H279.53c-.223.444-.444.887-.667,1.331h-4c-.728-1.382-1.075-1.178-1.334-3.328h.667V410.5c3.322.113,4.643,1,5.329-.667C277.584,408.357,277.28,406.968,278.2,404.507Z" transform="translate(-198.94 -394.061)"/><path class="a" d="M285.885,419.992c-5.62-.388-10.856-4.41-11.322-9.991l2-.667v-.664q1.666-.335,3.331-.667v.667c.887.22,1.774.444,2.661.664V410h2v.667h12.653v.664h2.665a8.9,8.9,0,0,0,2,2.665c-.382,1.34.081.576-.667,1.334-1.065,4.105-9.434,6.6-14.65,6.66C286.328,421.322,286.108,420.656,285.885,419.992Z" transform="translate(-196.638 -386.235)"/><path class="a" d="M262.758,420.765c-.22.664-.444,1.331-.664,2q3.662.33,7.323.664c2.888-.8,7.994-2.652,10.658,0h.667v4.662c-1.528,1.279-.852,2-3.331,2.665-1.531,1.632-5.4,1.486-8.657,1.334-5.245-.249-12.8-3.03-13.323-7.994h.667v-2h.667c1.111-1.182,4.814-1.82,5.329-2.665V418.1h-3.331c-.919-1.742-1.178-1.13-1.331-4q1.331-1,2.661-2v-.664c4.151-2.771,10.6-3.111,16.651-2v.667h.667q.335,1.666.667,3.331h-.667c-1.3,4.653-7.242,3.5-11.322,5.326v.667h-1.334v.667Q263.76,420.428,262.758,420.765Z" transform="translate(-239.447 -384.343)"/><path class="a" d="M269.955,418.316c3.137.777,3.927,4.264,4,7.994-2.58,2.2-.69,2.69-6,2.664-1.276-1.528-2-.851-2.665-3.331-1.473-1.412-2.344-8.693-1.331-11.322h.667c.22-.667.444-1.331.664-2h1.334C267.809,414.4,269.334,415.476,269.955,418.316Z" transform="translate(-221.337 -376.568)"/><path class="a" d="M268.538,412.323a9.152,9.152,0,0,1,7.327,3.328h.667v4c-2.289,1.02-3.646,2.325-6.66,2.665l-2-6.663h-.664c-.223-.664-.444-1.331-.667-2A4.953,4.953,0,0,0,268.538,412.323Z" transform="translate(-214.59 -376.568)"/><path class="a" d="M276.767,413.146c2.949.029,5.371.282,7.327,1.331v.667h1.331q1,1.331,2,2.665h1.334v.664l12.653-1.331.667,2h.667v.667h-.667v1.331l-2.664,2-.667,1.334h-2v.667h-1.331c-2,.936-3.626,1.917-6.66,2-2.305.058-6.1.45-7.327-.667-4.406-1.1-6.5-6.66-6.66-11.989A5.009,5.009,0,0,0,276.767,413.146Z" transform="translate(-196.177 -374.727)"/></g><g transform="translate(258.199 458.347)"><path class="a" d="M281.8,460.865c-6.465-.091-10.014,1.434-15.32,2-.868,5.763-.444,14.3-2,19.315q-.335,2.661-.667,5.326h-.664v1.334h-.667c-1.334,2.519-.9,4.51-4,5.326v.667h-2.665a6.464,6.464,0,0,0-1.334-1.331q-.33-2-.664-4h-.667q.665-7.989,1.331-15.984h.667V448.209c-.563-6.41-3.141-12.873-2-19.315a52.938,52.938,0,0,1,9.324-1.331c.444.667.887,1.331,1.331,2h.667v1.334h.667v2h.664q.67,7.658,1.334,15.317a72.5,72.5,0,0,1,13.319-1.331c1.609-4.348.7-12.452.667-17.985-1.467-1.535-.366-4.944,0-6.66,3.4-1.962,3.513-3.28,9.324-3.328.884,1.075,1.9,1.376,2.665,2.665,2.69,2.7,2.066,13.012,2,18.649v3.328h-.667v31.3c0,5.1.557,14.527,0,17.315-1.013,5.093.116,7.2-5.993,7.327-.683-1.3-2.085-2.713-2.664-4l-.667-4h-.667Q283.133,476.185,281.8,460.865Z" transform="translate(-252.874 -418.906)"/><path class="a" d="M321.793,419.523h6c.22.444.444.887.664,1.331h.667v2h.667q-.335,7.659-.667,15.32h-.667q.335,4,.667,7.99h-.667v7.994c-3.325,11.62,1.017,31.353-3.328,41.959-1.7.926-2.069,1.719-4.662,2-.618-.809-1.535-.732-2-1.331v-1.334c-.447-.22-.89-.444-1.334-.664V493.45L315.8,492.12h-1.334q-1.661-2-3.328-4-.335-2.331-.667-4.662c-3.056-8.5-4.565-18.985-7.994-27.306h-.664v7.327h-.667v4.662c-2.117,7.162.049,24.687-6.66,26.642v.664h-4c-2.176-3.94-4-4.076-4-10.655h.667q.335-2,.667-4h.664v-2h.667v-2.661h.667V472.8c1.667-5.494,2-11.989,2-19.315v-7.327h-.667v-4h-.664v-1.331h-.667v-2.665h-.667q.665-6.658,1.334-13.319,2.661-2,5.326-4h4.662c1.127,1.357,1.557.563,2.665,1.334q.665,1,1.334,2h.664v1.331c.444.223.89.444,1.334.667v1.331q.665.335,1.331.667.335,2.331.667,4.662h.667v2.664h.664v3.332h.667v3.328h.667v2.665h.664V447.5h.667v3.328h.667q.33,3,.667,6h.664v2h.667c.809,2.4-.227,4.348,1.331,5.993v-.664c1.968-2.282-.278-7.945.667-11.322.541-1.936,1.635-11.179.667-13.986h-.667V437.5h-.667c-.764-2.279.929-6,1.334-7.327l1.331-8.657A8.848,8.848,0,0,0,321.793,419.523Z" transform="translate(-177.645 -417.525)"/><path class="a" d="M353.084,446.162q4,.335,7.994.667v-.667q5.658-.33,11.322-.664v.664q1.666.335,3.328.667c1.46,2.652,1.978,2.2,2,6.66-2,1.314-.628,1.884-3.331,2.665-2.182,1.826-5.358.353-8.657,1.334v.664h-4c-1.214.414-8.965,3.947-9.324,4.662v2.665c-1.023,1.153-.612,3.856-.664,6q-.335,4.992-.667,9.988h3.331V480.8a1.762,1.762,0,0,1,2,.664H372.4v.667q4,.335,7.99.667c.631,1.2.923,1.049,1.334,2.665,1.35,1.467.188,3.694,0,5.993a8.847,8.847,0,0,0-2.665,2q-5-.33-9.991-.667c-3.28.942-8.142,1.674-11.322,2.665q-3.327.335-6.66.667v.667h-2.665v.664h-2v.667h-3.332v.667h-1.331v.667h-1.331v.664c-.667-.22-1.334-.444-2-.664-.22-.89-.444-1.777-.664-2.665H337.1q.335-2,.667-4h.664q.335-3,.667-5.993h.667v-4.662h.667v-7.994h.664V440.169h-.664V437.5h-.667v-1.331H339.1v-3.331h-.667c-.686-2.551,1.331-7.67,2-9.324.741-.392,1.046-1.162,1.331-1.331h1.331v-.667h7.327c6.8-1.939,15.126-1.975,23.978-2,1.5,2.574,2.574,2.247,2.665,6.66-2.532,2.176-1.651,3.914-6.66,4v.667h-4v.667h-4.662v.664h-5.326v.667l-2.665.667C352.624,436.53,353.052,442.07,353.084,446.162Z" transform="translate(-64.41 -417.525)"/><path class="a" d="M367.47,488.067v-1.331c-.667-.223-1.334-.444-2-.667q-2-2.331-4-4.662h-1.331v-.667l-2-1.331v-1.334c-.447-.22-.89-.444-1.334-.664v-1.334c-.444-.22-.887-.444-1.331-.664-.223-.89-.444-1.777-.667-2.665-.444-.223-.887-.444-1.331-.667-.223-.887-.447-1.777-.667-2.665h-.667v-1.331h-.667q-.665-2-1.331-4h-.667c-1-2.279-.223-3.72-2-5.326.223-4.3,1.871-5.718,4-7.994q.67-.33,1.334-.667.33-1.331.667-2.661.665-.335,1.331-.667v-2h.667v-1.334h.664c.657-1.528,1.347-8.913.667-11.322h-.667c-.8-2.817.7-3.542-1.331-5.329-.67-2.541-1.467-2.062-3.331-3.328-.22-.444-.444-.887-.664-1.334h-1.334v-.664h-1.331V420.8h-2v-.667c-2.794-.913-10.878.57-12.656,1.334v.664c-.887.223-1.777.447-2.665.667v.667h-1.331v.667h-2l-.667,1.331h-4v.667c-.667.22-1.334.444-2,.664q.665,9.659,1.331,19.315h.667v5.329h-.667v17.315h-.667v9.991h-.664v11.322q2,3.332,4,6.66a8.6,8.6,0,0,0,5.329-1.331q1.661-16.648,3.328-33.3h2.665v.667c2.875,2.069,2.347,3.655,4,6.66h.667v1.334c.444.22.887.444,1.331.664v1.334h.667v1.331l1.334,1.334v1.331l1.331.667v1.331l1.331.667v1.331l1.334.667v1.331q.665.335,1.331.667v1.334q2.666,2.331,5.329,4.662.665,1,1.331,2c.89.22,1.777.444,2.665.664l.667,1.334c.1.058,4.662,2,4.662,2v-.667c2.8-.353,2.166-.942,4-2v-4.662Zm-22.647-46.621-1.331.667q-1.666,2-3.331,4c-1.616,1.065-3.16.324-4.662,2a7.132,7.132,0,0,1-2.665-.664c-.065-2.972-.861-9.645.667-11.325.172-3.03.942-2.843,2-4.662q3.332-1,6.66-2a18.677,18.677,0,0,0,2.665.667c.593,2.82,1.392,4.717,1.334,8.657C344.83,439.931,345.594,440.329,344.823,441.446Z" transform="translate(-100.773 -416.805)"/><path class="a" d="M307.186,469.837v-3.328h-.667q-.665-3.662-1.331-7.327h-.667v-2h-.664V454.52h-.667v-2h-.667v-1.334h-.667v-2.665h-.664v-2h-.667V445.2h-.667q-.33-2-.664-4h-.667v-2.665h-.667V437.2H297.2v-2h-.664v-1.331h-.667v-2H295.2v-1.334h-.664q-.335-2-.667-4H293.2v-2c-.573-1.285-2-2.687-2.664-4h-7.327c-.754,1.3-2.15,2.487-2.661,4q-.67,9.654-1.334,19.312c-1.007,3.467-1.635,8.534-2.665,11.989v4.662h-.664q-.335,3-.667,6h-.667q-.33,3-.667,5.993h-.664v2.665h-.667v2.665h-.667V480.5h-.664v2.665h-.667c-.952,2.949-.356,8.35,1.331,9.988.767,1.285,1.781,1.59,2.664,2.664,7.048-.087,3.827-3.082,5.329-7.99h.667V484.49h.664v-2h.667v-2.665h.667v-2.665h.664q.67-3.327,1.334-6.66h.667c.22-.667.444-1.331.664-2,4.717-.162,6.653-.91,10.658.667q3,11.65,5.993,23.311h.667l.667,1.331c1.052.758,1.535,0,2.661,1.331a17.952,17.952,0,0,0,6-.664C312.341,485.225,309.628,476.972,307.186,469.837Zm-19.315-11.989c-.016-2.308.3-6.87,1.334-7.99.4-1.331-.094-.573.667-1.334.751,3.5,2.542,5.225,2.661,9.324C289.814,458.269,290.846,458.1,287.871,457.848Z" transform="translate(-214.322 -415.225)"/><path class="a" d="M341.092,470.963V468.3h-.664v-2.665h-.667v-2.665h-.667v-2.661h-.667l-1.331-6.663h-.667v-2h-.664v-2H335.1v-2h-.667v-2h-.667q-.33-2-.664-4h-.667v-1.334h-.667v-2.665H331.1V436.33h-.667c-.848-1.674-.547-3.535-1.334-5.329h-.664V429.67h-.667q-.665-3-1.331-6h-.667v-1.331h-.667l-1.331-2h-6a8.9,8.9,0,0,1-2.665,2c-.288,1.454-.978,4.128-1.331,5.329V435h-.667v6h-.664q-.335,4.662-.667,9.324h-.667q-.33,4-.667,7.99h-.664v3.331h-.667v3.331h-.667V468.3h-.664v2.665h-.667v2.664h-.667v2.665c-.719,2.111-4.144,11.626-2,13.986.2,3.438,1.415,3.231,2.665,5.326a13.786,13.786,0,0,0,5.329-.664l2.661-13.986h.667v-2h.667v-2.665h.667q.665-3.332,1.331-6.66h.667v-.667c.142-.107,8.311-1.276,9.324-.667v.667c1.327.4.573-.094,1.331.667h.667q.33,2.331.667,4.662h.664v2.661h.667q.335,3,.667,6h.664v2.665h.667v2.665h.667v2h.667v2q.665.33,1.331.667c.223.444.444.887.667,1.331h2v.667q2.331.33,4.662.664v-.664l2-.667C346.259,485.677,343.4,477.716,341.092,470.963Zm-15.317-12.656h-4v-.664c-.709-.949.518-6.252.664-8.66,2.639,1.722,2.046,5.261,4,7.327Q326.107,457.31,325.775,458.307Z" transform="translate(-139.001 -415.684)"/></g></g></svg>