<svg xmlns="http://www.w3.org/2000/svg" width="337.541" height="136.101" viewBox="0 0 337.541 136.101"><defs><style>.a{fill:#fff;fill-rule:evenodd;}</style></defs><g transform="translate(-110.341 -568.271)"><path class="a" d="M134.137,646.58a6.133,6.133,0,0,0-3.094.427v.106h-.32v.107c-.393.116-.653-.147-.854-.213l-.853-.107v-.107H128.8v-.106a5.093,5.093,0,0,0-1.813.106v.107c-.4.118-.914-.12-1.174.107a1.667,1.667,0,0,1-1.067-.214l.213-3.414h.107l.107-1.067h-.107a1.656,1.656,0,0,1,.107-.64,5.482,5.482,0,0,1,2.027,0l.96-.107v.107a6.64,6.64,0,0,0,2.881-.32h1.067v-.107h.534v-.107h.426l.107-.213h.214l.106-.214h.214l.106-.213c.312-.3.512-.345.32-.854v-.32h-.106a3.274,3.274,0,0,0-1.387-.853h-1.281v-.107H130.3v-.107H128.8v-.106h-1.813a10.842,10.842,0,0,0-1.6-.534q-.053-1.066-.107-2.134h-.106l-.107-.533h-.107v-.214h-.106l-.107-.533h-.107a.87.87,0,0,1-.213-.427,2.147,2.147,0,0,1-.854-.64l-.107-.214c-.179-.123-.244,0-.426-.213h-.534c-.114.133-.189.112-.32.213v.107h-.213l-.32.427-.214.107v.213l-.213.107-.107.32h-.107v.32h-.106l-.107.427h-.107l-.213,1.067h-.107l.107.64h-.107v.107h-.747v-.107a8.475,8.475,0,0,1-3.094-.214l.213-.746h.107v-1.174h-.107l-.106-.427h-.107v-.32h-.107v-.213l-.213-.107v-.214h-.107l-.32-.426h-.213v-.107a1.106,1.106,0,0,0-.534-.32c-.294-.266-1.516-.12-2.027-.107l-1.067.854v.213l-.32.214v.213h-.107v.32h-.107v.32H111.3v.214H111.2v.426h-.107v.32h-.106v.214h-.107v.32h-.107l-.107.96a7.516,7.516,0,0,0-.106,3.948v1.174h.106v.853h.107v.321h.107v1.813h.107v.321h.106v.32l.32.213v.213l.214.107.106.32.534.107v.107l.32.106-.213,1.281h-.107c-.016.15.076-.041.107.106v1.067c.212.185.09.248.213.427l.213.107.427.533.64.214v.107l.961-.107v.107h1.814v.106l.426.107v.107c.6.214,1.072-.22,1.388-.32h1.493v.106h.854v.107l.32.107a11.193,11.193,0,0,0,.213,2.134l-.106,1.067v2.987c.213.184.09.249.213.427l.96.854a2.679,2.679,0,0,0,1.388-.32q.265-.695.533-1.388l-.107-.106a4.827,4.827,0,0,1,.214-.854v-1.814s.089-.006.106-.213a27.024,27.024,0,0,1,0-2.881l.107-.32,1.174.107v-.107l1.067-.107v-.107c.053-.005.375.183.64.107v-.107h.534v-.106h.426V650.1l1.494-.107v-.106h.214v-.107l.853-.107v-.106l.64-.214v-.107l.747-.106.107-.214.533-.106v-.107l.961-.32c.027-.015.1-.158.213-.214C134.629,647.251,134.346,647.335,134.137,646.58Zm-13.017.213h-.854v-.106h-.213v-.107h-.64v-.107h-1.707v-.106h-.32v-.107h-.214v-.107h-.64a6.1,6.1,0,0,0-2.347-.427,1.909,1.909,0,0,1,.32-.96h.106l.107-.854h.107v-.32h.106l.107-.426h.107v-.854a.977.977,0,0,0,.213-.213h4.162c.432,0,1.249-.109,1.493.106.249.276.09.857.214,1.281h.106Z"/><path class="a" d="M161.437,642.236h-.107v-.214c-.162-.224-.484-.287-.64-.533l-.64.106v.107H159.3v.107h-1.814v.106h-5.975v-.106h-.534V641.7h-.106a3.535,3.535,0,0,1,.32-1.067v-.64h.106v-.747h.107V638.5h.107a1.623,1.623,0,0,1,.213-.96l1.067.106v-.106h1.387l1.067.106v-.106h.214v-.107l.96-.213.107-.214.96-.106,1.174-1.068c.193-.286.16-.618.426-.853a2.218,2.218,0,0,0-.96-2.134l-.32-.427-.533-.107-.107-.213h-.32v-.107h-1.281v-.106h-.426v-.107h-.214v-.107h-.96v-.107h-1.921v.107h-1.173v.107h-.321v.107h-.426v.106l-1.067.107v.107h-.32v.106h-.321v.107h-.746v.107l-.641.213v.107l-.747.107v.106h-.32v.107h-.213v.107l-.64.106v.107H144.9v.107h-.32v.106h-.213v.107h-.32v.107h-.32v.107h-.32v.106h-.321v.107h-.426v.107h-.214v.106h-.213v.107h-.214v.107H141.8l-.213.213h-.214l-.106.214h-.214l-.32.426h-.213l-.107.214H140.2l-.214.32h-.213v.107l-.214.106v.32h-.106a1.232,1.232,0,0,0,.213.961c.128.434.038.125.32.32l.107.213h.427v.107h.32v.107h.853v.106l2.028-.106v-.107h.32v-.107h.32v-.107c.437-.131.739.161.96.214.382.091.735-.348.96-.427l1.6.107a1.7,1.7,0,0,1,.107.853h-.107v.641h.107v.426h.106v.321h.107v.32h.107v.213h.106c.146.387-.057.573.214.854a1.132,1.132,0,0,1-.107.426,5.748,5.748,0,0,1-1.707,0v-.106h-.854V641.7h-.32v-.107h-.32v-.106h-.32v-.107c-.64-.205-1.725.139-2.347-.107v-.107l-.427-.106v-.107H141.7v-.107h-.96a2.338,2.338,0,0,0-1.387-.213v.107l-.747.106v.107h-.427v.107h-.213l-.107.213h-.213v.107l-.32.107a2.081,2.081,0,0,1-.32.853,2.208,2.208,0,0,0,.96,2.027l.213.321.64.213v.107h.214v.106h.213v.107h.747v-.107h.107v.107l.64.107v.107c.389.116.739-.149.96-.214h1.174c.149.025-.038.066.107.107h1.494v.107h.853v.106h.107v-.106a7.16,7.16,0,0,0,1.494-.214v-.107h.213v-.106h.32V644.9a2.064,2.064,0,0,1,1.067,0l.32.107c-.028.3-.044.389-.213.533v1.067l-1.174.854a6.407,6.407,0,0,0-.213.853c-.194.035-.214.107-.214.107h-1.387v.107h-.32v.106l-.427.107v.107l-.533.107v.106h-.214l-.106.214h-.214l-.213.32c-.313.222-.424.167-.64.533h-.214a.866.866,0,0,1-.213.427h-.107v.214l-.213.106v.214l-.214.106v.214l-.213.106-.107.854h-.106v.213h-.107l-.107,1.281h.107v.213l.213.107v.32h.107l.107.534h.106c.22.235.2.039.321.426.412.108.589.354.96.534v.107h.853v.106h.214v.107h.427v.107h1.067v.106h.32v.107l.427.107v.106h.426v.107l2.454-.107v.107a5.241,5.241,0,0,0,2.348-.213h.427v-.107h.32v-.107l1.28-.106.107-.214.533-.106V656h.32v-.107l.641-.107v-.106l.64-.214v-.106h.213l1.387-1.281v-.213l.32-.214.641-1.6-.107-1.067-.213-.107v-.32h-.107v-.213l-.214-.107v-.213l-.213-.107-.213-.64-.32-.214-.641-.747h-.213l-.107-.213-.427-.107v-.106h-.213v-.107l-.64-.213v-.107h-.32v-.107l-.427-.107v-.106h-.213v-.107h-.321v-.107l-.64-.213v-.107h-1.707V646.5h-.427V646.4h-.106a2.772,2.772,0,0,0-.214-.854,3.3,3.3,0,0,1,.107-1.067,2.811,2.811,0,0,1,.96.214h2.454a7.443,7.443,0,0,0,2.241.106v-.106h1.387v-.107h.96v-.107c.673-.188,1.579.1,2.028-.32h.213v-.107l.427-.32.107-.533h.106v-.64C161.513,642.442,161.54,642.367,161.437,642.236Zm-10.563,8.215v.107l.853.107v.107l.64-.107v.107h.427v.106h.214v.107l.64.107v.106h.213l.107.214h.213v.106l.427.32c0,.731-.067.719-.427,1.068l-.106.213h-.214l-.213.32h-.214l-.213.32h-.213l-.107.213h-.214v.107l-.426.107v.107h-.32v.106h-.321v.107h-.213v.107h-.32v.106h-4.481v-.106h-.321v-.107h-.213V654.4h-.32v-.106h-.32v-.107h-.214v-.107h-.213l-.213-.32h-.214c-.065-.044-.086-.142-.213-.213V652.8h.107l.64-.747h.213l.107-.214.427-.106.106-.214h.214l.106-.213.641-.213.106-.214h.214l.213-.213h.214v-.107h.213v-.107c.3-.135.286.051.533-.213l2.241.107v.106Z"/><path class="a" d="M188.863,639.126h.64v-.107h.32v-.107h.214v-.106l.64-.107v-.107h.96l.641-.533.106-.854h-.106l-.107-.427h-.107l-.32-.426c-.41-.082-.922-.211-1.28-.321l-1.067-.106v-.107h-.214v-.107l-3.094-.747.107-1.493h.106l-.106-1.387.106-1.067a5.283,5.283,0,0,0-.64-.961c-.213-.064-.092.015-.213-.106a2.04,2.04,0,0,0-.961.32,6.346,6.346,0,0,1-.32.747v2.24h-.106v.64h-.107v.534h-.107v.107a3.335,3.335,0,0,1-2.24.426v-.106h-.534v-.107h-.427v-.107h-.64v-.106h-.32v-.107a1.194,1.194,0,0,0-1.174.427v.106h-.106c-.126.084-.012-.01-.107.107a2.153,2.153,0,0,1-.854-.32v-.107l-2.134-.106v-.107h-.106q.053-1.173.106-2.347l-.747-1.6c-.33-.076-.847-.4-1.387-.213v.106h-.213v.107h-.214v.107h-.32v.106c-.422.255-.142.158-.32.534h-.106l-.107.427h-.107v.533h-.107c-.168.563.045,1.363-.106,1.814a1.964,1.964,0,0,1-.854-.213v-.107h-.64v-.107h-.32v-.106h-.427v-.107h-.64v.107H167.63v.106H167.1v.107h-.533v.107h-.32l-.107.213-.427.107v.107l-.32.213a3.249,3.249,0,0,1-.427.96l.107,1.281.213.106v.214l.214.213.107.32h.106v.107l.427.107.213.32.427.106v.107a2.771,2.771,0,0,0,1.494.214v-.107h.427v-.107h.747v-.107h.427v-.106h.213v-.107h.32v-.107a4.362,4.362,0,0,1,1.494,0c.079.212.032.4.107.641h.106v.64h.107c-.025.459-.066.361-.213.64l-.747-.107v.107l-.747.107v-.107H170.3v-.107h-.32v-.106h-.64c-.486-.146-1.6-.432-2.027,0H167.1l-.533.64h-.107l-.107.427h-.106v.533h-.107a2.293,2.293,0,0,0,1.6,2.134c.2.141.429-.1.854,0v.107l2.561-.854c.121.12,0,.046.213.107v.32c-1.211.493-3.765,1.709-4.054,2.988a4.641,4.641,0,0,0-.107,1.707h.107c.173.359.32.384.426.747a8.309,8.309,0,0,1,1.494.853l-.213.64h-.107v.214l-.213.107v.213h-.107v.427h.107c.035.146-.074-.041-.107.106a1.246,1.246,0,0,0,.32,1.174v.427H168.8v.107l-.747-.214v-.106H167.2c-.182.214-.249.09-.427.213l-.106.213-.641.534-.106.533h-.107l.107,1.281a2.673,2.673,0,0,1,.64.853c.3.063.588.252.853.32l.641-.106v-.107l.853-.107v-.106h.214v-.107h.213l.107-.213h.32v-.107l2.667.107v-.107h.427v-.107l.427-.107v-.106h.64v-.107l.96-.107v-.106h.961V654.7h.533s0-.088.214-.107h1.28v-.106h.213l.107-.214,1.067-.213.96-1.067h.214c.064-.213-.015-.092.107-.214a1.38,1.38,0,0,0-.214-.853h-.64v-.107h-.107v.107a6.276,6.276,0,0,1-1.814-.107c.036-.576.548-1.191.32-1.814h-.106V649.8h-.107l-.107-.32a1.877,1.877,0,0,1-.747-.32c-.119-.122-.045,0-.106-.214l1.067-.64v-.213l.32-.214.107-.427.213-.106a2.806,2.806,0,0,0,.213-1.387h.32c.137.505.613.657.854,1.067.787.072,1.83.108,2.774.106h.854v-.106h.32v-.107h1.174v-.107a4.675,4.675,0,0,1,2.24.214l1.067.106v.32c-.288.186-.339.461-.533.747l-.214.107v.213l-.32.214v.213l-.213.107-.96,1.067c-.763-.057-.861-.66-1.281-1.067h-.106l-.107-.214h-.214l-.213-.32h-.213l-.107-.213a5.2,5.2,0,0,0-.96-.427l-.747.64.106,1.281h.107v.213l.32.214.107.426.32.214v.213l.64.534v.32h-.106c-.155.587-.178.223-.534.427l-.107.213h-.213v.107h-.213l-.107.213-.427.107-.107.213h-.213v.107l-.64.107-.107.213-.854.107v.106a1.606,1.606,0,0,1-.96.214c-.1.363-.263.4-.427.747h-.106l.213.96c.253.069.2.03.32.213a3.642,3.642,0,0,0,1.281-.426l.96-.107v-.107l.427-.107v-.106h.32v-.107h.213v-.107h.32l.107-.213.64-.213.107-.214.427-.107v-.106a2.305,2.305,0,0,0,.96-.747,1.686,1.686,0,0,1,.747.107l.107.213.426.107.107.213h.213l.107.213h.32v.107h.214v.107h.213l.107.213h.32v.107l.64.213v.107h.213v.107h.321l.106.213h.32v.107l.534.107v.106c.128.062.988.381,1.28.214v-.107h.214c.048-.027.367-.815.213-1.067h-.107c-.072-.265-.051-.177-.213-.32v-.107h-.213v-.107h-.321l-.106-.213h-.214l-.213-.32h-.213l-.214-.32h-.213l-.534-.64h-.213l-.214-.32-1.067-.854v-.427l.321-.107.106-.213h.214v-.107l.426-.32v-.213l.534-.427.107-.32.213-.107v-.213l.213-.107.107-.427.214-.106.106-.32h.107v-.214h.107v-.213l.213-.107.107-.427c.153-.282.73-.927.533-1.494h-.106l-.107-.426-.214-.107-.64-.747h-.213l-.32-.427H189.5v-.106l-.64-.214V643.5h-.64v-.106l-.64-.214v-.106h-.214v-.107h-.32v-.107l-.427-.106v-.107H186.2v-.107l-.32-.107a20.246,20.246,0,0,1,0-2.88A10.766,10.766,0,0,0,188.863,639.126Zm-13.444,10.99h-.107l-.106.427-.321.213-.106,1.387a1.065,1.065,0,0,0-.214.214c-.677-.008-2.029,0-2.347.32-.345-.042-.312-.1-.534-.214.019-.445.267-1.418,0-1.707v-.747h.107c.455-.45,1.406.005,2.134-.213v-.107c.573-.183,1.024-.025,1.387-.427l.534.107C175.785,649.793,175.628,649.859,175.419,650.116Zm-1.6-2.561h-1.28v.107a1.627,1.627,0,0,1-.854.106v-.106h-.213v-.107l-.854-.107-.106-.213-.534-.107v-.106l-.32-.107c.071-.543.417-.586.64-.96a9.381,9.381,0,0,1,1.708.426l1.28-.106v.106h.854v-.106h.64a8.461,8.461,0,0,0,1.494.32v.106h.106C176.151,647.561,174.916,647.555,173.818,647.555Zm10.244-5.335h-.641v-.107h-3.414c-.113.135-.205.108-.32.214l-.534.64-.32.213-.32,1.067a1.285,1.285,0,0,1-.853-.426l-.107-.214h-.213l-.107-.213h-.214v-.107l-.426-.107v-.106l-1.281-.107v-.107l-.747-.106v-.107h-.213v-.107H173.6v-.107H173.5v-.106a7.771,7.771,0,0,1,1.921,0v.106h.64v-.106l1.174-.107v-.107h.533v-.106l.427-.107v-.107h.96v-.106h.534v-.107h.213c.048-.029.092-.15.214-.214.027-.527.224-.96-.107-1.28a.971.971,0,0,0-.64-.533,4.632,4.632,0,0,0-2.134,0v.106h-.32v.107h-.534v.107a5.842,5.842,0,0,1-1.707-.107,10.8,10.8,0,0,1,.32-1.707h.214v-.107h.96v-.107h.747c.5-.151.4-.207.96-.106v.213l.427.32v.214l.32.213v.107l.32.106v.107c.271,0,.894-.118.96-.107v.107l.854.107v.106h.213v.107h.32v.107c.814.256,1.753-.582,2.348,0l.32.213A11.65,11.65,0,0,1,184.062,642.22Z"/><path class="a" d="M316.352,609.489a4.233,4.233,0,0,0-.762.326v.109c-.256.072-.278-.087-.326-.109-.41-.185-.528-.292-.545-.87a4.123,4.123,0,0,0,1.2-1.416l.109-.435.217-.109v-.326l.218-.109.109-.327h.109V605.9l.326-.218.218-.653.218-.109V604.7l.218-.109v-.217l.217-.109.109-.436.327-.217v-.218l.217-.109v-.218l.218-.108.109-.327h.109V602.3l.326-.217.109-.327h.109l.218-.653.217-.109v-.217l.218-.109v-.218l.218-.109v-.218l.218-.108V599.8h.108l.109-.436.218-.108v-.218l.218-.109v-.218l.217-.109v-.217l.218-.218v-.218h.109v-.217l.218-.109V597.3h.108v-.217h.109v-.218h.109l.218-.653h.109v-.327h.109v-.218h.108l.109-.653h.109l.218-.653h.109l.109-.979h.108l.109-.436h.109v-1.2a10.785,10.785,0,0,0,.436-3.266v-1.306h-.109v-.435h-.109V586.3h-.109v-.326h-.109v-.327h-.109l-.109-.435h-.108l-.109-.545-.218-.109-.109-.435-.218-.109-.108-.435-.218-.109v-.218h-.109l-.109-.326a4.534,4.534,0,0,1-1.306-.871h-.218l-.544-.653h-.218l-.217-.327h-.218l-.109-.218h-.218c-.217-.253-.435-.508-.653-.761h-.218l-.326-.436h-.218l-.217-.326h-.218l-.109-.218h-.218l-.544-.653h-.218l-.544-.653h-.218l-.217-.218v-.218l-.218-.109v-.217h-.109l-.109-.436h-.109v-1.088h-.109l-.108-.653-.218-.109v-.327h-.109l-.109-.435h-.109v-.218l-.217-.109-.109-.435a4.5,4.5,0,0,1-.871-2.4c.124-.124.043,0,.109-.218a7.957,7.957,0,0,0,2.83-.544l.762-.109v-.109l.435-.108v-.109h.545v-.109h.326v-.109h.218v-.109h.326v-.109l.762-.109V569l.436-.109v-.109h.653a6.226,6.226,0,0,1,2.939-.436c.591.169,1.37.262,1.959.436l1.089.109V569h.326v.108l.871.109v.109h.327v.109H328v.109l.87.109v.109h.327v.108l.544.109v.109h.218v.109h.326v.109h.218v.109l.653.108v.109l.436.109v.109h.217v.109h.327v.109h.218v.109h.217v.108h.218v.109h.544v.109h.327v.109h.218v.109l.653.109v.109h.217v.108h.327l.109.218.544.109v.109l.653.218v.108l.436.109.108.218.654.218.108.217h.218l.109.218h.218l.217.327.545.108.326.436h.218l.218.218v.217l.217.109.545.653h.108l.109.218h.218l.109.327.653.544v.217l.327.218v.218l.217.109.109.326h.109l.109.436.217.109v.217h.109v1.415h.109a2.089,2.089,0,0,1-.109.98l-.109,1.742H342.7v.217h-.109l-.109.871h-.109v.218l-.218.109v.217h-.108l-.109.545-.218.109v.217h-.109v.218l-.218.218v.217l-.217.109v.218l-.218.109v.218l-.218.108-.109.436-.435.326v.218h-.109l-.109.327-.217.108v.218l-.545.436v.217l-.87.762v.218l-.98.871v.218l-.327.108-.217.327H336.6l-.109.218a3.5,3.5,0,0,0-.653.435v.109l-.218.109v.217l-.544.436-.871.98h-.218l-.544.653h-.218l-.108.217H332.9l-.327.436h-.217l-.327.435-.326.109-.109.218h-.218l-.327.435-1.524,1.306-.435.109-.109.218-.435.109-.109.217h-.218l-.217.218h-.218v.109h-.218v.109h-.218v.109h-.217l-.218.217h-.218l-.109.218h-.217l-.109.218h-.218l-.218.326h-.217l-.218.327-.327.109-.979,1.088h-.218l-.544.653H323.1l-.435.545h-.218l-.218.326h-.217l-.545.653h-.217l-.218.327h-.218l-.109.327-.653.544-.109.218h-.217l-.762.87h-.218v.109l-.327.218v.218l-.435.326v.218l-.218.109-.108.326h-.109l-.109.436-.218.109v.217l-.218.109v.109l-.217.109v.218h-.109A1.172,1.172,0,0,0,316.352,609.489Z"/><path class="a" d="M313.2,604.482v-2.5h-.109v-.327h-.109v-.544h-.109v-.218l-.218-.108v-.218l-.326-.218v-.218l-.218-.108-.109-.545-.218-.109v-.108l-.217-.109v-.218l-.436-.327v-.217l-.217-.109-.109-.435-.327-.218v-.218l-.217-.109v-.217l-.327-.218v-.218l-.871-.762v-.218l-.326-.217v-.218l-.327-.109-.327-.435h-.217l-.218-.327h-.218l-.108-.217h-.109v-.218H307.1v-.218l-.218-.109v-.217l-.218-.218v-.218h-.108v-.218l-.218-.108V592.4h-.109v-.327h-.109v-.217h-.109l-.217-.98c-.082-.205-.438-.731-.327-1.089h.109v-.217h.109l.109-.653.217-.109.109-.545h.109c.02-.154-.385-.54-.435-.653a1.972,1.972,0,0,1,.326-1.959c.007-.471.038-.885-.218-1.089l-.326-.108v-.109h-.327l-.109.217-.435.327-.109.218h-.218l-.326.435h-.218v.109l-.435.327v.326h-.109v.218l-.218.109v.217l-.979.654a1.478,1.478,0,0,1-1.416-.654l-.326-.217-.109-.436-.218-.109-.108-.435-.218-.109v-.218l-.436-.326v-.218l-.326-.218v-.217l-.327-.218q-.164-.489-.326-.98l-.218-.108-.109-.436-.871-.762v-.218l-.217-.108v-.109l-.654-.545v-.217l-.653-.544v-.218l-.326-.218-.653-.762h-.218l-.544-.653v-.218h-.109l-.109-.217h-.218l-.217-.327h-.218l-.109-.218-.435-.109-.109-.217-.436-.109-.653-.762h-.217l-.109-.218a4.306,4.306,0,0,0-.653-.435l-.436-.109-.979-1.089-.327-.108-.653-.762a2.99,2.99,0,0,0-1.306.109v.108l-.327.218a8.51,8.51,0,0,0,.435,2.177l-.108,1.2h.108v1.307h-.108v.979h-.109v.218h-.109v.327H286.2v.217h-.109v.218l-.218.109v.218h-.108v3.592h.108V585h.109v.326h.109v.327h.109l.109,1.306h.109v.436h.109v.435h.108v.762h.109v.327h.109v.217h.109a4.134,4.134,0,0,1,.109,2.177,1.553,1.553,0,0,1-1.2-.544l-.108-.218-.98-.217v-.109h-.218v-.109l-.979-.218v-.109h-.218v-.108h-.436v-.109l-.761-.109v-.109h-.218v-.109l-.653-.109v-.109l-.653-.217V588.7h-.218v-.109h-.218v-.109h-.218v-.109h-.217v-.109h-.218v-.108h-.218v-.109l-.435-.109v-.109l-.98-.109v-.109h-.217V587.5h-.327v-.109l-1.306-.218v-.109l-.436-.109v-.109l-.544-.108-.109-.218-.544-.109-.109-.218h-.218l-1.2-1.306-.218-.653h-.109l-.108-.327-.218-.108-.109-.436-.218-.109-.108-.326-.654-.545v-.217l-.326-.218-.109-.435h-.109l-.218-.654h-.108l-.109-.761h-.109v-.218h-.109l-.109-.762h-.109V578.9a2.287,2.287,0,0,1-.435-.98,8.152,8.152,0,0,0-1.524-.108c-.116.139-.192.113-.327.217v.109h-.217l-.218.327h-.218l-.435.544-1.089.98v.217l-.544.436v.217c-.117.146-.593.341-.762.545h-.326a10.494,10.494,0,0,1-.98-1.2v-.435c-.077-.219-.241-.55-.327-.762-.217-.065-.093.015-.217-.109-.689-.007-.847.111-1.089.544v.218h-.109v.218h-.109v.326l-.217.109v.218h-.109v.218H260.4v.217h-.109v.327l-.218.109-.108.435h-.109v.218h-.109l-.218.653h-.109v.327h-.109l-.108.435H259.1v.435h-.109v.436h-.109v.326h-.109V585h-.109v.326h-.109v.327h-.108v.218h-.109l-.109.544h-.109v.218a3.685,3.685,0,0,0-.544,1.088h-.218c-.1.418-.276.472-.435.762l-.109.436H256.7l-.109.435-.218.109-.217.653-.218.109-.218.653-.217.109v.218H255.4l-.218.653-.218.108v.218l-.217.109v.218l-.218.109-.109.435h-.109l-.109.327-.217.108v.218l-.218.109-.109.435h-.109v.218h-.109l-.217.653h-.109l-.109.544-.218.109-.217.653-.327.218-.109.436-.218.108-.217.654-.218.108-.109.436-.218.109-.108.326h-.109l-.109.436h-.109l-.109.326-.218.109v.218l-.326.217v.218l-.218.109v.218l-1.088,1.2h-.218v.109l-.653.218v.108h-.653v.109l-.653.218v.109l-.762.109v.109H245.6v.108l-.762.109v.109H244.4v.109h-.218v.109l-.98.218v.108h-.326v.109h-.327v.109h-.326v.109h-.545v.109h-.326v.109h-.218v.109h-.327v.108h-.435v.109h-.544v.109h-.218v.109l-.871.109v.109H238.3v.109l-.762.108v.109h-.327v.109l-.762.109v.109h-.217v.109h-.871v.108h-.327v.109h-.217v.109l-.654.109v.109h-.653v.109h-.435v.109h-.327v.108l-1.306.109v.109h-.326v.109l-.871.109v.109H229.6c-.5.15-1.23.286-1.742.435h-1.306v.109H226v.109h-.435v.109h-.435v.109l-1.96.108v.109h-.762v.109h-.653v.109h-.871v.109H219.8v.109h-1.089v.109l-2.721-.109h-5.551c-.625-.18-1.451-.368-2.069-.545h-5.551a8.876,8.876,0,0,1-1.742.436,2.311,2.311,0,0,0-.218.871h.109v.217l.218.218h.218v.109h.217c.062.039.085.148.218.218q.054,1.088.109,2.177v.979l.218.109.109.653h.108v.218l.218.109v.218h.109v.217l.218.218v.218l.217.109.109.435h.109l.109.327.218.108.109.436.217.109v.217l.327.218v.218l.326.217.109.327.871.762v.218l.327.217v.218l.326.218.109.435,1.088.762.98,1.089h.218l.544.653h.218l.109.218h.109l.979,1.088.436.109.217.326.98.871v.218l.218.109v.218l.326.217v.218l.327.109.109.218.435.108.109.218h.218l.109.218h.217l.544.653h.218l.218.326h.218l.217.327.545.109.108.218h.327v.108h.327v.109h.326v.109h.327v.109l.435.109v.109h.218l.109.217h.217v.109h.218l.218.218h.217l.218.326h.218v.109l.435.109v.109h.327v.109h.218v.109h.326v.109l.436.108v.109h.87v.109h4.79a8.32,8.32,0,0,1,2.286.109v.98h-.109l-.109.435h-.109v.544h-.109v.327h-.108v.327h-.109l-.109.435h-.109v.435h-.109v.218H228.4l-.217.98h-.109v.217h-.109v.218h-.109v.218h-.109v.326h-.109v.218h-.109l-.108.435h-.109l-.109.654-.218.108-.435,1.307h-.109l-.218.653h-.109v.218H226v.217H225.9v.327l-.218.109-.109.544h-.109v.218h-.109l-.217.653h-.109l-.109.653h-.109v.218H224.7l-.109.544h-.108l-.218.653h-.109v.218h-.109v.326h-.109l-.109.436h-.108v.326h-.109v.218H223.5v.218l-.218.108-.109.654h-.109l-.108.435h-.109l-.218.98h-.109l-.109.435H222.3l-.108.871h-.109l-.109.435h-.109l-.218,1.089h-.108l-.109.435h-.109v.871l-.218.109-.218,1.2h-.108v.327h-.109v.218h-.109v.326h-.109l-.109.871h-.109v.218h-.109v.326h-.108v.544h-.109v.327H219.8l-.109.435h-.109v.436h-.109v.326h-.109v.218h-.108v.327h-.109v.653h-.109v.326h-.109l-.218.653H218.6v.218h-.108v.218h-.109l-.109.653h-.109l-.218.653h-.108v.218h-.109l-.109.653h-.109v.218H217.4l-.109.653h-.109l-.108.435h-.109l-.109.653h-.109l-.218.653h-.109v.436h-.108v.217h-.109v.218H216.1l-.109.436h-.109v.544h-.109v.218h-.109l-.217.979h-.109v.218h-.109l-.109.653h-.109v.544H214.9v.218h-.108v.327h-.109q-.11.652-.218,1.306h-.109v.218h-.109v.326h-.108v.653h-.109v.436h-.109v.326h-.109v.436H213.7l-.109.87h-.109v.327h-.108v.327h-.109v.435h-.109v.544h-.109l-.109.436h-.109v.762h-.109v.326h-.108l-.109.436H212.4l-.109.979h-.109l-.109.436h-.109l-.108.87h-.109l-.109.654h-.109v.217h-.109v.545h-.109l-.108.435h-.109l-.109.871h-.109l-.109.653h-.109v.218h-.109l-.108.653-.436.326-.435.545h-.218l-.109.217h-.218l-.108.218H208.7v.109l-1.306.218v.108c-.29.131-.5.205-.762.327l-.109.435h-.109a.267.267,0,0,0,.109.327v.326l.218.109v.218h.108v.218l.653.544v.218l.218.109.109.544h.109v.217h.109l.109.436h.108v.326h.109V692l.218.109v.218l.218.109.109.435.217.109c.24.462-.1,1.183.109,1.741h.109v.218l.218.109.109.435h.108l.218.654h.109v.326h.109q-.054.708-.109,1.415h.109v.327h.109v.217h.109v.654h.108v.326h.109v.327h.109v.217h.109l.109.218h.218l.108.218.436.326.109.436.217.109v.217l.545.436a6.968,6.968,0,0,0,1.959,1.633h.326v.108h.218v.109l1.633.109v.109h.871a3.851,3.851,0,0,0,2.177.327v-.109h.326v-.109h.218v-.109h.327v-.109h.217l.109-.218.436-.108.109-.218.653-.544v-.218l.762-.653.217-.653h.109l.109-.327.218-.109.109-.979a3.9,3.9,0,0,0,.435-2.286h-.109v-.762h-.109v-.218l-.217-.109-.109-.653H223.5l-.109-.435-.218-.109v-.218l-.435-.327-.109-.217h-.218l-.217-.218h-.218v-.109h-.218l-.217-.326h-.218l-.218-.327h-.218v-.109a1.563,1.563,0,0,0-.762-.435c-.128-.471-.343-.373-.544-.653v-.218l-.326-.218v-.217h-.109v-.218h-.109v-.327h-.109a2.926,2.926,0,0,1,.218-1.524l.109-1.306h.108v-.326h.109v-.653h.109v-.436h.109v-.326h.109v-.327h.109v-.218h.109v-.544h.108l.218-.653h.109v-.436h.109l.109-.435h.109v-.327h.108V683.4H221v-.327h.109v-.217h.109l.109-.545h.109v-.217h.109l.217-.654h.109v-.326h.109l.109-.436h.109v-.326h.108v-.327l.218-.108.109-.436.218-.109.109-.653h.108V678.5h.109v-.326l.218-.109v-.218h.109v-.217h.109v-.218h.109V677.2l.217-.218v-.217l.218-.109.109-.435.218-.109.217-.653.218-.109v-.218l.218-.218v-.217h.108v-.218l.218-.109v-.327h.109v-.217h.109V673.6l.218-.109.108-.435.218-.109v-.218l.218-.217V672.3h.109v-.218h.109v-.218h.108v-.217h.109l.218-.653h.109l.109-.762.326-.218v-.327a1.8,1.8,0,0,1,.762-.762v-.435a1.048,1.048,0,0,0-.871.327v.108l-.435.109-.218.327h-.109v.218l-.326.217-.109.436-.218.108v.218H226v.218H225.9v.326l-.218.109-.544.653h-.218l-.218.327h-.762l-.109-.544.545-.653.326-.218v-.218l.762-.653v-.326h.109l.109-.327.218-.109v-.218l.217-.217v-.218l.327-.218.109-.326h.217a.911.911,0,0,1,.218-.436h.109v-.217h.109v-.436h.109v-.218l.217-.108c.244-.391.124-.615.545-.871a1.694,1.694,0,0,0-.109-.653h-.544l-.109.326-.327.218c-.164.251-.088.511-.326.762l-.545.435-.217.653-.327.218v.218l-.327.109-.108.217-.327.218v.218l-.653.544-.109.544-.218.109-.87.98a1.386,1.386,0,0,1-.545-.109c-.065-.217.015-.094-.109-.218.07-.542.251-.525.436-.87l.109-.545h.109v-.217l.217-.109.109-.545h.109l.109-.435h.109l.109-.653h.108l.109-.436h.109q.218-.652.436-1.306h.108v-.217h.109l.109-.436h.109l.109-.653.217-.109V663.7h.109v-.217h.109v-.436h.109v-.217h.109v-.218h.109v-.218h.109v-.326H226v-.218h.109l.218-.653h.109l.109-.653h.109v-.218h.108V660h.109v-.217h.109l.218-.653h.109v-.436l.217-.109v-.217h.109v-.218h.109l.109-.653h.109l.109-.436h.109v-.217h.108v-.327h.109v-.218h.109v-.435h.109v-.218h.109v-.217h.109v-.218h.109v-.218h.108v-.217h.109v-.218h.109l.218-.653h.109v-.436l.217-.109v-.217h.109v-.218h.109V652.7h.109v-.326l.218-.109v-.327h.108v-.217h.109v-.218l.218-.109v-.218l.218-.217v-.218h.109v-.218h.108v-.217h.109v-.218h.109v-.218l.218-.109v-.217l.218-.218v-.218h.108v-.218h.109v-.217h.109v-.218h.109v-.218l.218-.217V647.8l.217-.109v-.218l.218-.217v-.218h.109v-.218h.109l.109-.435.217-.109.109-.544h.109v-.218l.218-.109v-.218l.217-.217v-.218h.109v-.218h.109v-.217l.218-.218v-.218l.326-.217v-.218l.871-.762v-.218l.327-.218v-.217l.217-.109v-.218l.327-.218v-.217l.218-.109v-.218l.217-.109.109-.435h.109l.109-.327.218-.108.109-.545h.108l.109-.326.218-.109.109-.436h.109v-.217h.109v-.218h.108V637.9h.109v-.217h.109l.109-.436h.109l.109-.435h.109l.217-.653.218-.109.109-.436.217-.108v-.218h.109v-.218l.327-.218v-.217l.435-.327v-.217l.436-.327v-.218l.435-.326V633l.436-.327v-.217l.435-.327v-.218l.326-.217v-.218h.109v-.218l.327-.217v-.109h.218l.108-.218.327-.109V630.5l.435-.109.218-.326.436-.109.326-.435h.218l.109-.218.653-.218.218-.326h.217l.109-.218h.218l.217-.327h.218l.109-.217h.218l.109-.218h.217l.109-.218.653-.217v-.109h.218v-.109l.653-.218V626.8h.327v-.108h.326v-.109h.218v-.109h.435v-.109h.545v-.109l.435-.109v-.109h.327v-.108l.979-.109v-.109h.218V625.6h.327v-.109h.326v-.109h.327v-.109h.326v-.108h.218v-.109l1.959-.545V624.4l.436-.109v-.109h.217v-.109l.653-.109v-.109h.218v-.109l.653-.108v-.109h.218v-.109l1.415-.327v-.108l.435-.109v-.109h.436v-.109l.653-.218v-.109l.871-.108v-.109l.435-.109V621.9l.762-.109v-.109l.436-.109v-.108h.326v-.109h.436v-.109h.326v-.109h.218v-.109h.326v-.109h.327v-.109h.218V620.7h.217v-.109l.436-.327v-.326h.109v-.653h.108l.109-.327,1.524-.327.871-1.2.871-.109v-.109l.653-.217v-.109h.218v-.109h.435v-.109h.218v-.109h.218v-.109h.217v-.108h.218v-.109h.218v-.109l.435-.109v-.109h.327V615.8l.653-.217v-.109h.217v-.109l.436-.109.109-.218h.326v-.109h.218v-.108h.218v-.109l.653-.218v-.109h.326v-.109h.218v-.109l.544-.108v-.109l.98-.218v-.109h.218v-.109h.326v-.109l.436-.108v-.109h.326v-.109l.436-.109v-.109h.217v-.109h.327v-.109h.218v-.108h.217l.109-.218h.327l.217-.327.436-.108v-.109l.653-.218v-.109l.762-.109.109-.217h.218v-.109h.217V610.9h.327l.109-.218h.217v-.109h.218l.218-.217h.217l.109-.218.653-.218.109-.218h.218V609.6h.218v-.109h.326c.46-.252.855-.843,1.307-1.089v-.544l-.98-.653v-.327h.109l.653-.871a3.053,3.053,0,0,0-.327-1.306h-.109v-.217h-.108v-.218l-.218-.109v-.218l-.218-.109v-.217l-.218-.109v-.218h-.108l.108-.653.218-.109.109-.435h.109L288.7,601a1.853,1.853,0,0,0,.326-.326c.727.083.861.514,1.2.979l.653.545v.217l1.959,2.069h.218v.108l.326.218v.218h.109l.109.326.435.327.109.218h.218l1.089,1.306h.217l.871.98.544.435v.218l1.089.979v.109l.218.109v.218l.87.762.327.435h.218l.217.327h.218v.109h.218v.108h.217v.109h.218l.218.218h.218l.435.544h.218l.217.327h.218l.218.326h.218l.108.218h.218l.109.218h.218v.109h.979v.108h1.633v-.108h1.089a5.113,5.113,0,0,0,1.741-.218v-.109h.327v-.109h.218l.108-.218.98-.326.109-.327h.109v-.217l.217-.109.109-.436h.109v-.326h.109v-.327h.109v-.544h.109v-.218h.109v-.326h.108v-.218l.218-.109.109-.435.218-.109v-.218l.217-.109.218-.653.218-.109.109-1.2A11.615,11.615,0,0,0,313.2,604.482ZM271.178,592.4c-.177.6-.36.2-.762.435l-.326.436h-.218l-.218.326h-.217l-.109.218H269l-.109.218-1.306.217v.109h-.217v.109h-.218l-.109.218h-.218l-.109.217a7.234,7.234,0,0,1-1.741.327v-.109h-.218c-.036-.021-.111-.156-.218-.218a2.867,2.867,0,0,1,.218-1.088h.109l.109-1.089h.109v-.217h.108l.109-.545h.109l.109-1.415h.109v-.435h.109v-2.177a6.25,6.25,0,0,0,.326-2.613h-.109l-.108-.979.653-.762.435-.327.109-.326h.218l.326-.436c.184-.126.248,0,.436-.217h.326v.108h.218l.98,1.633v.327h.108v.217h.109c.073.327.145.654.218.98h.109l.109.436h.109l.108,1.2h.109v.327h.109v.217h.109v.327h.109v1.415h.109v.653h.109A5.866,5.866,0,0,1,271.178,592.4Z"/><path class="a" d="M256.374,655.533a2.149,2.149,0,0,1-.653.871l-.217.109v.218l-.436.326v.218l-.218.218h-.217l-.109.218h-.218l-.109.217h-.217v.109l-.436.327v.217l-.217.109v.218l-.545.435c-.308.341-.346.732-.871.871-.107.408-.289.335-.326.871l.326.218v.109h.218v.108l.762.109v.109h.218v.109h.326v.109h.327v.109h.435v.109h.545v.108h.326v.109h.327v.109h.326v.109l.98.109v.109h.327v.108h.435v.109h.762c.7.2,1.579.343,2.286.545h1.2v.108h.653v.109h.762v.109h1.96v.109h1.959v.109h.327v.109l1.741-.109v-.109l2.613-.109v-.109h.326V663.7h.327v-.108l1.088-.109v-.109h.218v-.109h.327v-.109l1.088-.109v-.109h.327v-.108h.217v-.109h.98v-.109h.544V662.5h.327v-.109l.871-.109v-.108h.979v-.109h.436v-.109h.326v-.109l1.524-.327v-.108h.218V661.3l1.088-.218.109-.218h.762v-.109h.436v-.108h.326v-.109H285v-.109h.653v-.109h.979a7.415,7.415,0,0,1,2.831.435h.435v.109h.762v.109h.435v.109h.436v.109l1.2.109v.109h.218v.108h.435v.109l.98.109v.109l.435.109v.109h.327v.109h.544v.108l.436.109.109.218.653.218.108.217h.218l.218.327.435.109.109.217h.218l.109.218.435.327v.217h.109c.1.135.08.211.218.327q.054,3.593.109,7.184h-.109v.545h-.109v.217h-.109a3.889,3.889,0,0,0-.435,1.96l-.545.435v.109h-.217l-.762.544-.762.871-.545.109-.108.217h-.218v.109l-.327.109c-.133.892-.322,1.588-.979,1.96-.317.3-.533.068-.98.217v.109h-.327v.109H292.3v.109l-.653.109v.109h-.653v.108h-.545v.109h-.326v.109h-.436v.109l-1.2.109v.109l-.653.217v.109h-.218l-.326.436h-.218l-.109.217-.435.109v.109l-.98.109v.109h-.327v.109h-.762v.108l-.653.218v.109h-.326v.109h-.327v.109h-.544v.109h-1.089a16.617,16.617,0,0,1-3.7.108,9.35,9.35,0,0,1-2.068-.108h-1.524v-.109h-1.85v-.109h-1.851c-.64-.188-1.432-.357-2.068-.544h-1.2v-.109h-.327v-.109h-.218v-.109l-1.088-.109v-.109H265.3v-.109h-.326v-.108h-.327v-.109l-.871-.109v-.109h-.217V680.9l-.871-.109v-.109l-.436-.108v-.109h-.326v-.109l-.98-.109v-.109h-.217v-.109H260.4v-.108l-.871-.109V679.7H259.2v-.109h-.218v-.109h-.327v-.109l-1.959-.326v-.109h-.435v-.109h-.327v-.109h-.327v-.109H255.4V678.5l-1.851-.435v-.109h-.217v-.109l-.545-.109v-.108l-.762-.109v-.109l-.653-.218v-.109h-.218v-.109h-.326v-.108l-.653-.218v-.109h-.218v-.109h-.218v-.109h-.217v-.108H249.3l-.218-.218h-.217l-.109-.218-.436-.109-.109-.217h-.217l-.109-.218h-.218l-.326-.436h-.218l-.218-.326h-.218l-.217-.327h-.109l-.327-.544H245.6v-.109h-.327v-.109h-.217v-.109h-.218l-.218-.326h-.109v-.218H244.4v-.217l-.218-.109v-.218l-.436-.327v-.217l-.326-.218v-.109H243.2l-.979-1.088-.436-.327-.109-.435h-.109l-.108-.327-.218-.109v-.217l-.218-.109v-.218l-.218-.109v-.218l-.217-.108v-.218l-.218-.109v-.218l-.218-.109v-.217l-.217-.109v-.218a2.738,2.738,0,0,1-.545-1.741c.328-.217.049-.1.218-.327l.544-.435v-.218l.545-.436v-.217l.326-.218v-.218l.218-.109.109-.435.326-.218v-.217l.218-.109.109-.327h.109l.217-.653.218-.109v-.217h.109l.109-.98c-.005-.023-.146-.037-.109-.218h.109c.067-.22.042-.269.109-.435l.326-.109.109-.218h.218v-.109l.762-.108v-.109h.217v-.109h.436v-.109h.653v-.109h.653v-.109h.762v-.109c.643-.172,1.064.5,1.633.327v-.109h.326l.109-.218h.218v-.108h.218l.217-.218h.218l.109-.218.653-.109v-.109h.218v-.108h.217l.109-.218.436-.109.109-.218.326-.109.327-.435h.217v-.109h.218l.109-.218.435-.108.327-.436.653-.109.218-.326h.326l.109-.218h.218l.109-.218.653-.217.109-.218h.217l.218-.327h.218l.109-.217.544-.109.109-.218.435-.109.109-.217h.218v-.109h.217l.218-.218h.218l.218-.327,1.2-.435.109-.218h.218l.435-.544.98-.326.108-.218.436-.109.109-.218h.217v-.109c.47-.259.783-.065.871-.762a1.441,1.441,0,0,1-.435-.326h-1.524v.109l-1.524.109h-2.613v.108h-.435V649h-1.633v.109a13.78,13.78,0,0,1-3.374-.109l-1.96.109V649h-.544v-.109l-.653-.217v-.109l-.435-.109-.109-.218-.436-.108-.217-.327h-.218V647.7l-.327-.109-.108-.217h-.218l-.218-.327h-.218l-.326-.435h-.218l-.109-.218-.435-.109v-.109h-.218l-.109-.218-.653-.217-.109-.327H244.4a1.035,1.035,0,0,1-.327-.871c.124-.092.016.014.109-.108.624.021.968-.057,1.088-.545h.109l-.109-.326a1.525,1.525,0,0,1-1.2-.871h-.109v-.436l.327-.217v-.109l.653-.218V641.6l.326-.109.109-.217h.218l.544-.653h.218l.218-.218v-.218l.435-.326v-.218l.218-.218v-.217h.109v-.218l.217-.109v-.218l.653-.544V637.9l.218-.217h.218l.109-.218h.217l.109-.218h.218l.109-.217h.218l.108-.218h.218l.871-.98h.218l.217-.326h.218l.218-.218h.217v-.109h.218l.109-.218.653-.217.218-.327h.218l.326-.435h.218l.109-.218.762-.218.108-.217h.218v-.109h.218L255.5,633h.217l.109-.218.436-.109.108-.217h.218v-.109l.436-.109v-.109h.326v-.109l.653-.217V631.7l.436-.109.108-.218.654-.109.108-.217h.327v-.109h.218v-.109h.217v-.109h.218v-.109h.218V630.5l.653-.217.109-.218.762-.109v-.109l.653-.217v-.109h.762v-.109h.326V629.3h.327v-.109l1.088-.109v-.109l.871-.108v-.109h.327v-.109h.653c.541-.16,1.308-.28,1.85-.436h1.416V628.1h.762v-.109h.435v-.109h2.721a22.021,22.021,0,0,1,5.334.326h1.524v.109h1.306v.109h.762v.109h1.306c.541.158,1.217.381,1.742.544h.653v.109l.653.218v.109h.436l.109.217h.217v.109h.218v.109l.544.109c.2.13.282.484.436.653l.762.653v.218l.217.109v.217l.327.218v.218l.218.109.108.435.218.109v.218h.109l.109.435h.109l.109.871h.108v.218h.109v.87h.109v1.307h.109a6.24,6.24,0,0,1,0,1.85l-.435.327v.217l-.218.109v.218l-.327.218v.217l-.217.109-.218.653-.218.109-.109.327-.326.217-.109.436-.436.326v.218l-.217.109-.327.435h-.217v.109H288.6l-.109.218-.653.218-.109.217h-.218l-.109.218-.435.109v.109h-.435v.109H286.2v.109h-.327v.108h-.435v.109h-.218l-.108.218-.762.109v.109h-.218l-.109.217-.762.109v.109h-.327v.109h-.217v.109l-1.2.109v.108h-.544v.109h-.435v.109H280.1v.109h-.762v.109h-.979v.109h-.327v.109h-.544v.108h-.653v.109h-.653v.109h-.327v.109h-.327v.109h-.544v.109h-.435v.109h-.436v.108h-.326v.109h-.544v.109l-.654.109v.109h-.217v.109h-.327v.109h-.435v.108h-.544v.109h-.218v.109h-.327v.109l-.762.109v.109h-.217v.108l-1.2.327-.109.218H267.7v.109l-.653.217v.109h-.218v.109H266.5v.109h-.218l-.109.218h-.326v.108h-.218v.109l-.436.109v.109l-.979.218v.109l-.544.108-.109.218h-.218v.109l-.435.109v.109l-.654.108-.108.218-.545.109v.109h-.217l-.109.218h-.218v.108h-.218l-.217.218H260.4l-.109.218-.653.218-.218.326H259.2l-.218.327h-.218l-.109.217h-.217l-.109.218h-.218l-.109.218h-.218l-.108.218-.436.108-.109.218h-.217v.109A1.207,1.207,0,0,1,256.374,655.533Z"/><path class="a" d="M308.854,693.42V693.2l-.871-.762-.109-.218h-.327l-1.2-1.306V690.7l-.218-.109-.109-.435-.217-.109-.109-.544-.218-.109v-.218h-.109l-.108-.435h-.109V688.2l-.218-.108-.218-.98h-.109l-.108-.435h-.109l-.109-.762h-.109l-.109-.436h-.109l-.217-.98h-.109v-.217h-.109v-.327h-.109l-.109-.871-.218-.108v-.545h-.108V682.1h-.109v-.218h-.109v-.327h-.109v-.217h-.109V680.9h-.109l-.217-2.068v-.98h-.109V676H302l.109-1.742h.109v-.326h.108v-.871h.109l.109-2.5h.109v-.326h.109v-.653h-.109l-.109-3.157h.109V666.1h.109v-.217h.109l.109-.762h.108v-3.375h.109v-.326h.109v-.327h.109v-.326h.109v-.218h.109v-.218l.217-.109v-.326h.109v-.218h.109v-.218l.218-.109.218-.653.217-.109v-.217l.327-.218v-.218l.218-.108v-.218l.326-.218v-.218h.109v-.217h.109v-.218h.109c.184-.3-.1-.2.326-.327V656.3c.183-.1.639.082.762.108l.218.436.218.109.108.544h.109v.218l.218.109.218.653.217.108v.218l.327.218.109.435.979.871v.218l.436.326v.218l.435.327.109.435.218.109.326.98h.109l.109.435h.109v.544h.109v.218h.109l.109.762h.108v.327h.109v.326h.109v.327h.109v.217h.109v.327l.218.109.108.435.218.109.218.653.217.109v.218h.109v.217h.109l.109.327.218.109.109.435.217.109.109.435h.109l.109.327.218.109v.218l.217.108.218.654.218.108v.218h.109v.218h.108v.326h.109v.327h.109v.218h.109v.435h.109l.109.435h.108v.218l.218.109v.327h.109l.544,1.088h.436a10.3,10.3,0,0,0,.762-1.415v-.98h.109c.073-.225.041-.371.108-.544a.808.808,0,0,0,.327-.218c.219.063.094-.013.218.109.786.227.3.63.544,1.306h.109v.218h.109v.327l.217.109.109.435.327.218v.217l.217.109v.218l.327.109.109.326.544.436.109.435h.109v.762h.109v.436h.109v1.415h.108v.435h.109l-.109,3.483h-.108v.545h.108v.326h.109l.109.98h.109l.762.871.98.326v.109h.217v.109h.436l.653.544v.871c-.144.12-.2.3-.327.435l-.217.109c-.131.194-.15.626-.327.762l-.435.109-.109.218h-.218l-.109.218h-.218l-.108.217h-.218l-.109.218h-.218l-.217.326-.436.109-.435.545-.218.108v.218l-.218.109-.108.544-.218.109v.327h-.109v.217h-.109v.218l-.218.109-.217.653-.436.327v.217l-.544.436v.109l-.98.217v.109h-.544v.109h-.544v.109l-1.415-.109h-1.524v-.109l-1.633-.109v-.109l-.435-.108v-.109h-.218l-.218-.327H311.9l-.109-.218-.545-.108v-.109h-1.524C309.419,693.756,309.19,693.508,308.854,693.42Z"/><path class="a" d="M329.862,657.281a12.548,12.548,0,0,1,3.048.109h.762v.109H334v.109h.217v.109l.98.217.109.218h.218v.109h.326l.109.218.327.108v.109l.435.109.218.327.435.109.653.762h.218l.109.217h.217l.327.436h.218l.217.326h.218l.109.218.435.109v.109h.218v.109h.218v.108l.653.218v.109h.544v.109h.327v.109h.326v.108h.327v.109l.653.109v.109l.435.109v.109h.218l.109.217h.218l.217.327h.218l.327.435h.217l.218.218v.218l.327.218v.217l.217.109v.218l.327.218v.217l.218.109v.218h.108l.109.435h.109v.653h.109v.436h.109v.435h.109v.327h.109l.217,2.394a4.831,4.831,0,0,0-.217.871l-2.069,1.851-.435.544h-.218l-.109.218-.326.109v.108h-.218l-.109.218h-.217l-.109.218h-.218l-.218.326h-.217l-.109.218H342.6l-.218.327-.435.109-.109.217h-.218v.109h-.653V676h-.217v.109h-.218v.109h-.218v.108h-.218v.109h-.217v.109l-.436.109v.109l-.653.109v.109l-.653.217v.109l-.435.109-.109.218-.653.217-.218.327H336.5l-.109.218-1.415.435-.109.218-.653.218L334,679.6l-.762.653c-.415.415-.67.886-1.415.98-.3-.519-.338-.409-.327-1.306h.109v-.653l.218-.109.108-.327h.109l.109-.653h.109v-.218h.109l.109-1.088h.109l.108-1.306h-.108v-.436h-.109l-.109-1.2-.218-.109v-.218h-.109v-.218l-.217-.217v-.218l-.218-.109v-.218h-.109l-.109-.435-.218-.109v-.326h-.108v-.218h-.109v-.218h-.109v-.217h-.109v-.218h-.109v-.218h-.109v-.326l-.217-.109v-.218h-.109l-.218-.653-.326-.218v-.217l-.218-.109-.109-.327h-.109v-.218H329.1l-.109-.326-.217-.109v-.327h-.109v-.326h-.109v-.327h-.109c-.269-.841.318-1.4-.109-2.068l-.326-.218v-.217L326.6,663.05v-.217l-.436-.327v-.218l-.217-.217v-.218h-.109v-.218h-.109v-.217h-.109V661.2h-.109v-.218a3.9,3.9,0,0,1-.653-1.741c.271-.15.446-.438.762-.545l1.089-.109.217-.326h.218l.218-.327h.217l.109-.217.436-.109V657.5C328.537,657.339,329.578,657.534,329.862,657.281Z"/><path class="a" d="M364.76,618.523a.98.98,0,0,0,.435-.218V618.2h3.266v-.109h.326l.109-.217h.218l.218-.327h.217l.109-.218a2.986,2.986,0,0,1,1.2-.326v.109l.544.109.544.653h.218l.109.217.435.109.653.871v.218h.109v.218l.544.435v.218l.327.217v.218l.217.109v.218h.109v.326h.109v.98h.109v.218l.218.108.217.654.218.108v.218h.109l.218.653h.109v.327h.108a3.549,3.549,0,0,1-.653,2.286l-.326.217v.218l-.327.218-.109.544-1.088.544c-.141.113-.119.4-.218.545l-.326.217v.218l-.218.109v.109H372.6a6.274,6.274,0,0,0-.653.435l-.109.436-.218.108-.435.545h-.218v.109h-.217v.108l-.218.109v.218l-.327.218v.217h-.108l-.218.327h-.218v.109l-.326.109-.98,1.2-1.306.109v.109h-.218l-.218.326-.326.109v.218l-.218.109-.218.326h-.217v.109l-.327.109-.109.218h-.218l-.108.217h-.109v.218h-.109v.218l-1.306.979v.218h-.109v.218l-.218.218v.217l-.326.109-.109.218h-.218v.109h-.109l-.109.326h-.109v.653h-.108v.436c-.179.53-.418,1.261-.98,1.415a8.529,8.529,0,0,1-.436.871c-.182.518.135.752,0,1.2h-.108v.327H360.3v.87c.2.131.233.3.435.436.314.313,1.123.217,1.742.218l2.177.108v.109l1.306-.109v.109h.544v.109l1.524-.218v-.108h1.089c2.392,0,5.031.131,6.858-.436l1.2-.109v-.109h.327v-.108h.326v-.109h.327v-.109l1.632-.109v-.109H380V644.1l.762-.109v-.108l.436-.109.761-.871h.109v-.218l1.2-.218v-.108a1.955,1.955,0,0,1,.979.108c.155.33.3.382.327.871l-.762.871-.435.327-.218.653h-.109l-.109.218h-.218l-.108.217h-.218l-.109.218h-.218l-.326,1.088-.436.327v.218l-.217.109v.217l-.327.218c-.14.221-.017.483-.109.762a8.989,8.989,0,0,0-.326.871h-.218l-.544.653h-.109v.218l-.327.217v.218l-.326.218v.217h-.109v.218l-.327.218v.109l-2.177,1.2c-.141.114-.118.4-.217.544l-.871.653h-.218v.109h-.218q-.326.437-.653.871H373.8l-.109.218h-.218v.109l-.435.109v.108h-.327l-.653.762h-.218v.109h-.218v.109h-.326l-.109.218-.435.109-.109.217h-.218l-.218.327a3.043,3.043,0,0,1-.979.544v.109l-1.415.109-.109.218-.327.217v.109h-.217l-.436.544-1.524.327V660h-.218v.109h-.217l-.109.217-.436.109-.217.327-.436.109-.108.217-1.089.218v.109h-.218v.109l-.544.109v.108h-.218v.109l-.653.218v.109l-.653.109v.109h-.218v.108h-.653c-.605.177-1.674-.073-2.286.109v.109h-.435v.109h-.435v.109h-.98v.109l-1.524-.109v-.109H353v-.109h-.436v-.109c-.734-.218-1.675.169-2.286-.109v-.108h-.217l-.436-.654h-.217v-.108h-.327v-.109h-.327v-.109h-.217V661.3h-.762v-.109h-.218v-.109h-.218l-.217-.326h-.218l-.436-.545h-.217l-.327-.435h-.217l-.327-.435h-.218l-.217-.218v-.218l-.327-.217v-.218l-.218-.109v-.218l-.326-.217v-.218l-.653-.544v-.218l-.327-.218V656.4h-.109v-.218h-.109v-.218l-.217-.109-.109-.326-.436-.327-.217-.653-.218-.109v-.217h-.109v-.871l-.326-.218v-.218h-.109l-.109-.326-.327-.218-.109-.435-.217-.109-.109-1.415h-.109V650.2l-.218-.109v-.218l-.762-.653-.109-.435h-.108v-.98h-.109v-.653s.142,0,.109-.218h-.109a8.762,8.762,0,0,1,.109-2.721l-.109-1.088h.109c.093-.328-.045-.617.108-.871l.218-.109v-.218l.218-.109V641.6l.218-.109v-.218l.217-.109v-.217h.109a4.468,4.468,0,0,0,.218-1.524v-.762h.109v-.218h.109v-.218l.217-.109v-.326l.218-.109v-.218l.327-.217v-.218l.217-.109V636.7h.109l.109-1.2h-.109v-.653h.109v-.218h.109v-.218h.109l.109-.326h.217c.216-.324.533-.314.653-.762a6.907,6.907,0,0,0,.436-1.306h-.109a2.656,2.656,0,0,0-.436-1.089l-.326-.218V630.5l-.327-.218-.108-.435-.218-.109-.109-.653h-.109v-.545h-.109v-.217l-.653-.545v-.217l-.218-.109q-.271-.926-.544-1.851l-.218-.109v-.217l-.653-.545v-.217l-.217-.109-.109-2.068h-.109V621.9h-.109v-.326h-.109v-.545h-.109l-.108-.435H338.2v-.218h-.109v-.217h-.109v-.327h-.109V619.5h-.109v-.327h-.109v-6.858h-.108a3.444,3.444,0,0,1,.108-1.741v-.653h.109V609.6h.109v-.435h.109v-.654h.109v-.435h.109v-.327h.109v-.435h.108l.109-1.524h.109v-.218h.109l.218-1.632h.108v-.327h.109v-.327h.109v-.326h.109l.109-.871h.109v-.218h.109l.108-.979h.109l.218-.653h.109l.109-.98h.109v-.218h.108v-.326h.109v-.436h.109l.218-.653h.109v-.218h.109v-.435h.108l.218-.653h.109l.109-.436.218-.108v-.218h.108l.109-.327h.218c.1-.131.249-.119.326-.217v-.218l.436-.327.109-.326a3.506,3.506,0,0,1,.979-.544,1.213,1.213,0,0,1,.218-.545h.109v-.217l.218-.109.217-.327h1.524c.237-.216,1.457-.014,1.96,0,.2.312.607.505.871.762l.217.327h.218v.109h.435v.108l.436.109v.109h.217l.109.218h.218a3.872,3.872,0,0,1,.435.871v.326h.109v.327h.109v.326h.109v.218h.109v.218l.326.217v.109h.218l.109.327.218.109v.217h.108l.327,4.9a12.654,12.654,0,0,0-.109,3.157h.109l.109,2.177h.109l.217,1.306h.109v.326h.109v.218h.109l.109.762h.109v.327h.109v.326h.108l.109,1.089h.109V613.3l.109,2.177-.109.435h.109v.436h.109l.109.435h.109V617l.217.109v.217l.218.109v.218h.109v.327h.109v.217h.109v.871h.108c.113.4-.144,1.134-.108,1.306a1.362,1.362,0,0,0,.544.762c.408.422,1.261.038,1.741-.109h.654l.979-.326.327-.435h.217l.109-.218h.218l.109-.218h.326v-.109h.327v-.109h.98V619.5h1.2v-.109H364v-.109C364.359,619.081,364.647,618.972,364.76,618.523Z"/><path class="a" d="M389.687,595.337a7.322,7.322,0,0,1,2.939.544l1.2.109v.109h.327v.109h.327v.109h.762v.109l.761.109v.108h.218v.109l1.306.218v.109h.218v.109h.544v.109l.762.108v.109h.218v.109l.653.109.109.218h.218v.109h.217v.108h.327v.109h.218v.109l.435.109v.109h.327v.109l.435.109v.108h.218v.109h.326l.109.218.327.109v.109l.653.217.218.327h.217v.109l.436.109v.108h.544v.109c.312.155.46.291.762.436a9.538,9.538,0,0,0,.871,2.394v1.524h-.109V605.9h-.109v.218h-.109v.653h-.109l-.108.435-.327.218v.218h-.109l-.326.435h-.218l-.218.327-.653.217-.109.218h-.218l-.326.435h-.218l-.871.98-1.524.762c-.587.2-1.3-.354-1.85-.109l-.109.218h-.218v.109h-.217v.109l-1.089.108-2.612,2.286c-.457.643-.625,1.783-1.633,1.851v-.109h-.871l-.435.544-.545.109a6.19,6.19,0,0,1-.108-1.742v-3.047h-.109l-.109-.545h-.109v-.326H391.1v-.653h-.109l-.109-1.307h-.108v-.435h-.109v-.435h-.109v-.654h-.109v-.217l-.218-.109v-.327l-.217-.108v-.218l-1.307-1.089V604.7l-.762-.654-.217-.326h-.109V603.5l-.762-.653v-.218l-.327-.217V602.2l-.217-.109v-.218H386.2v-.217H386.1v-.436h-.109l-.218-.653h-.109v-.326h-.108v-.218h-.109v-.871a8.106,8.106,0,0,1-.218-2.177l.327-.218v-.109h.217l.218-.326.435-.109V596.1l1.742-.109v-.109h.327l.109-.217h.217v-.109C389.1,595.429,389.476,595.532,389.687,595.337Z"/><path class="a" d="M378.149,615.693c-.59-.162-.731-.69-.98-1.2h-.109l-.109-.653h-.109v-.217l-.326-.218v-.218l-.218-.109v-.217l-.218-.218v-.218h-.108v-.218l-.218-.108a2,2,0,0,1-.327-1.307c.285-.15.185-.192.653-.217.334-.289,1.181-.005,1.633,0l1.633-.109v.109H380v.108h.544v.109h.545v.109l.544.109.109.218.653.109v-.109h.435v-.109l.436-.109V610.9h.326v-.109h.545v-.109h.435v-.108h.327v-.109h.544v-.109h.217v-.109a2.124,2.124,0,0,1,1.089-.218,2.092,2.092,0,0,1,.109.762h-.109c-.167.295.15,1.4.218,1.524h.109v.218l.217.109.109.435.218.109.435,1.306h.109v.218h.109a2.232,2.232,0,0,1,.109,1.306h-.109c-.146.681-.707.96-1.2,1.306l-.218.327-.436.109-.108.218H386.1v.108l-1.089.109v.109h-.326v.109l-1.306-.109v.109h-.327v.109h-1.959a9.114,9.114,0,0,1-1.633-.871v-.218l-.218-.109v-.217l-.326-.218v-.218l-.218-.108v-.218C378.5,616.067,378.273,616.163,378.149,615.693Z"/><path class="a" d="M392.931,624.793a4.155,4.155,0,0,1,1.876.521l.729.1v.1l.417.1v.105l.938.312.105.209.417.1.1.208.417.1.208.312.417.1v.1h.209l.1.208.521.1.1.209h.209l.1.208.417.1.1.208.521.1v.1h.208v.1h.209l.1.208.626.1v.1l.416.1v.1h.209v.1h.313v.1h.208v.1h.208v.1h.209v.1l1.355.313v.1h.313v.1h.208v.105l.938.208v.1h.521v.1l.417.105v.1h.834v.1h.417v.1h.312v.1l.73.1v.1h3.023v-.1h.312v-.1h.313v-.1h.313v-.1h.417v-.1h.833v-.1h.417v-.105h.313v-.1l1.772-.1v-.1h.417v-.1h6.774v.1h.417v.1h4.586v.1h.73v.1h.417v.105h.834v.1h.625v.1l.625.1v.1h.209v.1h.312v.1h.834v.1h.313v.1l1.251.1v.1h.729v.1h.521v.1h.417v.1l1.668.1v.1h.313v.1h.208v.1l.834.1v.1l.417.1.1.209h.208v.1h.313l.1.208h.209l.1.209h.208l.209.312h.1v.209l.417.313v.208l.208.1.1.313h.1v.208l.208.105.1.417.208.1.1.521.209.1v.313h.1v.208h.1v.313h.1l.209.625h.1v.73h.1v.521h.1l-.1,1.146h-.1v.417l-.313.209-.208.625-.625.521-.1.313h-.208l-.417.521h-.208l-.105.209h-.208l-.313.416h-.208l-.209.313h-.1l-.1.209h-.209l-.521.625-.312.1-.522.626h-.208l-.1.208h-.209l-.1.208-.313.1-.312.417h-.209l-.1.208-.417.1-.1.209h-.209l-.208.208h-.208v.1h-.209v.1H436.6v.1h-.209v.1h-.208v.1h-.209v.105h-.208v.1l-.626.208v.1l-.938.209v.1l-.416.1v.105l-.834.1v.1h-.313v.1h-.208v.1l-.73.1v.1l-.417.1v.1l-1.355.209v.1h-.208v.1l-.834.1v.1l-1.042.208v.1h-.938v.1h-.417v.1h-.313v.1h-.417v.1h-.625v.1l-.73.1v.1H424.2v.1l-.938.1v.1h-.313v.1h-.313v.1l-1.042.209v.1h-.208v.1l-.73.1v.1l-.417.105v.1h-.521v.1H419.4v.1h-.312v.105l-.417.1v.1l-.73.1v.105l-.417.1v.1l-.625.1v.1h-.209v.1h-.312v.1h-.521v.1h-.313v.1h-.209v.1h-.312v.1h-.521v.1h-.313v.1h-.313v.1h-.312v.1l-.938.1v.1h-.313v.1h-.209v.1a6.322,6.322,0,0,1-2.5,0,2.8,2.8,0,0,1-.1-.938h-.1l.1-.938.208-.105v-.208h.1v-.209l.209-.208v-.209l.208-.1.105-.417h.1v-.312l.208-.1v-.208h.105l-.105-1.042-.938-.521v-.1h-.417v-.1l-.729-.1v-.1h-.521v-.1h-1.668v-.1h-.938v-.1h-.73v-.1h-1.146v-.1h-.521v-.105h-.209v-.1h-.312v-.1l-1.043-.209v-.1h-.208v-.1l-.521-.1v-.1l-.417-.105v-.1h-.209v-.1h-.208v-.1l-.625-.209v-.1h-.313v-.1h-.208v-.1l-.626-.208v-.1h-.313v-.1l-.625-.209v-.1H397v-.1h-.209v-.1h-.208v-.1h-.209v-.1h-.208l-.209-.208h-.208l-.1-.209-.417-.1v-.1l-.313-.1-.1-.208H394.6l-.208-.313h-.208l-.209-.312h-.208l-.105-.209h-.208l-.521-.625h-.209l-.521-.626h-.208l-.313-.416h-.208l-.313-.417h-.208l-.313-.417h-.209l-.416-.521H389.8l-.313-.417h-.208l-.938-1.043-.625-.521v-.208l-.209-.1-.1-.313h-.1v-.209l-.209-.1v-.208l-.208-.209V637.4h-.1V637.2l-.208-.1v-.208h-.1l-.1-.626h-.1l-.208-.625h-.1v-.208h-.105v-.209h-.1v-.208h-.1v-.313h-.1v-.208h-.1v-.209l-.209-.1v-.417l-.208-.1v-.209H384.9v-.208h-.1v-.209l-.208-.208v-.209l-.209-.1-.1-.625h-.1l-.1-.417h-.1v-.208h-.1v-.313h-.1v-.209h-.1v-.208h-.105v-.208h-.1l-.1-.834a3.85,3.85,0,0,1-.417-1.147h.1v-.312l.209-.1c.38-.407.326-.431,1.146-.417a3.121,3.121,0,0,1,2.293-.208c.159.052.545.294.834.208v-.1h.313l.1-.208.625-.209.1-.208.625-.209.1-.208h.209v-.1h.208l.1-.209h.209l.208-.312h.209l.1-.209.313-.1v-.1h.208l.1-.209h.209V625h.208v-.1h1.251Z"/><path class="a" d="M391.68,662.731a.893.893,0,0,0,.417-.209v-.1l.417-.1v-.1h.417A2.789,2.789,0,0,1,394.39,662v.105h.521v.1l.417.1v.1h.208l.1.209.521.1.1.208.417.1.1.208,1.147.417.1.208h.313v.1l.312.1.105.208h.208v.1h.208v.1h.313v.1l.417.1v.1h.313v.1h.208v.1h.313v.1l.417.1v.1h.312v.1h.209v.1l.625.1v.1l.626.1v.1l.416.1v.1h.417v.105h.209v.1c.261.132.555.085.834.208v.1l.625.209v.1h.417v.1l.625.209v.1l.521.1.1.209h.208l.1.208h.209v.1h.208l.313.417h.208l.209.313h.208l.73.834.834.729v.209l.312.208v.209l.209.1.1.417.208.1.209.625.208.1v.312h.1l.208.626h.1l.1.417.209.1v.208l.313.209v.208l.416.313v.1h.209l.208.313.417.1v.1l.417.1.1.209h.834v.1a9.747,9.747,0,0,0,2.606-.1h1.251v-.1h.729v-.105h.834v-.1c.57-.162,1.474.039,1.98-.1h2.4v-.1h1.042v-.1h.521v-.105h1.146v-.1h.73v-.1h.313v-.1h.312v-.1l.938-.1v-.1h.417v-.1h.313v-.1h.313v-.1h.521v-.1l1.042-.208v-.1l1.251-.208v-.1h.208v-.1h.834v-.1h.313v-.1h.208v-.1l1.668-.313v-.1h.208v-.1l1.251-.1v-.1h.313v-.1h.417v-.1h.416v-.1h.522v-.105h.521v-.1h.417v-.1h.416v-.1h.73v-.105l1.251.105v.1l.417.1v.1h.312v.105h.313v.1h.208l.105.312.729.626v.208l1.043.938v.209l.208.1.1.313h.1l.105.417h.1v.208l.208.1a4.774,4.774,0,0,1,.313,1.876h-.1v.521h-.1v.209l-.209.1v.209h-.1v.208l-.209.208v.209l-.416.313v.208l-1.043.938-.834.938-.416.1v.1h-.209l-.1.208H443.9l-.208.313h-.208l-.313.417h-.209l-1.042,1.146h-.208l-.521.625h-.209l-.521.626h-.208l-.417.521h-.209l-.1.208-.417.1v.1l-.625.208v.1l-.834.1v.1h-.209v.1c-.261.133-.554.085-.833.209v.1l-.417.1v.1l-.834.1v.1l-.417.1v.1l-.834.1v.1l-.625.1v.1h-.209v.1l-.938.1v.1h-.312v.1h-.209v.1l-1.042.209v.1l-.417.1v.1h-.521v.105h-.209v.1h-.312v.1l-.417.1v.105h-.313v.1l-.417.1v.1h-.208v.1h-.313l-.1.209-.73.208-.1.209-.625.208-.1.209-.626.208v.1h-.208v.1h-.209v.1l-.625.208v.1h-.313v.1h-.208v.1h-.313v.1l-.625.209v.1l-.834.1v.1H421.8v.1h-.313v.1h-.313v.1h-.521v.1h-.417v.1h-.313v.1H419.3c-.547.162-1.315.257-1.876.417h-1.563v.1h-1.668v.1h-.208v.1a8.219,8.219,0,0,1-2.71-.208v-.1h-.626v-.105H409.4v-.1h-1.043v-.1a5.673,5.673,0,0,0-2.293.208c-.273.06-.993-.232-1.459-.1v.1h-1.146v-.1h-.313v-.1L402,692.956v-.1h-.209v-.1h-.313v-.1l-.833-.1v-.1l-.417-.1v-.1H399.6v-.1l-.417-.1v-.1l-.938-.208-.1-.209h-.208v-.1h-.209v-.1h-.312v-.1H397.2l-.1-.209h-.209v-.1h-.208l-.313-.417-.417-.1-.1-.209h-.208l-.209-.312-.312-.105-.522-.625h-.208l-.417-.521h-.208l-.313-.417-.208-.1-.1-.313-.625-.521v-.208l-.625-.522v-.208l-.209-.1v-.209l-.313-.208-.1-.417-.417-.313-.1-.417-.208-.1v-.208h-.105V684.1h-.1v-.208l-.208-.209v-.208l-.209-.1-.1-.417h-.1v-.209h-.1v-.208h-.105v-.209h-.1v-.208h-.1l-.1-.417h-.1l-.1-.417h-.1v-.208h-.1v-.209l-.209-.208v-.209l-.208-.1c-.126-.206-.1-.623-.209-.834l-.208-.1v-.313h-.1v-.208h-.1v-.209h-.105l-.208-.625h-.1l-.105-.625h-.1v-.209h-.1l-.1-.625h-.1v-.208h-.1v-.313h-.1v-.209h-.1l-.1-.833h-.1v-.209h-.1l-.1-.938h-.1l-.105-.625h-.1v-.209h-.1v-.729h-.1l-.1-.834h-.105v-.313h-.1v-1.146a11.421,11.421,0,0,1-.521-3.231l-.1-.834h.1v-.313l.208-.1c.231-.359.142-.592.626-.73.455-.434,1.6-.415,2.5-.417h.834v-.1h.625v-.1h.313v-.1l.625-.209v-.1h.209l.208-.313h.209l.312-.416h.209Z"/></g></svg>