<svg xmlns="http://www.w3.org/2000/svg" width="264.864" height="93.478" viewBox="0 0 264.864 93.478"><defs><style>.a,.b{fill-rule:evenodd;}.b{fill:#b9321a;}</style></defs><g transform="translate(0 0)"><path class="a" d="M126.685,642.086a4.212,4.212,0,0,0-2.125.293v.073h-.22v.073c-.27.08-.449-.1-.587-.146l-.586-.073v-.073h-.147v-.073a3.5,3.5,0,0,0-1.245.073v.073c-.274.081-.628-.082-.806.073a1.145,1.145,0,0,1-.733-.147l.146-2.345h.073l.074-.733h-.074a1.137,1.137,0,0,1,.074-.44,3.765,3.765,0,0,1,1.392,0l.659-.073v.073a4.562,4.562,0,0,0,1.979-.22h.733v-.073h.367v-.073h.293l.073-.146h.147l.073-.147h.147l.073-.146c.214-.207.352-.237.22-.586v-.22h-.073a2.249,2.249,0,0,0-.953-.586h-.88v-.073h-.733v-.073H123.02V636.3h-1.245a7.436,7.436,0,0,0-1.1-.367q-.036-.733-.073-1.466h-.073l-.074-.366h-.073v-.147h-.073l-.073-.366h-.074a.6.6,0,0,1-.146-.293,1.475,1.475,0,0,1-.587-.44l-.073-.147c-.123-.084-.168,0-.293-.146H118.7c-.078.091-.13.077-.22.146v.073h-.146l-.22.293-.147.073v.146l-.146.073-.073.22h-.073v.22H117.6l-.073.293h-.074l-.146.733h-.073l.073.44h-.073v.073h-.513v-.073a5.821,5.821,0,0,1-2.125-.147l.146-.512h.073V633.8h-.073l-.073-.293h-.073v-.22h-.074v-.146l-.146-.073v-.147H114.3l-.22-.293h-.146v-.073a.76.76,0,0,0-.367-.22c-.2-.183-1.041-.082-1.392-.073l-.733.587V633l-.22.147v.146h-.073v.22h-.073v.22H111v.147h-.073v.293h-.073v.22h-.073v.147h-.073v.22h-.074l-.073.659a5.162,5.162,0,0,0-.073,2.712v.806h.073v.586h.073v.22h.074v1.245h.073v.22h.073v.22l.22.146v.146l.147.073.073.22.367.074v.073l.22.073-.146.88h-.073c-.011.1.052-.028.073.073v.733c.146.127.062.17.146.293l.146.073.293.366.44.147v.073l.66-.073v.073h1.246v.073l.293.073v.073c.415.147.736-.151.953-.22h1.025v.073h.587v.073l.22.073a7.687,7.687,0,0,0,.146,1.466l-.073.733v2.052c.146.126.062.171.146.293l.659.587a1.839,1.839,0,0,0,.953-.22q.182-.477.366-.953l-.073-.073a3.314,3.314,0,0,1,.147-.587v-1.246s.061,0,.073-.146a18.559,18.559,0,0,1,0-1.979l.073-.22.806.073V644.8l.733-.073v-.073c.036,0,.258.126.44.073v-.073h.367v-.073h.293V644.5l1.026-.074v-.073h.147v-.073l.586-.073v-.073l.44-.147v-.074l.513-.073.074-.147.366-.073v-.074l.66-.22c.019-.01.07-.108.146-.147C127.023,642.547,126.828,642.6,126.685,642.086Zm-8.94.146h-.587v-.073h-.146v-.073h-.44v-.074H115.4v-.073h-.22v-.073h-.147v-.073h-.44a4.194,4.194,0,0,0-1.612-.293,1.311,1.311,0,0,1,.22-.659h.073l.073-.587h.073v-.22h.073l.073-.293h.073v-.587a.671.671,0,0,0,.146-.146h2.859c.3,0,.858-.075,1.025.073.171.19.062.589.147.88h.073Z" transform="translate(-110.341 -588.302)"/><path class="a" d="M153.785,638.894h-.073v-.147c-.111-.154-.332-.2-.44-.366l-.44.073v.074h-.513v.073h-1.246v.073h-4.1V638.6H146.6v-.073h-.073a2.428,2.428,0,0,1,.22-.733v-.44h.073v-.513h.073v-.513h.074a1.115,1.115,0,0,1,.146-.659l.733.073v-.073h.953l.733.073v-.073h.147V635.6l.659-.146.074-.147.659-.073.806-.734c.133-.2.11-.424.293-.586a1.523,1.523,0,0,0-.659-1.466l-.22-.293-.366-.073-.074-.146h-.22v-.073h-.88v-.073h-.293v-.073h-.147v-.073h-.659v-.073h-1.319v.073h-.806v.073h-.22v.073h-.293v.073l-.733.073v.074h-.22v.073h-.22v.073h-.512v.073l-.44.146v.073l-.513.073v.073h-.22v.073h-.146v.073l-.44.073v.073h-.147v.073h-.22v.073h-.146v.074h-.22v.073h-.22v.074h-.22v.073h-.22v.073h-.293v.074h-.147v.073h-.146v.073h-.147v.073H140.3l-.146.146h-.147l-.073.147h-.147l-.22.293h-.146l-.073.147H139.2l-.147.22h-.146v.074l-.147.073v.22h-.073a.846.846,0,0,0,.146.66c.088.3.026.086.22.22l.073.146h.293v.073h.22v.074h.586v.073l1.393-.073v-.074h.22v-.073h.22v-.073c.3-.09.508.111.659.147.262.063.5-.239.659-.293l1.1.073a1.168,1.168,0,0,1,.073.586h-.073v.44h.073v.293h.073v.22h.073v.22h.073v.146h.073c.1.266-.039.394.147.587a.778.778,0,0,1-.073.293,3.949,3.949,0,0,1-1.172,0V638.6h-.587v-.073h-.22v-.074h-.22v-.073h-.22v-.073c-.44-.141-1.185.1-1.612-.073v-.073l-.293-.073v-.073h-.367v-.073h-.659a1.606,1.606,0,0,0-.953-.146v.074l-.513.073v.073h-.293v.073h-.146l-.073.146h-.146v.073l-.22.073a1.429,1.429,0,0,1-.22.586,1.516,1.516,0,0,0,.659,1.392l.146.22.44.146v.074h.147v.073h.146v.073h.513v-.073h.073v.073l.44.073v.074c.267.08.508-.1.659-.147h.806c.1.017-.026.045.073.073h1.026v.074h.586v.073h.073v-.073a4.926,4.926,0,0,0,1.026-.147v-.073h.146V640.8h.22v-.074a1.418,1.418,0,0,1,.733,0l.22.074c-.019.207-.03.267-.146.366v.733l-.806.587a4.4,4.4,0,0,0-.146.586c-.133.024-.147.073-.147.073h-.953v.073h-.22v.073l-.293.073v.073l-.366.073v.073h-.147l-.073.147h-.147l-.146.22c-.215.152-.291.115-.44.366h-.147a.6.6,0,0,1-.146.293h-.073v.147l-.146.073v.147l-.147.073v.147l-.146.073-.073.587h-.073V646h-.074l-.073.88h.073v.146l.146.073v.22h.073l.073.367h.073c.151.161.137.027.22.293.283.074.4.243.659.367v.074h.586v.073h.147v.073h.293v.073h.733v.073h.22v.074l.293.073v.073h.293v.073l1.685-.073v.073a3.6,3.6,0,0,0,1.613-.146h.293v-.073h.22v-.074l.879-.073.073-.147.366-.073v-.074h.22v-.073l.44-.073v-.073l.44-.147v-.073h.146l.953-.88v-.146l.22-.147.44-1.1-.073-.733-.146-.073v-.22h-.074v-.146l-.147-.074v-.146l-.146-.073-.146-.44-.22-.147-.44-.513h-.146l-.073-.146-.293-.074v-.073h-.146V642.7l-.44-.146v-.074h-.22v-.073l-.293-.074v-.073h-.146v-.073h-.22v-.073l-.44-.146V641.9H146.9v-.073H146.6v-.073h-.073a1.9,1.9,0,0,0-.147-.586,2.264,2.264,0,0,1,.073-.733,1.931,1.931,0,0,1,.659.147H148.8a5.11,5.11,0,0,0,1.539.073v-.073h.953v-.073h.659v-.073c.462-.129,1.085.066,1.393-.22h.146v-.073l.293-.22.074-.366h.073v-.439C153.837,639.036,153.856,638.984,153.785,638.894Zm-7.255,5.642v.073l.586.073v.074l.44-.074v.074h.293v.073H148v.073l.44.074v.073h.146l.073.147h.146v.073l.293.22c0,.5-.046.494-.293.733l-.073.146h-.147l-.146.22h-.147l-.146.22H148l-.073.146h-.147v.073l-.293.073v.074h-.22v.073h-.22v.073H146.9v.073h-.22v.073H143.6v-.073h-.22v-.073h-.146v-.073h-.22v-.073h-.22V647.1h-.147v-.073H142.5l-.146-.22h-.147c-.045-.03-.059-.1-.146-.146v-.513h.073l.44-.513h.146l.073-.147.293-.073.073-.147h.147l.073-.146.44-.146.073-.147h.147l.146-.146h.147v-.073h.146v-.073c.2-.093.2.035.366-.146l1.539.074v.073Z" transform="translate(-118.691 -588.093)"/><path class="a" d="M181.378,636.252h.44v-.073h.22v-.073h.147v-.073l.44-.074v-.073h.659l.44-.366.073-.587h-.073l-.073-.293h-.074l-.22-.293c-.282-.056-.633-.145-.879-.22l-.733-.073v-.074H181.6v-.073l-2.125-.513.073-1.025h.073l-.073-.953.073-.733a3.629,3.629,0,0,0-.44-.66c-.146-.044-.063.01-.146-.073a1.4,1.4,0,0,0-.66.22,4.369,4.369,0,0,1-.22.513v1.539h-.073v.44h-.073v.367h-.073v.073a2.291,2.291,0,0,1-1.538.293v-.073h-.367v-.073h-.293v-.073h-.44V633.1h-.22v-.073a.82.82,0,0,0-.806.293v.073H174.2c-.087.058-.008-.007-.073.074a1.479,1.479,0,0,1-.587-.22v-.073l-1.466-.073v-.073H172q.036-.806.073-1.612l-.513-1.1c-.227-.052-.582-.278-.953-.146v.073h-.146v.074h-.147v.073h-.22v.073c-.29.175-.1.109-.22.367H169.8l-.074.293h-.073v.366h-.073c-.115.387.031.936-.073,1.246a1.349,1.349,0,0,1-.587-.146v-.073h-.44v-.074h-.22v-.073h-.293v-.073h-.44v.073h-.733v.073h-.367v.074h-.366v.073h-.22l-.073.146-.293.073v.073l-.22.146a2.231,2.231,0,0,1-.293.659l.073.88.146.073v.147l.147.146.073.22h.073v.074l.293.073.146.22.293.073v.073a1.9,1.9,0,0,0,1.026.147v-.073h.293v-.074h.513v-.073h.293v-.073h.146v-.073h.22v-.074a3,3,0,0,1,1.026,0c.054.146.022.274.074.44h.073v.439h.074c-.017.315-.045.248-.146.44l-.513-.073v.073l-.513.073v-.073h-.147v-.073h-.22v-.073h-.44c-.334-.1-1.1-.3-1.392,0h-.147l-.366.44h-.074l-.073.293h-.073v.366h-.073a1.575,1.575,0,0,0,1.1,1.466c.14.1.295-.071.587,0v.073l1.759-.587c.083.082,0,.032.146.073v.22c-.832.339-2.586,1.174-2.784,2.052a3.187,3.187,0,0,0-.073,1.172h.073c.119.247.22.264.293.513a5.7,5.7,0,0,1,1.026.586l-.146.44h-.073v.147l-.146.073v.146h-.073v.293h.073c.024.1-.051-.028-.073.073a.855.855,0,0,0,.22.806v.293H167.6v.073l-.513-.147v-.073H166.5c-.125.147-.171.062-.293.146l-.073.146-.44.367-.073.366h-.073l.073.88a1.835,1.835,0,0,1,.44.586c.207.043.4.173.586.22l.44-.073V647.9l.586-.073v-.073h.147v-.073h.146l.073-.146h.22v-.073l1.832.073v-.073h.293v-.073l.293-.073v-.073h.44v-.073l.659-.074v-.073h.66v-.073h.366s0-.06.147-.073h.879v-.073h.146l.073-.147.733-.146.659-.733h.147c.044-.146-.01-.063.073-.147a.948.948,0,0,0-.147-.586h-.44v-.073H175v.073a4.309,4.309,0,0,1-1.246-.073c.025-.4.376-.818.22-1.246H173.9v-.146h-.073l-.073-.22a1.29,1.29,0,0,1-.513-.22c-.082-.084-.031,0-.073-.147l.733-.44v-.146l.22-.147.073-.293.146-.073a1.927,1.927,0,0,0,.146-.953h.22c.094.347.421.451.587.733.541.049,1.257.074,1.905.073h.587v-.073h.22V641.6h.806v-.074a3.211,3.211,0,0,1,1.538.147l.733.073v.22c-.2.128-.233.317-.366.513l-.147.073v.146l-.22.147v.146l-.146.073-.659.733c-.524-.039-.591-.453-.88-.733h-.073l-.073-.147h-.147l-.146-.22h-.146l-.073-.146a3.57,3.57,0,0,0-.659-.293l-.513.44.073.88h.073v.146l.22.147.073.293.22.147v.146l.44.367v.22h-.073c-.106.4-.122.153-.367.293l-.073.146h-.146v.073h-.146l-.073.146-.293.073-.073.146h-.146V646l-.44.073-.073.146-.587.074v.073a1.1,1.1,0,0,1-.659.147c-.07.249-.181.272-.293.513h-.073l.146.659c.174.047.137.021.22.146a2.5,2.5,0,0,0,.88-.293l.659-.073v-.073l.293-.073v-.073h.22v-.073h.146V647.1h.22l.073-.146.44-.146.073-.147.293-.074v-.073a1.583,1.583,0,0,0,.659-.513,1.157,1.157,0,0,1,.513.073l.073.146.293.074.073.146h.146l.074.146h.22v.074h.147v.073h.146l.073.146h.22v.073l.44.146v.074h.146v.073h.22l.073.146h.22v.073l.367.073v.073c.088.043.679.262.879.147v-.073h.147c.033-.018.252-.56.146-.733h-.073c-.049-.182-.035-.122-.146-.22v-.073h-.146v-.074h-.22l-.073-.146h-.147l-.146-.22h-.146l-.147-.22h-.146l-.367-.44h-.146l-.147-.22-.733-.586v-.293l.22-.073.073-.146h.147v-.074l.293-.22V643.8l.367-.293.074-.22.146-.073v-.146l.146-.073.073-.293.147-.073.073-.22h.074v-.147h.073v-.146l.146-.073.074-.293c.105-.194.5-.637.366-1.026h-.073l-.073-.292-.147-.074-.44-.513h-.146l-.22-.293h-.147v-.073l-.44-.147v-.073h-.44v-.073l-.44-.147v-.073h-.147v-.073h-.22v-.073l-.293-.073v-.073h-.293V638.6l-.22-.073a13.912,13.912,0,0,1,0-1.978A7.391,7.391,0,0,0,181.378,636.252Zm-9.234,7.548h-.073l-.073.293-.22.146-.073.953a.734.734,0,0,0-.147.147c-.465-.005-1.394,0-1.612.22-.237-.029-.214-.067-.367-.147.013-.306.183-.974,0-1.172v-.513h.073c.313-.309.966,0,1.466-.146v-.073c.394-.126.7-.017.953-.293l.367.073C172.4,643.579,172.288,643.624,172.144,643.8Zm-1.1-1.759h-.879v.073a1.118,1.118,0,0,1-.587.073v-.073h-.146v-.073l-.587-.073-.073-.146-.367-.073v-.073l-.22-.073c.049-.373.286-.4.44-.659a6.45,6.45,0,0,1,1.173.293l.879-.073v.073h.587v-.073h.44a5.808,5.808,0,0,0,1.026.22v.073h.073C172.647,642.046,171.8,642.042,171.045,642.042Zm7.036-3.664h-.44V638.3H175.3c-.078.093-.141.074-.22.147l-.367.44-.22.146-.22.733a.883.883,0,0,1-.586-.293l-.074-.147h-.146l-.073-.146h-.147v-.073l-.293-.073v-.073l-.88-.073v-.073l-.513-.073v-.073h-.146V638.6H170.9v-.073h-.073v-.073a5.341,5.341,0,0,1,1.319,0v.073h.44v-.073l.806-.073V638.3h.366v-.073l.293-.073v-.073h.659v-.073h.367v-.073h.146c.033-.02.063-.1.147-.147.019-.362.154-.659-.073-.879a.667.667,0,0,0-.44-.366,3.183,3.183,0,0,0-1.466,0v.073h-.22v.073H172.8v.073a4.015,4.015,0,0,1-1.172-.073,7.42,7.42,0,0,1,.22-1.172H172v-.073h.659v-.074h.513c.342-.1.273-.142.659-.073v.146l.293.22v.147l.22.146v.074l.22.073v.073c.186,0,.614-.081.659-.073v.073l.587.073v.073h.146v.073h.22v.073c.559.176,1.2-.4,1.613,0l.22.146A8,8,0,0,1,178.08,638.377Z" transform="translate(-127.447 -587.587)"/><g transform="translate(62.17 0)"><path class="a" d="M315.261,596.581a2.915,2.915,0,0,0-.523.224v.075c-.176.049-.191-.06-.224-.075-.282-.127-.363-.2-.374-.6a2.832,2.832,0,0,0,.823-.973l.075-.3.149-.075v-.224l.15-.075.075-.225h.075v-.224l.224-.15.15-.449.15-.075v-.15l.15-.075v-.149l.149-.075.075-.3.225-.149v-.15l.149-.075v-.15l.15-.074.075-.225h.075v-.224l.224-.149.075-.225h.075l.15-.449.149-.075V590.6l.15-.075v-.15l.15-.075v-.15l.15-.074v-.15h.074l.075-.3.15-.074v-.15l.15-.075v-.15l.149-.075v-.149l.15-.15v-.15H319v-.149l.15-.075v-.225h.074v-.149h.075v-.15h.075l.15-.449h.075v-.225h.075v-.15h.074l.075-.449h.075l.15-.448h.075l.075-.672h.074l.075-.3h.075v-.822a7.408,7.408,0,0,0,.3-2.243v-.9h-.075v-.3h-.075v-.3h-.075v-.224h-.075v-.225h-.075l-.075-.3H320.2l-.075-.374-.15-.075-.075-.3-.15-.075-.074-.3-.15-.075v-.15h-.075l-.075-.224a3.114,3.114,0,0,1-.9-.6h-.15l-.374-.448h-.15l-.149-.225h-.15l-.075-.15h-.15l-.449-.523h-.15l-.224-.3h-.15l-.149-.224h-.15l-.075-.15h-.15l-.374-.449h-.15l-.374-.449h-.15l-.149-.15v-.15l-.15-.075V574.3h-.075l-.075-.3h-.075v-.747h-.075l-.074-.448-.15-.075v-.225h-.075l-.075-.3h-.075v-.15l-.149-.075-.075-.3a3.093,3.093,0,0,1-.6-1.645c.085-.085.03,0,.075-.15a5.466,5.466,0,0,0,1.944-.374l.523-.075v-.075l.3-.074v-.075h.374v-.075h.224v-.075h.15v-.075h.224v-.075l.523-.075v-.074l.3-.075v-.075h.448a4.276,4.276,0,0,1,2.019-.3c.406.116.941.18,1.346.3l.748.075v.075h.224v.074l.6.075v.075h.225v.075h.15v.075l.6.075v.075h.225v.074l.374.075v.075h.15v.075h.224v.075h.15v.075l.449.074v.075l.3.075v.075h.149v.075h.225v.075h.15v.075h.149v.074h.15v.075h.374v.075h.225v.075h.15v.075l.449.075v.075h.149v.074h.225l.075.15.374.075v.075l.448.15v.074l.3.075.074.15.449.15.074.149h.15l.075.15h.15l.149.225.374.074.224.3h.15l.15.15v.149l.149.075.374.449h.074l.075.15h.15l.075.225.449.374v.149l.225.15v.15l.149.075.075.224h.075l.075.3.149.075v.149h.075v.972h.075a1.435,1.435,0,0,1-.075.673l-.075,1.2h-.074v.149h-.075l-.075.6h-.075v.15l-.15.075v.149h-.074l-.075.374-.15.075v.149h-.075v.15l-.15.15v.149l-.149.075v.15l-.15.075v.15l-.15.074-.075.3-.3.224v.15h-.075l-.075.225-.149.074v.15l-.374.3v.149l-.6.523v.15l-.673.6v.15l-.225.074-.149.224h-.15l-.075.15a2.409,2.409,0,0,0-.448.3v.075l-.15.075v.149l-.374.3-.6.673h-.15l-.374.448h-.15l-.074.149h-.15l-.225.3h-.149l-.225.3-.224.075-.075.15h-.15l-.225.3-1.047.9-.3.075-.075.15-.3.075-.075.149h-.15l-.149.15h-.15v.075h-.15v.075h-.15v.075h-.149l-.15.149h-.15l-.075.15h-.149l-.075.15h-.15l-.15.224h-.149l-.15.225-.225.075-.672.747h-.15l-.374.449h-.15l-.3.374h-.15l-.15.224h-.149l-.374.449h-.149l-.15.225h-.15l-.075.224-.449.374-.075.15h-.149l-.523.6h-.15v.075l-.225.15v.15l-.3.224v.15l-.15.075-.074.224h-.075l-.075.3-.15.075v.149l-.15.075v.075l-.149.075v.15h-.075A.8.8,0,0,0,315.261,596.581Z" transform="translate(-235.938 -568.271)"/><path class="a" d="M278.015,594.728v-1.72h-.075v-.225h-.075v-.374h-.075v-.15l-.15-.074v-.15l-.224-.15v-.15l-.15-.074-.075-.374-.15-.075v-.074l-.149-.075v-.15l-.3-.224v-.149l-.149-.075-.075-.3-.225-.15v-.15l-.149-.075v-.149l-.225-.15v-.15l-.6-.523v-.15l-.224-.149v-.15l-.225-.075-.225-.3h-.149l-.15-.225h-.15l-.074-.149H273.9v-.15h-.075v-.15l-.15-.075V587.1l-.15-.15v-.15h-.074v-.15l-.15-.074v-.15h-.075V586.2h-.075v-.149h-.075l-.149-.673c-.056-.141-.3-.5-.225-.748h.075v-.149h.075l.075-.448.149-.075.075-.374h.075c.014-.106-.264-.371-.3-.449a1.354,1.354,0,0,1,.224-1.345c0-.323.026-.608-.15-.748l-.224-.074V580.9h-.225l-.075.149-.3.225-.075.15h-.15l-.224.3h-.15v.075l-.3.225v.224h-.075v.15l-.15.075v.149l-.672.449a1.015,1.015,0,0,1-.973-.449l-.224-.149-.075-.3-.15-.075-.074-.3-.15-.075v-.15l-.3-.224v-.15l-.224-.15V580.9l-.225-.15q-.112-.336-.224-.673l-.15-.074-.075-.3-.6-.523v-.15l-.149-.074v-.075l-.449-.374v-.149l-.448-.374v-.15l-.224-.15-.448-.523h-.15l-.374-.448v-.15h-.075l-.075-.149h-.15l-.149-.225h-.15l-.075-.15-.3-.075-.075-.149-.3-.075-.448-.523h-.149l-.075-.15a2.96,2.96,0,0,0-.449-.3l-.3-.075-.672-.748-.225-.074-.449-.523a2.053,2.053,0,0,0-.9.075v.074l-.225.15a5.844,5.844,0,0,0,.3,1.5l-.074.822h.074v.9H259.7v.672h-.075v.15h-.075v.225h-.075v.149H259.4v.15l-.15.075v.15h-.074V580.9h.074v.449h.075v.224h.075v.225h.075l.075.9h.075v.3h.075v.3h.074v.523h.075v.225h.075v.149H260a2.839,2.839,0,0,1,.075,1.5,1.067,1.067,0,0,1-.823-.374l-.074-.15-.673-.149v-.075h-.15v-.075l-.672-.15v-.075h-.15v-.074h-.3v-.075l-.523-.075v-.075h-.15v-.075l-.448-.075v-.075l-.449-.149v-.075h-.15v-.075h-.15v-.075h-.15v-.075h-.149v-.075h-.15v-.074h-.15v-.075l-.3-.075v-.075l-.673-.075v-.075h-.149v-.074h-.225v-.075l-.9-.15v-.075l-.3-.075v-.075l-.374-.074-.075-.15-.374-.075-.075-.15h-.15l-.822-.9-.15-.449h-.075l-.074-.225-.15-.074-.075-.3-.15-.075-.074-.224-.449-.374V579.4l-.224-.15-.075-.3h-.075l-.15-.449h-.074l-.075-.523h-.075v-.15h-.075l-.075-.523h-.075v-.15a1.571,1.571,0,0,1-.3-.673,5.592,5.592,0,0,0-1.047-.074c-.08.1-.132.078-.225.149v.075h-.149l-.15.225h-.15l-.3.374-.748.673v.149l-.374.3v.149c-.08.1-.407.234-.523.374H244a7.212,7.212,0,0,1-.673-.823v-.3c-.053-.15-.166-.378-.225-.523-.149-.045-.064.01-.149-.075-.473,0-.582.076-.748.374v.15h-.075v.15h-.075v.224l-.149.075v.15h-.075v.15h-.075v.149h-.075v.225l-.15.075-.074.3h-.075v.15h-.075l-.15.448h-.075V580h-.075l-.074.3h-.075v.3h-.075v.3h-.075v.224h-.075v.225h-.075v.224h-.075v.225h-.074v.15h-.075l-.075.374h-.075v.15a2.532,2.532,0,0,0-.374.747h-.15c-.067.287-.19.324-.3.523l-.075.3h-.075l-.075.3-.15.075-.149.448-.15.075-.15.448-.149.075v.15h-.075l-.15.448-.15.074v.15l-.149.075v.15l-.15.075-.075.3h-.075l-.075.225-.149.074v.15l-.15.075-.075.3h-.075v.15h-.075l-.149.448h-.075l-.075.374-.15.075-.149.449-.225.15-.075.3-.15.074-.149.449-.15.074-.075.3-.15.075-.074.224h-.075l-.075.3H235.1l-.075.224-.15.075v.15l-.224.149v.15l-.15.075v.15l-.747.822h-.15v.075l-.449.15v.074h-.448v.075l-.449.15v.075l-.523.075v.075h-.15v.074l-.523.075v.075h-.3v.075h-.15v.075l-.673.15v.074h-.224v.075h-.225v.075h-.224v.075H228.9v.075h-.224v.075h-.15v.075H228.3v.074H228v.075h-.374v.075h-.15v.075l-.6.075v.075h-.3v.075l-.523.074v.075h-.225v.075l-.523.075v.075h-.149v.075h-.6v.074h-.225v.075h-.149v.075l-.449.075v.075h-.449v.075h-.3v.075h-.225v.074l-.9.075v.075h-.224v.075l-.6.075v.075H220.6c-.341.1-.845.2-1.2.3h-.9v.075h-.374v.075h-.3v.075h-.3v.075l-1.346.074v.075h-.523v.075h-.449v.075h-.6v.075h-.747v.075h-.748v.075l-1.869-.075h-3.813c-.429-.124-1-.253-1.421-.374h-3.813a6.1,6.1,0,0,1-1.2.3,1.587,1.587,0,0,0-.15.6h.075v.149l.15.15h.15v.075h.149c.043.027.058.1.15.15q.037.747.075,1.5v.672l.15.075.075.448h.074v.15l.15.075v.15h.075v.149l.15.15v.15l.149.075.075.3h.075l.075.225.15.074.075.3.149.075v.149l.225.15v.15l.224.149.075.225.6.523v.15l.225.149v.15l.224.15.075.3.747.523.673.748h.15l.374.448h.15l.075.15h.075l.672.747.3.075.149.224.673.6v.15l.15.075v.15l.224.149v.15l.225.075.075.15.3.074.075.15h.15l.075.15h.149l.374.449h.15l.15.224h.15l.149.225.374.075.074.15h.225v.074H212v.075h.224v.075h.225v.075l.3.075v.075h.15l.075.149h.149v.075h.15l.15.15h.149l.15.224h.15v.075l.3.075v.075h.225v.075h.15v.075h.224v.075l.3.074v.075h.6v.075h3.29a5.713,5.713,0,0,1,1.57.075v.673h-.075l-.075.3H220.3v.374h-.075v.225h-.074v.225h-.075l-.075.3h-.075v.3h-.075v.15h-.075l-.149.673h-.075v.149h-.075v.15H219.4v.15h-.075v.224h-.075v.15h-.075l-.074.3h-.075l-.075.449-.15.074-.3.9h-.075l-.15.448H218.2v.15h-.075v.149h-.074V620l-.15.075-.075.374h-.075v.15h-.075l-.149.448h-.075l-.075.449h-.075v.15h-.075l-.075.374h-.074l-.15.448h-.075v.15h-.075v.224h-.075l-.075.3h-.074v.224h-.075v.15h-.075v.15l-.15.074-.075.449h-.075l-.074.3h-.075l-.15.673h-.075l-.075.3h-.075l-.074.6h-.075l-.075.3h-.075l-.15.748h-.074l-.075.3h-.075v.6l-.15.075-.15.822h-.074v.225h-.075v.15h-.075v.224h-.075l-.075.6h-.075v.15h-.075v.224h-.074v.374h-.075v.225h-.075l-.075.3h-.075v.3h-.075v.224h-.075v.15h-.074v.225h-.075v.448h-.075v.224h-.075l-.15.449h-.075v.15h-.074v.15H212.9l-.075.449h-.075l-.15.448h-.074v.15h-.075l-.075.449H212.3v.15h-.075l-.075.448h-.075l-.074.3h-.075l-.075.449h-.075l-.15.448h-.075v.3h-.074v.149H211.4v.15h-.075l-.075.3h-.075v.374H211.1v.15h-.075l-.149.672H210.8v.15h-.075l-.075.448h-.075v.374H210.5v.15h-.074v.225h-.075q-.075.448-.15.9h-.075v.15h-.075v.224h-.074v.449h-.075v.3h-.075v.224h-.075v.3h-.075l-.075.6h-.075v.225h-.074V644h-.075v.3h-.075v.374h-.075l-.075.3h-.075v.523h-.075v.224h-.074l-.075.3h-.075l-.075.672h-.075l-.075.3h-.075l-.074.6h-.075l-.075.449h-.075v.149h-.075v.374h-.075l-.074.3h-.075l-.075.6h-.075l-.075.449h-.075v.15h-.075l-.074.448-.3.224-.3.374h-.15l-.075.149h-.15l-.074.15h-.15v.075l-.9.15v.074c-.2.09-.345.141-.523.225l-.075.3h-.075a.183.183,0,0,0,.075.225v.224l.15.075v.15h.074v.15l.448.374v.15l.15.075.075.374h.075v.149h.075l.075.3h.074v.224h.075v.15l.15.075v.15l.15.075.075.3.149.075c.165.317-.069.813.075,1.2h.075v.15l.15.075.075.3h.074l.15.449h.075v.224h.075q-.037.486-.075.972h.075v.225h.075v.149h.075v.449h.074v.224h.075v.225h.075v.149h.075l.075.15h.15l.074.15.3.224.075.3.149.075v.149l.374.3a4.788,4.788,0,0,0,1.346,1.122h.224v.074h.15v.075l1.122.075v.075h.6a2.645,2.645,0,0,0,1.5.225v-.075h.224v-.075h.15v-.075h.225v-.075h.149l.075-.15.3-.074.075-.15.448-.374v-.15l.523-.448.149-.449h.075l.075-.225.15-.075.075-.672a2.677,2.677,0,0,0,.3-1.57h-.075v-.523h-.075v-.15l-.149-.075-.075-.448h-.075l-.075-.3-.15-.075v-.15l-.3-.225-.075-.149h-.15l-.149-.15h-.15v-.075h-.15l-.149-.224h-.15l-.15-.225h-.15v-.075a1.074,1.074,0,0,0-.523-.3c-.088-.323-.236-.256-.374-.448v-.15l-.224-.15v-.149h-.075v-.15h-.075v-.225h-.075a2.009,2.009,0,0,1,.15-1.047l.075-.9h.074v-.224h.075v-.449h.075v-.3h.075V651.1h.075v-.225h.075v-.15h.075v-.374h.074l.15-.448h.075v-.3h.075l.075-.3h.075v-.225h.074v-.149h.075v-.225h.075v-.149h.075l.075-.374h.075v-.149h.075l.149-.449h.075v-.224h.075l.075-.3h.075v-.224h.074v-.225l.15-.074.075-.3.15-.075.075-.448h.074v-.15h.075v-.224l.15-.075v-.15h.075v-.149h.075v-.15h.075v-.15l.149-.15v-.149l.15-.075.075-.3.15-.075.149-.449.15-.075v-.15l.15-.15v-.149h.074v-.15l.15-.075V642.5h.075v-.149h.075v-.15l.15-.075.074-.3.15-.075v-.15l.15-.149v-.15h.075v-.15h.075v-.15h.074v-.149h.075l.15-.448h.075l.075-.523.224-.15v-.225a1.233,1.233,0,0,1,.523-.523v-.3a.72.72,0,0,0-.6.225v.074l-.3.075-.15.225h-.075v.15l-.224.149-.075.3-.15.074v.15h-.075v.15h-.074v.224l-.15.075-.374.449h-.15l-.15.225h-.523l-.075-.374.374-.448.224-.15v-.15l.523-.448v-.224h.075l.075-.225.15-.075v-.15l.149-.149v-.15l.225-.15.075-.224h.149a.626.626,0,0,1,.15-.3h.075v-.149h.075v-.3h.075v-.15l.149-.074c.168-.268.085-.422.374-.6a1.163,1.163,0,0,0-.075-.448H219.1l-.075.224-.225.15c-.113.172-.06.351-.224.523l-.374.3-.149.448-.225.15v.15l-.225.075-.074.149-.225.15v.15l-.448.374-.075.374-.15.075-.6.673a.953.953,0,0,1-.374-.075c-.045-.149.01-.065-.075-.15.048-.372.172-.361.3-.6l.075-.374h.075v-.149l.149-.075.075-.374h.075l.075-.3h.075l.075-.448h.074l.075-.3h.075l.3-.9h.074v-.149h.075l.075-.3h.075l.075-.448.149-.075v-.15h.075v-.149h.075v-.3h.075V634.8h.075v-.15h.075v-.15h.075v-.224h.074v-.15h.075l.15-.449h.075l.075-.448h.075v-.15h.074v-.225h.075v-.149h.075l.15-.448h.075v-.3l.149-.075v-.149h.075v-.15h.075l.075-.448h.075l.075-.3h.075v-.149h.074v-.225h.075v-.15h.075v-.3h.075v-.15H220v-.149h.075v-.15h.075v-.15h.074v-.149h.075v-.15h.075l.15-.448h.075v-.3l.149-.075v-.149h.075V628h.075v-.15h.075v-.224l.15-.075v-.225h.074v-.149h.075v-.15l.15-.075v-.15l.15-.149v-.15h.075v-.15h.074V626.2h.075v-.15h.075v-.15l.15-.075v-.149l.15-.15v-.15h.074v-.15h.075v-.149h.075v-.15h.075v-.15l.15-.149v-.15l.149-.075v-.15l.15-.149v-.15h.075v-.15h.075l.075-.3.149-.075.075-.374h.075v-.15l.15-.075v-.15l.149-.149v-.15h.075v-.15h.075v-.149l.15-.15v-.15l.224-.149v-.15l.6-.523v-.15l.225-.15v-.149l.149-.075v-.15l.225-.15V620l.15-.075v-.15l.149-.075.075-.3h.075l.075-.225.15-.074.075-.374h.074l.075-.224.15-.075.075-.3h.075v-.149h.075v-.15h.074v-.15h.075v-.149h.075l.075-.3h.075l.075-.3h.075l.149-.448.15-.075.075-.3.149-.074v-.15h.075v-.15l.225-.15v-.149l.3-.225v-.149l.3-.225v-.15l.3-.224v-.15l.3-.225v-.149l.3-.225v-.15l.224-.149v-.15h.075v-.15l.225-.149V612.9h.15l.074-.15.225-.075V612.6l.3-.075.15-.224.3-.075.224-.3h.15l.075-.15.449-.15.15-.224h.149l.075-.15h.15l.149-.225h.15l.075-.149h.15l.075-.15h.149l.075-.15.448-.149v-.075h.15v-.075l.449-.15v-.075h.225v-.074h.224V609.9h.15v-.075h.3v-.075h.374v-.075l.3-.075v-.075h.225v-.074l.672-.075v-.075h.15v-.075h.225v-.075h.224v-.075h.225v-.075h.224v-.074h.15v-.075l1.345-.374v-.074l.3-.075v-.075h.149v-.075l.448-.075v-.075h.15v-.075l.448-.074v-.075h.15v-.075l.972-.225v-.074l.3-.075v-.075h.3v-.075l.449-.15v-.075l.6-.074v-.075l.3-.075v-.075l.523-.075v-.075l.3-.075v-.074h.224v-.075h.3v-.075h.224v-.075h.15v-.075h.224v-.075h.225v-.075h.15v-.074h.149v-.075l.3-.225v-.224h.075V604.9h.074l.075-.225,1.047-.225.6-.822.6-.075v-.075l.448-.149v-.075h.15v-.075h.3V603.1h.15v-.075h.15v-.075h.149v-.074h.15V602.8h.15v-.075l.3-.075v-.075h.225V602.5l.449-.149v-.075h.149V602.2l.3-.075.075-.15h.224V601.9h.15v-.074h.15v-.075l.448-.15v-.075h.224v-.075h.15v-.075l.374-.074v-.075l.673-.15v-.075h.15v-.075h.224v-.075l.3-.074v-.075h.224v-.075l.3-.075v-.075h.149v-.075h.225v-.075h.15v-.074h.149l.075-.15h.225l.149-.225.3-.074v-.075l.448-.15v-.075l.523-.075.075-.149h.15v-.075h.149v-.075h.225l.075-.15h.149v-.075h.15l.15-.149h.149l.075-.15.448-.15.075-.15h.15v-.074h.15v-.075h.224c.316-.173.587-.579.9-.748v-.374l-.673-.448v-.225h.075l.448-.6a2.1,2.1,0,0,0-.225-.9h-.075v-.149h-.074v-.15l-.15-.075v-.15l-.15-.075v-.149l-.15-.075v-.15h-.074l.074-.448.15-.075.075-.3h.075l.075-.748a1.275,1.275,0,0,0,.224-.224c.5.057.591.353.823.672l.449.374v.149l1.345,1.421h.15v.074l.224.15v.15h.075l.075.224.3.225.075.15h.15l.748.9h.149l.6.673.374.3v.15l.748.672v.075l.15.075v.15l.6.523.225.3h.15l.149.225h.15v.075h.15v.074h.149v.075h.15l.15.15h.15l.3.374h.15l.149.225h.15l.15.224h.15l.074.15h.15l.075.15h.15v.075h.672v.074h1.122v-.074h.748a3.513,3.513,0,0,0,1.2-.15v-.075h.225v-.075h.15l.074-.15.673-.224.075-.224h.075v-.149l.149-.075.075-.3h.075v-.224h.075v-.225h.075v-.374h.075v-.15h.075v-.224h.074v-.15l.15-.075.075-.3.15-.075v-.15l.149-.075.15-.448.15-.075.075-.822A7.976,7.976,0,0,0,278.015,594.728Zm-28.859-8.3c-.122.415-.247.14-.523.3l-.224.3h-.15l-.15.224h-.149l-.075.15h-.225l-.075.15-.9.149v.075h-.149v.075h-.15l-.075.15h-.15l-.075.149a4.968,4.968,0,0,1-1.2.225V588.3h-.15c-.025-.014-.076-.107-.15-.15a1.969,1.969,0,0,1,.15-.747h.075l.075-.748h.075V586.5h.074l.075-.374h.075l.075-.972h.075v-.3h.075v-1.5a4.292,4.292,0,0,0,.224-1.795h-.075l-.074-.672.448-.523.3-.225.075-.224h.15l.224-.3c.126-.086.17,0,.3-.149h.224v.074h.15l.673,1.122v.225h.074v.149h.075q.075.337.15.673h.075l.075.3h.075l.074.822h.075v.225h.075v.149h.075v.225h.075v.972h.075v.448h.075A4.029,4.029,0,0,1,249.156,586.429Z" transform="translate(-200.859 -569.857)"/><path class="a" d="M251.056,646.872a1.475,1.475,0,0,1-.449.6l-.149.075v.15l-.3.224v.15l-.15.15h-.149l-.075.15h-.15l-.075.149h-.149v.075l-.3.225v.149l-.149.075v.15l-.374.3c-.212.234-.238.5-.6.6-.073.28-.2.23-.224.6l.224.15v.075h.15v.074l.523.075v.075h.15v.075h.224v.075h.225v.075h.3v.075h.374v.074h.224v.075h.225v.075h.224v.075l.673.075v.075h.225v.074h.3v.075h.523c.481.14,1.084.236,1.57.374h.822v.074h.448v.075h.523v.075h1.346v.075h1.345v.075h.225v.075l1.2-.075V652.7l1.795-.075v-.075h.224v-.075h.225v-.074l.747-.075v-.075h.15v-.075h.225v-.075l.747-.075v-.075h.225v-.074h.149v-.075h.673v-.075h.374v-.075h.225v-.075l.6-.075v-.074h.672v-.075h.3v-.075h.224v-.075l1.047-.225v-.074h.15v-.075l.747-.15.075-.15h.523v-.075h.3v-.074h.224v-.075h.3v-.075h.449v-.075h.672a5.093,5.093,0,0,1,1.944.3h.3v.075h.523v.075h.3v.075h.3v.075l.822.075v.075h.15v.074h.3v.075l.673.075v.075l.3.075v.075h.225v.075h.374v.074l.3.075.075.15.449.15.074.149h.15l.15.225.3.075.075.149h.15l.075.15.3.225V653h.075c.071.093.055.145.15.225q.037,2.467.075,4.934h-.075v.374h-.075v.149h-.075a2.671,2.671,0,0,0-.3,1.346l-.374.3v.075h-.149l-.523.374-.523.6-.374.075-.074.149h-.15v.075l-.225.075c-.091.613-.221,1.091-.672,1.346-.218.2-.366.047-.673.149v.075h-.225v.075h-.224v.075l-.448.075v.075h-.448v.074h-.374v.075h-.224v.075h-.3v.075l-.822.075v.075l-.448.149v.075h-.15l-.224.3h-.15l-.075.149-.3.075v.075l-.673.075v.075h-.225v.075h-.523v.074l-.449.15v.075h-.224v.075h-.225v.075h-.374v.075h-.748a11.416,11.416,0,0,1-2.542.074,6.422,6.422,0,0,1-1.42-.074h-1.047v-.075h-1.271v-.075h-1.271c-.44-.129-.984-.245-1.42-.374h-.822v-.075h-.225v-.075h-.15v-.075l-.747-.075v-.075h-.225v-.075h-.224v-.074h-.225v-.075l-.6-.075v-.075h-.149v-.075l-.6-.075v-.075l-.3-.074v-.075h-.224v-.075l-.673-.075v-.075h-.149v-.075h-.225v-.074l-.6-.075v-.075H253V663.4h-.15v-.075h-.225v-.075l-1.346-.224v-.075h-.3v-.075h-.225V662.8h-.225v-.075h-.149v-.075l-1.271-.3v-.075h-.149V662.2l-.374-.075v-.074l-.523-.075V661.9l-.449-.15v-.075h-.15V661.6h-.224v-.074l-.449-.15V661.3h-.15v-.075h-.15v-.075h-.149v-.074h-.15l-.15-.15H245.9l-.075-.15-.3-.075-.075-.149H245.3l-.075-.15h-.15l-.224-.3h-.15l-.15-.224h-.15l-.149-.225h-.075l-.225-.374h-.3v-.075h-.225v-.075h-.149v-.075h-.15l-.15-.224h-.075v-.15h-.074v-.149l-.15-.075v-.15l-.3-.224v-.149l-.224-.15v-.075h-.15l-.672-.747-.3-.225-.075-.3h-.075l-.074-.225-.15-.075v-.149l-.15-.075v-.15l-.15-.075v-.15l-.149-.074v-.15l-.15-.075v-.15l-.15-.075v-.149l-.149-.075v-.15a1.881,1.881,0,0,1-.374-1.2c.225-.149.034-.068.15-.225l.374-.3v-.15l.374-.3v-.149l.224-.15v-.15l.15-.075.075-.3.224-.15v-.149l.15-.075.075-.225h.075l.149-.448.15-.075v-.149h.075l.075-.673c0-.016-.1-.025-.075-.15h.075c.046-.151.029-.185.075-.3l.224-.075.075-.15h.15v-.075l.523-.074v-.075h.149v-.075h.3v-.075h.448v-.075h.449v-.075h.523v-.075c.442-.118.731.341,1.122.225v-.075h.224l.075-.15h.15v-.074h.15l.149-.15h.15l.075-.15.448-.075v-.075h.15v-.074h.149l.075-.15.3-.075.075-.15.224-.075.225-.3h.149v-.075h.15l.075-.15.3-.074.225-.3.448-.075.15-.224h.224l.075-.15h.15l.075-.15.449-.149.075-.15h.149l.15-.225h.15l.075-.149.374-.075.075-.15.3-.075.075-.149h.15V644.7h.149l.15-.15h.15l.15-.225.822-.3.075-.15h.15l.3-.374.673-.224.074-.15.3-.075.075-.15h.149v-.075c.323-.178.538-.045.6-.523a.987.987,0,0,1-.3-.224h-1.047v.075l-1.047.075h-1.795v.074h-.3v.075h-1.122v.075a9.469,9.469,0,0,1-2.317-.075l-1.346.075v-.075h-.374v-.075l-.449-.149v-.075l-.3-.075-.075-.15-.3-.074-.149-.225h-.15v-.075l-.225-.075-.074-.149h-.15l-.15-.225h-.15l-.224-.3h-.15l-.075-.15-.3-.075v-.075h-.15l-.075-.15-.449-.149-.075-.225h-.074a.711.711,0,0,1-.225-.6c.085-.063.011.01.075-.074.429.014.665-.039.747-.374h.075l-.075-.224a1.048,1.048,0,0,1-.822-.6h-.075v-.3l.225-.149v-.075l.448-.15V637.3l.224-.075.075-.149h.15l.374-.448h.15l.15-.15v-.15l.3-.224v-.15l.15-.15v-.149h.075v-.15l.149-.075v-.15l.449-.374v-.15l.15-.149h.15l.075-.15h.149l.075-.15h.15l.075-.149h.15l.074-.15h.15l.6-.673h.15l.149-.224h.15l.15-.15h.149v-.075h.15l.075-.15.448-.149.15-.225h.15l.224-.3h.15l.075-.15.523-.15.074-.149h.15v-.075h.15l.15-.15h.149l.075-.15.3-.075.074-.149h.15v-.075l.3-.075V630.8h.224v-.075l.448-.149V630.5l.3-.075.074-.15L253,630.2l.074-.149h.225v-.075h.15V629.9h.149v-.075h.15v-.075h.15v-.075l.449-.149.075-.15.523-.075v-.075l.448-.149V629h.523v-.075h.224v-.075h.225v-.075l.747-.075v-.075l.6-.074v-.075h.225v-.075h.449c.372-.11.9-.192,1.271-.3h.973v-.074h.523v-.075h.3v-.075h1.869a15.123,15.123,0,0,1,3.664.224h1.047v.075h.9v.075h.523v.075h.9c.372.108.836.262,1.2.374h.448v.075l.449.15V629h.3l.075.149h.149v.075h.15v.075l.374.075c.135.089.194.332.3.448l.523.449v.15l.149.075v.149l.225.15v.15l.15.075.074.3.15.075v.15h.075l.075.3h.075l.075.6h.074v.15h.075v.6h.075v.9h.075a4.286,4.286,0,0,1,0,1.271l-.3.225v.149l-.15.075v.15l-.225.15v.149l-.149.075-.15.448-.15.075-.075.224-.224.149-.075.3-.3.224v.15l-.149.075-.225.3h-.149v.075h-.15l-.075.15-.448.15-.075.149h-.15l-.075.15-.3.075v.075h-.3v.075h-.225v.075h-.225v.074h-.3v.075h-.15l-.074.15-.523.075v.075h-.15l-.075.149-.523.075v.075H269.3v.075h-.149v.075l-.823.075v.074h-.374v.075h-.3v.075h-.3v.075h-.523v.075h-.672v.075h-.225v.075h-.374v.074h-.449v.075h-.448v.075h-.225v.075h-.225v.075h-.374v.075h-.3v.075h-.3v.074h-.224v.075h-.374v.075l-.449.075v.075h-.149v.075h-.225v.075h-.3v.074h-.374v.075H261v.075h-.225v.075l-.523.075v.075H260.1v.074l-.823.225-.075.15h-.374v.075l-.448.149v.075h-.15v.075h-.224v.075h-.15l-.075.15h-.224v.074h-.15v.075l-.3.075v.075l-.672.15v.075l-.374.074-.075.15h-.15v.075l-.3.075v.075l-.449.074-.074.15-.374.075v.075H254.5l-.075.15h-.15v.074h-.15l-.149.15h-.15l-.075.15-.449.15-.15.224H253l-.15.225h-.15l-.075.149h-.149l-.075.15h-.15l-.075.15h-.15l-.074.15-.3.074-.075.15h-.149v.075A.829.829,0,0,1,251.056,646.872Z" transform="translate(-212.927 -586.939)"/></g><g transform="translate(131.634 60.44)"><path class="a" d="M306.706,681.786v-.149l-.6-.523-.075-.15h-.225l-.822-.9v-.15l-.15-.075-.075-.3-.149-.075-.075-.374-.15-.075v-.15h-.075l-.074-.3h-.075V678.2l-.15-.074-.15-.673h-.075l-.074-.3h-.075l-.075-.523h-.075l-.075-.3h-.075l-.149-.673h-.075v-.149h-.075v-.225h-.075l-.075-.6-.15-.074v-.374h-.074v-.224h-.075v-.15h-.075v-.225h-.075v-.149h-.075v-.3h-.075l-.149-1.42v-.673h-.075v-1.271H302l.075-1.2h.075V668.4h.074v-.6h.075l.075-1.72h.075v-.224h.075v-.448h-.075l-.075-2.168h.075v-.225h.075v-.149h.075l.075-.523h.074V660.03h.075v-.224h.075v-.225h.075v-.224h.075v-.15h.075v-.15l.149-.075v-.224h.075v-.15h.075v-.15l.15-.075.15-.448.149-.075v-.149l.225-.15v-.15l.15-.074v-.15l.224-.15v-.15h.075v-.149h.075v-.15h.075c.126-.205-.068-.139.224-.225v-.074c.126-.072.439.056.523.074l.15.3.15.075.074.374h.075v.15l.15.075.15.448.149.074v.15l.225.15.075.3.672.6v.15l.3.224v.15l.3.225.075.3.15.075.224.673h.075l.075.3h.075v.374h.075v.15h.075l.075.523h.074v.225h.075v.224h.075v.225h.075v.149h.075v.225l.15.075.074.3.15.075.15.448.149.075v.15h.075v.149H310l.075.225.15.075.075.3.149.075.075.3h.075l.075.225.15.075v.15l.149.074.15.449.15.074v.15h.075v.15h.074v.224h.075v.225h.075v.15h.075v.3h.075l.075.3h.074v.15l.15.075v.225h.075l.374.747h.3a7.078,7.078,0,0,0,.523-.972v-.673h.075c.05-.155.028-.255.074-.374a.555.555,0,0,0,.225-.15c.15.043.065-.009.15.075.54.156.206.433.374.9h.075v.15h.075v.225l.149.075.075.3.225.15v.149l.149.075v.15l.225.075.075.224.374.3.075.3h.075v.523h.075v.3h.075v.972h.074v.3h.075l-.075,2.392H315.9v.374h.074v.224h.075l.075.673h.075l.523.6.673.224v.075h.149v.075h.3l.448.374v.6c-.1.082-.138.2-.225.3l-.149.075c-.09.133-.1.43-.225.523l-.3.075-.075.15h-.15l-.075.15h-.15l-.074.149h-.15l-.075.15h-.15l-.149.224-.3.075-.3.374-.15.074v.15l-.15.075-.074.374-.15.075v.225h-.075v.149h-.075v.15l-.15.075-.149.449-.3.225v.149l-.374.3v.075l-.673.149v.075h-.374v.075h-.374v.075l-.972-.075h-1.047v-.075l-1.122-.075v-.075l-.3-.074v-.075h-.15l-.15-.225H308.8l-.075-.15-.374-.074v-.075H307.3C307.094,682.016,306.937,681.846,306.706,681.786Z" transform="translate(-301.996 -656.27)"/><path class="a" d="M328.294,657.27a8.616,8.616,0,0,1,2.093.075h.523v.075h.225v.075h.149v.075l.673.149.075.15h.15v.075h.224l.075.15.225.074v.075l.3.075.15.225.3.075.449.523h.15l.075.149h.149l.225.3h.15l.149.224h.15l.075.15.3.075v.075h.15v.075h.15v.074l.449.15v.075h.374v.075h.225v.075h.224v.074h.225v.075l.448.075v.075l.3.075v.075h.15l.075.149h.15l.149.225h.15l.225.3h.149l.15.15v.15l.225.15v.149l.149.075v.15l.225.15v.149l.15.075v.15h.074l.075.3h.075v.448h.075v.3h.075v.3h.075v.225h.075l.149,1.644a3.321,3.321,0,0,0-.149.6l-1.421,1.271-.3.374h-.15l-.075.15-.224.075v.074h-.15l-.075.15h-.149l-.075.15h-.15l-.15.224h-.149l-.075.15h-.15l-.15.225-.3.075-.075.149h-.15v.075h-.448v.075h-.149v.075h-.15v.075h-.15v.074h-.15v.075h-.149v.075l-.3.075v.075l-.449.075v.075l-.448.149v.075l-.3.075-.075.15-.449.149-.15.225h-.15l-.075.15-.972.3-.075.15-.449.15-.149.224-.523.448c-.285.285-.46.609-.972.673-.207-.357-.232-.281-.225-.9h.075v-.448l.15-.075.074-.225h.075l.075-.448h.075v-.15h.075l.075-.747h.075l.074-.9h-.074v-.3h-.075l-.075-.822-.15-.075v-.15h-.075v-.15l-.149-.149v-.15l-.15-.075v-.15h-.075l-.075-.3-.15-.075v-.224h-.074v-.15h-.075v-.15h-.075v-.149h-.075v-.15h-.075v-.15h-.075v-.224l-.149-.075v-.15h-.075l-.15-.449-.224-.15v-.149L328,665.2l-.075-.225h-.075v-.15h-.075l-.075-.224-.149-.075V664.3h-.075v-.224H327.4v-.225h-.075c-.185-.578.218-.964-.075-1.42l-.224-.15v-.149l-.972-.9v-.149l-.3-.225v-.15l-.149-.149v-.15h-.075v-.15h-.075v-.149h-.075v-.15H325.3v-.15a2.681,2.681,0,0,1-.448-1.2c.186-.1.306-.3.523-.374l.748-.075.149-.224h.15l.15-.225h.149l.075-.149.3-.075v-.075C327.384,657.31,328.1,657.443,328.294,657.27Z" transform="translate(-309.155 -656.576)"/></g><g transform="translate(156.001 16.503)"><path class="a" d="M356.215,610.31a.673.673,0,0,0,.3-.15v-.075h2.243v-.075h.224l.075-.149h.15l.15-.225h.149l.075-.15a2.053,2.053,0,0,1,.823-.224v.075l.374.075.374.448h.15l.075.149.3.075.449.6v.15h.075v.15l.374.3v.15l.225.149v.15l.149.075v.15h.075v.224h.075v.673h.075V613l.15.074.149.449.15.074v.15h.075l.15.448h.075v.225h.074a2.437,2.437,0,0,1-.448,1.57l-.224.149v.15l-.225.15-.075.374-.747.374c-.1.078-.082.273-.15.374l-.224.149v.15l-.15.075v.075h-.15a4.282,4.282,0,0,0-.448.3l-.075.3-.15.074-.3.374h-.15v.075h-.149v.074l-.15.075v.15l-.225.15v.149h-.074l-.15.225h-.15v.075l-.224.075-.673.822-.9.075v.075h-.15l-.15.224-.224.075v.15l-.15.075-.15.224h-.149v.075l-.225.075-.075.15h-.15l-.074.149h-.075v.15h-.075v.15l-.9.672v.15h-.075v.15l-.15.15v.149l-.224.075-.075.15h-.15v.075h-.075l-.075.224h-.075v.449h-.074v.3c-.123.364-.287.866-.673.972a5.861,5.861,0,0,1-.3.6c-.125.356.093.516,0,.822h-.074v.225h-.075v.6c.139.09.16.209.3.3.216.215.771.149,1.2.15l1.5.074v.075l.9-.075v.075h.374V629l1.047-.15v-.074h.748a18.016,18.016,0,0,0,4.71-.3l.822-.075v-.075h.225v-.074h.224v-.075h.225V628.1l1.121-.075v-.075h.15v-.075l.523-.075v-.074l.3-.075.523-.6h.075v-.15l.823-.15v-.074a1.344,1.344,0,0,1,.672.074c.106.227.2.262.225.6l-.523.6-.3.225-.15.449h-.075l-.075.15h-.15l-.074.149h-.15l-.075.15h-.15l-.224.747-.3.225v.15l-.149.075v.149l-.225.15c-.1.152-.012.332-.075.523a6.181,6.181,0,0,0-.224.6h-.15l-.374.448h-.075v.15l-.225.149v.15l-.224.15v.149h-.075v.15l-.225.15v.075l-1.5.822c-.1.078-.081.275-.149.374l-.6.449h-.15v.075h-.15q-.224.3-.448.6h-.149l-.075.15h-.15v.075l-.3.075v.074h-.225l-.448.523h-.15v.075h-.15v.075H360.7l-.075.15-.3.075-.075.149h-.15l-.15.225a2.089,2.089,0,0,1-.672.374v.075l-.972.075-.075.15-.225.149v.075h-.149l-.3.374-1.047.225v.075h-.15v.075h-.149l-.075.149-.3.075-.149.225-.3.075-.074.149-.748.15v.075h-.15v.075l-.374.075v.074h-.15v.075l-.449.15v.075l-.448.075v.075h-.15v.074H352.4c-.415.122-1.15-.05-1.57.075v.075h-.3v.075h-.3v.075h-.673v.075l-1.047-.075v-.075h-.374v-.075h-.3v-.075c-.5-.15-1.15.116-1.57-.075v-.074h-.149l-.3-.449h-.149v-.074h-.225v-.075h-.225v-.075h-.149v-.075h-.523v-.075h-.15v-.075h-.15l-.149-.224h-.15l-.3-.374H343.5l-.225-.3h-.149l-.225-.3h-.15l-.149-.15v-.15l-.225-.149v-.15l-.15-.075v-.15l-.224-.149v-.15l-.449-.374v-.15l-.225-.15v-.224h-.075v-.15h-.075v-.15l-.149-.075-.075-.224-.3-.225-.149-.448-.15-.075v-.149h-.075v-.6l-.224-.15v-.15h-.075l-.075-.224-.225-.15-.075-.3-.149-.075-.075-.972h-.075v-.15l-.15-.075v-.15l-.523-.449-.075-.3H338.5v-.673h-.075v-.449s.1,0,.075-.15h-.075a6.017,6.017,0,0,1,.075-1.869l-.075-.747h.075c.064-.225-.031-.424.074-.6l.15-.075v-.15l.15-.075v-.149l.15-.075v-.15l.149-.075v-.149h.075a3.069,3.069,0,0,0,.15-1.047v-.523h.075v-.15h.075v-.15l.149-.075v-.224l.15-.075v-.15l.225-.149v-.15l.149-.075v-.15h.075l.075-.822h-.075v-.448h.075v-.15h.075v-.15h.075l.075-.224h.149c.148-.223.366-.216.448-.523a4.742,4.742,0,0,0,.3-.9h-.075a1.823,1.823,0,0,0-.3-.748l-.224-.15v-.149l-.225-.15-.074-.3-.15-.075-.075-.448h-.075v-.374h-.075v-.149l-.448-.374v-.149l-.15-.075q-.186-.636-.374-1.271l-.15-.075v-.149l-.448-.374v-.149l-.149-.075-.075-1.42h-.075v-.3h-.075V612.4H338.2v-.374h-.075l-.074-.3h-.075v-.15H337.9v-.149h-.075v-.225h-.075v-.224h-.075v-.224H337.6v-4.71h-.074a2.366,2.366,0,0,1,.074-1.2V604.4h.075v-.225h.075v-.3h.075v-.449h.075v-.3h.075v-.225h.075v-.3h.074l.075-1.047h.075v-.15h.075l.15-1.121h.074v-.225h.075v-.224h.075v-.224h.075l.075-.6h.075v-.15h.075l.074-.672h.075l.15-.448h.075l.075-.673h.075v-.15h.074V596.7h.075v-.3h.075l.15-.449h.075v-.15h.075v-.3h.074l.15-.448h.075l.075-.3.15-.074v-.15h.074l.075-.224h.15c.07-.09.171-.082.224-.149v-.15l.3-.225.075-.224a2.408,2.408,0,0,1,.672-.374.834.834,0,0,1,.15-.374h.075v-.149l.15-.075.149-.224h1.047c.163-.148,1-.01,1.346,0,.137.214.417.347.6.523l.149.225h.15v.075h.3v.074l.3.075v.075h.149l.075.15h.15a2.658,2.658,0,0,1,.3.6v.224h.075v.225h.075v.224h.075v.15h.075v.15l.224.149v.075h.15l.075.225.15.075v.149h.074l.225,3.365a8.693,8.693,0,0,0-.075,2.168h.075l.075,1.5h.075l.149.9h.075v.224h.075v.15h.075l.075.523h.075v.225h.075v.224h.074l.075.748h.075v.9l.075,1.5-.075.3h.075v.3h.075l.075.3h.075v.15l.149.075v.149l.15.075v.15h.075v.225h.075v.149h.075v.6h.074c.078.272-.1.779-.074.9a.935.935,0,0,0,.374.523c.28.29.866.026,1.2-.075h.449l.672-.224.225-.3h.149l.075-.15h.15l.075-.15h.224v-.075h.225v-.075h.673v-.074h.822v-.075h.15v-.075C355.939,610.693,356.137,610.619,356.215,610.31Z" transform="translate(-337.474 -592.299)"/><path class="a" d="M388.289,595.336a5.03,5.03,0,0,1,2.019.374l.822.075v.075h.225v.075h.225v.075h.523v.075l.523.075v.074h.15v.075l.9.15v.075h.15v.075h.374v.075l.523.074v.075h.15v.075l.449.075.075.15h.15v.075h.149v.074h.225v.075h.15v.075l.3.075v.075h.225v.075l.3.075v.074h.15v.075h.224l.075.15.225.075v.075l.448.149.15.225h.149v.075l.3.075v.074h.374v.075c.214.107.316.2.523.3a6.551,6.551,0,0,0,.6,1.644v1.047h-.075v.748h-.075v.15h-.075v.448H399.8l-.074.3-.225.15v.15h-.075l-.224.3h-.15l-.15.225-.449.149-.075.15h-.15l-.224.3h-.15l-.6.673-1.047.523c-.4.139-.889-.243-1.271-.075l-.075.15h-.15v.075h-.149v.075l-.748.074-1.794,1.57c-.314.442-.429,1.225-1.122,1.271v-.075h-.6l-.3.374-.374.075a4.25,4.25,0,0,1-.074-1.2v-2.093h-.075l-.075-.374h-.075v-.224h-.075v-.449h-.075l-.075-.9h-.074v-.3h-.075v-.3h-.075v-.449h-.075v-.149l-.15-.075v-.225l-.149-.074v-.15l-.9-.748v-.149l-.523-.449-.149-.224h-.075v-.15l-.523-.448v-.15l-.225-.149v-.15l-.149-.075v-.15H385.9v-.149h-.075v-.3h-.075l-.15-.449h-.075V598.7h-.074v-.15h-.075v-.6a5.566,5.566,0,0,1-.15-1.5l.225-.15v-.075h.149l.15-.224.3-.075v-.075l1.2-.075v-.075h.225l.075-.149h.149v-.075C387.883,595.4,388.144,595.47,388.289,595.336Z" transform="translate(-352.428 -593.249)"/><path class="a" d="M377.3,613.92c-.405-.111-.5-.474-.673-.823h-.075l-.075-.449H376.4V612.5l-.224-.15v-.15l-.15-.075v-.149l-.15-.15v-.15H375.8v-.15l-.15-.074a1.371,1.371,0,0,1-.225-.9c.2-.1.127-.132.448-.149.229-.2.811,0,1.122,0l1.122-.075v.075h.448v.074h.374v.075h.374v.075l.374.075.075.15.449.075v-.075h.3v-.075l.3-.075v-.075h.224v-.075h.374v-.075h.3v-.074h.225v-.075h.374v-.075h.149v-.075a1.46,1.46,0,0,1,.748-.15,1.436,1.436,0,0,1,.075.523H383.2c-.115.2.1.96.15,1.047h.075v.15l.149.075.075.3.15.075.3.9h.075v.15h.075a1.533,1.533,0,0,1,.075.9h-.075c-.1.468-.486.659-.822.9l-.15.225-.3.075-.074.15h-.15v.074l-.748.075v.075h-.224v.075l-.9-.075v.075h-.225v.075h-1.345a6.261,6.261,0,0,1-1.122-.6v-.15l-.15-.075v-.149l-.224-.15v-.15l-.15-.074v-.15C377.535,614.177,377.382,614.243,377.3,613.92Z" transform="translate(-349.36 -597.852)"/></g><g transform="translate(187.218 38.82)"><path class="a" d="M389.8,624.793a2.855,2.855,0,0,1,1.288.358l.5.071v.071l.286.071v.072l.644.214.072.144.286.071.071.143.286.072.143.214.286.072v.071h.144l.071.143.358.071.071.143h.144l.071.143.286.072.071.143.358.071v.072h.143v.072h.144l.071.143.43.071v.072l.286.071v.071h.144v.071h.215v.071h.143v.072h.143v.071h.144v.071l.931.215v.071h.215v.071h.143v.072l.644.143v.071h.358v.071l.286.072v.071h.573v.071h.286v.071h.214v.072l.5.071v.071h2.076V629.3h.214v-.071h.215v-.072h.215v-.071h.286v-.071h.572v-.071h.286v-.072h.215V628.8l1.217-.071v-.071h.286v-.071h4.653v.071h.286v.071h3.15v.071h.5v.071h.286v.072h.573v.071h.429v.071l.429.071v.072h.144v.071h.214v.071h.573v.072h.215v.071l.859.072v.071h.5v.071h.358v.071h.286v.072l1.146.071v.071h.215v.071h.143v.071l.573.072v.071l.286.071.071.143h.143v.072h.215l.071.143h.144l.071.144h.143l.144.214h.071v.144l.286.215v.143l.143.071.072.215h.071v.143l.143.072.072.286.143.071.071.358.144.071v.215h.071v.143h.071v.215h.071l.144.429h.071v.5h.071v.358h.071l-.071.787H425.3v.286l-.215.144-.143.429-.429.358-.072.215H424.3l-.286.358h-.143l-.072.144h-.143l-.215.286H423.3l-.144.215h-.071l-.071.144h-.143l-.358.429-.214.071-.359.43H421.8l-.071.143h-.144l-.071.143-.215.072-.214.286h-.144l-.071.143-.286.072-.071.143h-.144l-.143.143h-.143v.071h-.144v.072h-.143v.071h-.144v.071h-.143v.071h-.144v.072h-.143v.071l-.43.143v.071l-.644.144v.071l-.286.071v.072l-.573.071v.071h-.215v.071h-.143v.071l-.5.072v.071l-.286.071v.071l-.931.144v.071h-.143v.071l-.573.072v.071l-.716.143v.071h-.644v.072h-.286v.072h-.215v.071h-.286v.071h-.429v.072l-.5.071v.071h-.143v.071l-.644.071v.072h-.215v.071H410.2v.071l-.716.143v.071h-.143v.071l-.5.071v.071l-.286.072v.071h-.358v.071h-.215v.071h-.214v.072l-.286.071v.071l-.5.071v.072l-.286.071v.071l-.429.071v.071h-.144v.072H405.9v.071h-.358v.071h-.215v.071h-.144v.072h-.214v.071h-.358v.071H404.4v.071h-.215v.071h-.214v.072l-.644.071v.071h-.215v.071h-.144v.072a4.341,4.341,0,0,1-1.718,0,1.924,1.924,0,0,1-.071-.644h-.071l.071-.644.143-.072v-.143h.071v-.144l.144-.143v-.143l.143-.071.072-.286h.071v-.214l.143-.072v-.143h.072l-.072-.716-.644-.358v-.072h-.286v-.071l-.5-.071v-.071h-.358v-.072h-1.146v-.071h-.644V641.4h-.5v-.071H397.1v-.071h-.358v-.072H396.6v-.071h-.214v-.071l-.716-.144v-.071h-.143v-.071l-.358-.071v-.071l-.286-.072v-.071h-.144V640.4h-.143v-.071l-.429-.144v-.071h-.215v-.071h-.143v-.072l-.43-.143v-.071h-.215v-.071l-.429-.144v-.071h-.143V639.4h-.144v-.072H392.3v-.072h-.144v-.071h-.143l-.144-.143h-.143l-.071-.144-.286-.071v-.071l-.215-.072-.071-.143h-.144l-.143-.215h-.143l-.144-.214h-.143l-.072-.144h-.143l-.358-.429h-.144l-.358-.43h-.143l-.215-.286H388.8l-.215-.286h-.143l-.215-.286h-.144l-.286-.358h-.144l-.215-.286h-.143l-.644-.716-.429-.358v-.143l-.144-.071L386,634.1h-.071v-.144l-.144-.071v-.143l-.143-.144v-.143h-.072v-.144l-.143-.071V633.1h-.071l-.071-.43h-.072l-.143-.429H385v-.143h-.072v-.143h-.071v-.143h-.071v-.215h-.071v-.143h-.071v-.144l-.144-.071v-.286l-.143-.071v-.144h-.072v-.143h-.071v-.144l-.143-.143v-.144l-.144-.071-.071-.429h-.071l-.071-.286h-.072v-.143h-.071v-.215H383.5v-.144h-.071v-.143h-.072v-.143h-.071l-.071-.573a2.644,2.644,0,0,1-.286-.788H383v-.214l.144-.072c.261-.28.224-.3.787-.286a2.143,2.143,0,0,1,1.575-.143c.109.036.374.2.573.143v-.071h.215l.071-.143.429-.143.072-.143.429-.143.071-.143h.144v-.071h.143l.071-.144h.144l.143-.214h.144l.071-.144.215-.071v-.071h.143l.071-.144h.144v-.071h.143v-.071h.859Z" transform="translate(-382.925 -624.793)"/><path class="a" d="M389.461,662.489a.613.613,0,0,0,.286-.144v-.071l.286-.071v-.071h.286a1.914,1.914,0,0,1,1-.144v.072h.358v.071l.286.071v.071h.143l.072.144.358.071.071.143.286.072.071.143.788.286.071.143h.215v.072l.214.071.072.143h.143v.071h.143v.072h.215v.071l.286.071v.071h.215v.072h.143v.071h.215v.071l.286.071v.072h.214v.071h.144v.071l.429.071v.071l.43.072v.071l.286.071v.071h.286v.072h.144v.071c.179.091.381.058.573.143v.071l.429.144v.071h.286v.071l.429.144v.071l.358.071.072.144h.143l.071.143h.144v.071h.143l.215.286h.143l.144.215h.143l.5.573.573.5v.144l.214.143v.143l.144.071.071.286.143.071.144.429.143.072v.214h.072l.143.43h.071l.071.286.144.071v.143l.215.144v.143l.286.215v.071h.144l.143.215.286.071v.072l.286.071.071.144h.573v.071a6.7,6.7,0,0,0,1.79-.071h.859v-.071h.5v-.072h.573v-.071c.392-.111,1.012.027,1.36-.072h1.647v-.071h.716v-.071h.358v-.072h.787v-.071h.5v-.071h.215v-.071h.214v-.072l.644-.071v-.071h.286v-.071h.215v-.071h.215v-.072h.358v-.071l.716-.143v-.072l.859-.143v-.071h.143v-.072h.573v-.071h.215V669.5h.143v-.071l1.146-.215v-.071h.143v-.072l.859-.072v-.071h.215v-.071h.286v-.071h.286v-.071h.359v-.072h.358v-.071h.286V668.5h.286v-.071h.5v-.072l.859.072v.071l.286.071v.071h.214v.072h.215v.071h.143l.072.214.5.43v.143l.716.644v.144l.143.071.071.215h.071l.072.286h.071v.143l.143.072a3.278,3.278,0,0,1,.215,1.288h-.071v.358H427.9v.144l-.143.071v.143h-.071v.143l-.144.143v.144l-.286.215v.143l-.716.644-.573.644-.286.071v.072h-.144l-.071.143h-.144l-.143.215h-.143l-.215.286h-.144l-.716.787h-.143l-.358.429h-.144l-.358.43h-.143l-.286.358h-.144l-.071.143-.286.072v.071l-.429.143v.072l-.573.071v.071h-.143v.071c-.179.091-.381.058-.572.144v.071l-.286.071v.071l-.573.072v.071l-.286.071v.071l-.573.071v.072l-.429.072v.071h-.144v.071l-.644.072v.071h-.214v.071h-.144v.071l-.716.143v.071l-.286.071v.071h-.358v.072h-.144v.071H415.3v.071l-.286.071v.072H414.8v.071l-.286.071v.071h-.143v.071h-.215l-.071.144-.5.143-.071.144-.429.143-.071.144-.43.143v.071h-.143v.072H412.3v.071l-.429.143v.072h-.215v.071h-.143v.071h-.215v.071l-.429.143v.071l-.573.071v.071h-.143v.072h-.215v.071h-.215v.071h-.358v.071h-.286v.071h-.215v.072h-.429c-.376.111-.9.177-1.288.286h-1.073v.071h-1.146v.071h-.143v.071a5.644,5.644,0,0,1-1.861-.143v-.071h-.43v-.072h-.859v-.071h-.716v-.071a3.9,3.9,0,0,0-1.575.143c-.187.041-.682-.159-1-.071v.071h-.787v-.071h-.215v-.071l-.787-.144v-.071H396.4v-.071h-.215v-.071l-.572-.071v-.072l-.286-.071v-.071h-.43v-.071l-.286-.072v-.071l-.644-.143-.071-.144h-.143v-.071h-.144V682.1H393.4v-.071h-.144l-.071-.143h-.144v-.071H392.9l-.215-.286-.286-.071-.071-.144h-.143l-.144-.214-.214-.072-.359-.429h-.143l-.286-.358h-.143l-.215-.286-.143-.071-.072-.215-.429-.358v-.143l-.429-.359v-.143l-.144-.071v-.143l-.215-.143-.071-.286-.286-.215-.071-.286-.143-.071v-.143H388.6v-.144h-.071v-.143l-.143-.143v-.143l-.144-.071-.071-.286H388.1v-.144h-.071v-.143h-.072v-.143h-.071V675.8h-.071l-.071-.286h-.072l-.071-.286h-.071v-.143h-.071v-.144l-.144-.143v-.144l-.143-.071c-.087-.141-.069-.428-.144-.573l-.143-.071v-.215h-.071v-.143h-.071v-.144h-.072l-.143-.429h-.071l-.072-.429h-.071v-.144h-.071l-.071-.429H386.1v-.143h-.071v-.215h-.071v-.144h-.071l-.071-.572h-.072v-.144h-.071l-.071-.644h-.071l-.072-.429h-.071v-.143h-.071v-.5h-.071l-.071-.573h-.072v-.215h-.071V667.5a7.846,7.846,0,0,1-.358-2.219l-.071-.573h.071v-.215l.143-.071c.159-.247.1-.407.43-.5.313-.3,1.1-.285,1.718-.286h.573v-.071h.429v-.071h.215v-.071l.429-.144V663.2h.144l.143-.215h.144l.214-.286h.144Z" transform="translate(-383.447 -636.432)"/></g></g><g transform="translate(245.261 64.251)"><path class="b" d="M97.568,69.544h-.022v-.281a1.176,1.176,0,0,1-.043-.216l-.043-1.559h-.022v-.13h-.022v-.39H97.4v-.411h-.022v-.238h-.022l-.043-.455L97.265,65h-.022v-.346a.057.057,0,0,1-.022-.065h.022l.022-.541h.022v-.3h.022v-.628h.022V62.92h.022v-.13h.022v-.152H97.4l.022-.952h.022V61.6h.022l.022-.649v-.39H97.5v-.325h.022v-.065h.022v-.238a2.92,2.92,0,0,0,.022-1v-.13h-.022v-.065h-.022v-.065H97.5l-.022-.433H97.46v-.13h-.022v-.087h-.022v-.216H97.4v-.238c-.028-.1-.058-.249-.087-.346v-.238h-.022v-.173h-.022V56.73h-.022v-.173h-.022v-.13H97.2v-.043l-.043-.022-.043-.13-.043-.022v-.043h-.022V56.08h-.022v-.043l-.043-.022-.022-.108-.065-.043-.022-.108h-.022v-.043l-.043-.022-.022-.087h-.022v-.065h-.022l-.043-.13h-.022v-.043h-.022v-.043h-.022v-.043h-.022l-.043-.13-.065-.043v-.065h-.022V55l-.043-.022v-.043h-.022l-.022-.108-.13-.173h-.043V54.63h-.043v-.022h-.065v-.022h-.043v-.022l-.087-.022v-.022l-.13-.022-.022-.043h-.065v-.022h-.043v-.022h-.065l-.022-.043H95.6v-.022h-.043v-.022H95.49v-.022l-.13-.043V54.24l-.13-.022-.022-.043h-.065v-.022H95.1v-.022l-.13-.043v-.022h-.087v-.022h-.043v-.022l-.368-.152-.714-.022v-.022h-.13v-.022h-.26v-.022h-.39v-.022h-.173v-.022h-.195v-.022h-.238V53.7h-.541a2.43,2.43,0,0,0-.541-.022h-.216V53.7H88.823l-.736-.022V53.7H88v-.022h-.3v-.022h-.649v-.022h-.195c-.006,0-.007-.027-.043-.022v.022H86.2v.022h-.13v.022h-.152V53.7h-.411v.022H85.36v.022h-.087v.022h-.087v.022h-.195v.022h-.216v.022h-.216v.022h-.087v.022H84.3v.022h-.281v.022h-.195v.022a.87.87,0,0,1-.476-.065h-.281v-.022h-.087v-.022h-.065v-.022h-.13v-.022l-.238-.022v-.022h-.065v-.022h-.065V53.7h-.325v-.022H82v-.022H81.94v-.022h-.108v-.022l-.26-.022v-.022h-.087v-.022h-.13v-.022H81.16a.65.65,0,0,0-.238-.043V53.5l-.087.022-.043.065h-.043l-.022.043h-.043l-.043.065-.13.043-.043.065h-.043l-.022.043h-.043v.022l-.065.022-.022.043H80.23L80.186,54h-.043l-.043.065-.087.022-.043.065-.065.022-.022.043H79.84l-.043.043h-.043l-.022.043c-.074.047-.1,0-.13.108a.312.312,0,0,0-.173.065l-.022.043h-.043l-.043.065h-.043l-.022.043h-.043v.022l-.087.065v.043l-.043.022v.043l-.043.022-.022.087H79L78.974,55l-.043.022-.022.087-.087.065v.043l-.043.022v.043l-.043.022-.043.13-.043.022V55.5l-.043.022v.043l-.065.043-.022.087-.065.043-.022.087-.043.022v.043l-.043.022v.043l-.043.022-.022.087-.043.022v.043h-.022v.043l-.043.022v.043l-.043.022V56.3l-.043.022v.043l-.043.022v.043L78,56.448q.011,1.3.022,2.6a2.443,2.443,0,0,0,.043.606v.628h.022v.779h.022v.671h.022v.693s.018,0,.022.043a4.521,4.521,0,0,0,.022.671V67.4h.022l.022.195h.022V67.7h.022v.216c.05.174.059.392.108.563v.281h.022v.108h.022v.152h.022l.043.52.043.022.022.455h.022v.043h.022l.022.152h.022v.065h.022l.022.087h.022l.022.152h.022v.065h.022l.022.087H78.8l.022.13h.022l.022.087h.022v.108h.022l.022.13h.022l.022.087H79l.022.13h.022v.043h.022l.022.152H79.1V71.6h.022v.043h.022v.065a.9.9,0,0,0,.087.13l.087.022.043.065.087.022v.022l.065.022.022.043h.043l.043.065h.043v.022l.065.022.043.065.13.043.022.043h.043l.043.065h.043l.043.065h.043l.022.043.065.022v.022h.043l.022.043.065.022V72.6l.087.022.022.043h.043v.022h.043l.043.065h.043v.022l.065.022.022.043h.043l.087.108h.065v.022h.043v.022c.083.028.126-.034.173-.043.2-.039.457.026.628-.022l.541-.022v-.022l.563-.043h.39a2.63,2.63,0,0,1,.649-.022v.022h.26v.022h.108v.022h.087V72.9h.108v.022h.216v.022h.26v.022h.108v.022l.584.022a2.7,2.7,0,0,0,1.342.043l.325-.022v-.022h.346v-.022h.216v-.022H88v-.022h.281v-.022h.3V72.9h.108v-.022h.13v-.022h.152v-.022h.368v-.022h.346v-.022h.26V72.77h.238v-.022h.476a5.67,5.67,0,0,1,1.429-.108l.52-.022a4.43,4.43,0,0,0,.931.022,2.263,2.263,0,0,0,.5-.022l.346.022v-.022h.173V72.6h.087v-.022h.108l.022-.043h.043V72.51l.152-.022v-.022l.13-.022v-.022h.043V72.4l.173-.022.022-.043.108-.022v-.022h.108v-.022h.065V72.25h.065v-.022l.173-.022v-.022H95.9v-.022h.065v-.022h.043V72.12l.152-.022v-.022h.065v-.022h.043v-.022h.152s0-.014.043-.022l.022-.087h.022V71.86l.065-.043v-.043l.043-.043v-.043h.022v-.043h.022V71.6l.043-.022v-.043l.043-.022.043-.13.043-.022v-.043l.043-.022v-.065l.043-.022v-.043h.022l.043-.13.065-.043v-.043h.022v-.043l.043-.022.043-.13.043-.022.022-.087.043-.022v-.043h.022V70.54l.043-.043v-.043l.043-.022v-.043l.043-.022v-.043l.065-.043v-.043H97.5l.043-.13h.022v-.065h.022v-.325h-.022ZM93.3,67.661l-.065.455h-.022v.065H93.2v.043h-.022l-.022.13h-.022l-.043.13h-.022v.043h-.022l-.022.108H93l-.022.065-.043.022-.043.13-.043.022v.043l-.065.043V69l-.065.043v.043l-.043.022v.043l-.108.087v.043l-.216.195-.087.108h-.043l-.043.065h-.043l-.022.043H92.07l-.043.065h-.043l-.022.043h-.043l-.022.043h-.043l-.065.087-.087.022v.022L91.637,70l-.022.043h-.043l-.022.043h-.043l-.022.043h-.043l-.022.043h-.043l-.022.043-.087.022-.022.043H91.2l-.022.043h-.043l-.043.043h-.043v.022h-.043l-.022.043-.13.043V70.5l-.13.043v.022h-.087v.022H90.6V70.6h-.043l-.022.043H90.4c-.146.044-.334.063-.476.108h-.108v.022l-.087.022v.022l-.195.022v.022h-.087v.022h-.087v.022l-.281.022v.022h-.065L89,70.995h-.043v.022h-.087v.022h-.108v.022h-.13v.022H88.52V71.1h-.152a4.49,4.49,0,0,1-1.169.087H86.009v-.022h-.087v-.022h-.087v-.022L85.49,71.1v-.022H85.4v-.022H85.36v-.022h-.087v-.022l-.584-.022v-.022h-.043v-.022l-.195-.022v-.022h-.043v-.022l-.195-.043v-.022l-.087-.022v-.022h-.043v-.022l-.195-.065V70.67l-.065-.022L83.8,70.6l-.087-.022-.022-.043H83.65l-.022-.043h-.043l-.043-.065H83.5l-.022-.043h-.043l-.043-.065h-.043V70.3c-.049-.041-.081-.09-.152-.108V70.15l-.065-.022-.022-.043h-.043l-.043-.043L83,69.977h-.043v-.043h-.043l-.022-.065-.087-.065v-.043l-.087-.065v-.043l-.108-.087-.216-.411v-.087h-.022V69h-.022V68.83h-.022v-.173h-.022l-.022-.087h-.022a.947.947,0,0,1,.043-.346h.022l.022-.173h.022l.022-.087h.022l.043-.195h.022v-.043H82.5l.022-.13.216-.52.043-.022v-.043h.022v-.043h.022v-.043l.043-.043v-.043h.022l.022-.065.043-.022.022-.087.043-.022V66.6l.108-.087V66.47l.043-.022v-.043l.065-.043v-.043l.26-.238v-.043h.022l.043-.065h.043l.022-.043h.043l.043-.065h.043l.087-.108h.043l.043-.065h.043l.043-.065h.043V65.6H84.1l.022-.043.087-.022.022-.043h.043l.022-.043h.043v-.022h.13V65.41l.087-.022v-.022h.108v-.022h.065v-.022h.043V65.3h.087V65.28h.043v-.022l.281-.065v-.022l.108-.022v-.022h.043v-.022H85.4v-.022h.043v-.022h.065v-.022l.13-.043v-.022h.043l.087-.108.108-.087.022-.043h.043l.065-.087h.043l.065-.087h.043l.022-.043h.043l.043-.043h.043v-.022h.043v-.022H86.4l.022-.043h.043v-.022l.087-.022v-.022h.065l.022-.043.13-.022.022-.043h.043V64.2h.043v-.022H87v-.022h.087v-.022h.087v-.022a1.186,1.186,0,0,1,.39.022,4.9,4.9,0,0,1,1.082.13h.195c.1.03.293-.012.411.022v.022h.13v.022h.108v.022h.13v.022h.065v.022l.087.022v.022l.368.087v.022l.087.022v.022H90.3v.022h.043v.022l.195.043V64.7h.043v.022h.065v.022l.108.022v.022h.043V64.8h.065v.022l.087.022v.022l.13.022v.022l.13.043v.022h.043V65h.065v.022l.087.022v.022l.13.022v.022l.13.043v.022l.087.022.022.043.108.022.108.13h.043l.108.13.26.238.065.087h.022c.043.059.024.087.108.108l.022.065h.022l.022.065.043.022v.043l.043.022.022.065h.022v.043l.043.022.022.065h.022l.043.13.043.022.022.13H93l.022.087h.022l.022.13h.022V66.9h.022l.022.152h.022l.022.13H93.2v.043h.022l.043.195.043.022ZM95.36,63.44h-.022v.13h-.022v.087H95.3v.108h-.022l-.043.13h-.022l-.043.13-.043.022v.043l-.043.022-.043.13-.238.216-.087.108h-.043l-.022.043H94.6l-.173.195-.065.022-.043.065c-.093.066-.2.074-.26.173h-.39v-.022l-.13-.022V65h-.065v-.022h-.195v-.022h-.065v-.022h-.087v-.022l-.325-.022v-.022h-.043l-.022-.043-.087-.022-.043-.065h-.043l-.13-.152-.065-.022-.065-.108-.152-.13v-.043l-.087-.065v-.043l-.065-.043v-.043l-.043-.022v-.043L91.919,64c-.026-.042-.021-.132-.043-.173l-.043-.022v-.043l-.087-.065v-.043l-.065-.043V63.57l-.087-.065v-.043l-.043-.022V63.4l-.043-.022v-.043l-.065-.043v-.043c-.009-.014-.029-.016-.043-.043a.8.8,0,0,0-.281.065h-.563a4.828,4.828,0,0,0-1.212.087h-.3v.022H88.8l-.368.022v.022a1.3,1.3,0,0,1-.52-.043h-.433v-.022H86.81v-.022h-.346v.022l-.325.022V63.4l-.087.022v.022h-.13v.022h-.065v.022h-.043V63.5l-.281.043v.022h-.065v.022H85.4v.022l-.584.022v.022H84.71v.022h-.065V63.7h-.087v.022h-.152v.022h-.173v.022h-.216v.022H83.78a1.622,1.622,0,0,0-.411.043h-.216a.763.763,0,0,0-.26.043h-.108v.022h-.216v.022a1.492,1.492,0,0,1-.584.065v-.022H81.94v-.022l-.238-.043v-.022h-.065v-.022h-.043V63.83h-.065v-.022l-.195-.022-.022-.043-.065-.022V63.7H81.2v-.022H81.16l-.043-.043h-.043l-.022-.043h-.043l-.022-.043-.087-.022V63.5l-.065-.022-.022-.043-.087-.022-.043-.065h-.043l-.022-.043h-.043l-.022-.043h-.043l-.022-.043L80.4,63.18a.567.567,0,0,1,.043-.346v-.173h.022v-.238h.022v-.087h.022v-.087h.022v-.108h.022v-.216h.022V61.86H80.6v-.065h.022V61.73h.022v-.108h.022v-.065h.022v-.13h.022l.022-.238h.022l.022-.087h.022l.022-.195h.022v-.043h.022l.022-.152H80.9v-.065h.022V60.6h.022v-.065h.022V60.5h.022l.022-.152h.022V60.3h.022l.022-.152H81.1v-.043h.022v-.043h.022V60.02h.022v-.043h.022v-.043H81.2l.022-.087h.022v-.065h.022l.022-.087h.022v-.043l.043-.022v-.043l.043-.043V59.5h.022v-.043h.022v-.043l.043-.022.022-.087.043-.022.022-.065h.022l.022-.087.043-.022v-.043L81.745,59l.022-.087.087-.065v-.043l.043-.043h.043l.022-.043.087-.065v-.043l.108-.087v-.043l.065-.043a.967.967,0,0,0,.173-.216h.043a.951.951,0,0,1,.195-.26l.065-.043v-.043h.022l.043-.13h.022v-.065h.022v-.043h.022V57.6l.043-.022V57.53l.065-.043v-.043l.087-.065v-.043l.043-.022.216-.238.087-.065v-.043a.729.729,0,0,0,.216-.173l.022-.043h.043l.043-.065h.043L83.8,56.6l.087-.022.108-.13h.043l.022-.043.065-.022v-.022l.087-.022.065-.087h.043l.043-.043h.043l.022-.043.087-.022.043-.065H84.6l.043-.043h.043v-.022h.043v-.022h.043l.022-.043.065-.022v-.022h.043v-.022h.043v-.022h.065l.281-.173h.065v-.022l.087-.022v-.022h.065V55.6h.043v-.022l.13-.043v-.022h.087V55.5h.065v-.022l.087-.022v-.022l.152-.022v-.022l.087-.022v-.022h.108v-.022h.065V55.3h.087v-.022h.13v-.022h.108v-.022h.108v-.022h.13v-.022h.065v-.022H87.2v-.022h.3v.022l.325.022v.022h.065v.022l.216.043V55.3h.043v.022l.152.022.022.043.065.022v.022l.087.022.022.043h.043l.043.065h.043l.022.043h.043l.022.043.152.13v.043c.145.039.167.19.238.3l.043.022v.043h.022v.043h.022v.043l.043.022.022.087h.022l.022.13h.022v.043h.022l.022.368h.022a1.031,1.031,0,0,1-.043.3h-.022v.216H89.3v.087h-.022v.108h-.022l-.022.087h-.022l-.022.13H89.17V57.9h-.022v.065h-.022l-.043.13h-.022v.043H89.04l-.022.087-.043.022v.043l-.065.043-.13.152h-.043l-.13.152h-.043l-.087.108h-.043l-.216.238h-.043l-.043.065h-.043l-.043.065H88l-.065.087h-.043l-.065.087-.108.022v.022l-.087.022v.022l-.087.022-.022.043h-.043l-.043.065h-.043l-.043.065h-.043l-.043.065h-.043v.022l-.065.022-.022.043h-.043l-.065.087h-.043l-.022.043h-.043l-.022.043-.13.043L86.724,60l-.087.022-.022.043h-.043l-.043.065h-.043l-.022.043H86.42l-.043.043h-.043v.022h-.043v.022h-.043l-.022.043-.087.022v.022H86.1v.022h-.043v.022h-.043v.022h-.043v.022l-.13.043-.022.043h-.043l-.022.043h-.043l-.043.065H85.62l-.022.043h-.043l-.043.065h-.043l-.022.043H85.4l-.087.108-.13.022v.022h-.043v.022l-.195.065-.022.065h-.022l-.043.065-.195.065-.022.043H84.6v.022l-.13.022v.022l-.087.022v.022h-.043v.022h-.065v.022l-.087.022v.022l-.087.022v.022h-.043v.022L84,61.535v.043l-.087.065v.022h-.043l-.13.152-.087.022-.13.152-.087.022-.065.087-.065.022-.022.043a1.518,1.518,0,0,1-.173.043l.022.065.108.022v.022l.455-.022v-.022h.065v-.022h.152v-.022L84,62.206v-.022h.411v-.022h.216v-.022h.087v-.022h.173V62.1h.087v-.022l.087-.022v-.022h.065v-.022h.411v.022a1.181,1.181,0,0,0,.5.065v-.022l.13-.043v-.022h.108V61.99h.087v-.022h.065v-.022l.39.022a2.573,2.573,0,0,1,.563-.022h1.061a7.743,7.743,0,0,0,1.883-.087c.091-.028.309.007.368-.043a.53.53,0,0,0,.3-.043.417.417,0,0,0-.022-.173h-.022v-.043h-.022v-.152H90.9v-.087H90.88v-.065h-.022v-.065h-.022v-.065h-.022l-.022-.195h-.022v-.043H90.75v-.13h-.022v-.108h-.022v-.065h-.022v-.043h-.022v-.065h-.022l-.022-.238H90.6l-.022-.087h-.022v-.216h-.022v-.087h-.022v-.065H90.49a.735.735,0,0,1,.043-.368l.022-.195L90.6,59.2v-.043l.043-.022v-.043h.022v-.043l.26-.238h.043l.022-.043.152-.022.022-.043H91.2v-.022h.13v-.022h.087v-.022h.043v-.022h.065v-.022a1.477,1.477,0,0,1,.476.022v.022l.13.043V58.7h.043l.022.043.13.043.043.065h.043l.043.065H92.5l.043.065h.043l.043.043v.043l.13.108v.043l.043.022.022.065h.022v.043l.043.022v.043l.065.043V59.5l.043.022v.043l.108.087.022.087.065.043.173.195h.043l.065.108.173.152v.043l.043.022.022.065h.022v.043l.043.043V60.5H93.8v.043l.043.022.022.087.043.022.022.087.043.022v.043H94v.043l.043.043v.043h.022l.022.065.043.022v.043l.043.022v.043l.065.043v.043l.065.043.043.13.065.043v.043l.043.022.022.065h.022v.043l.043.022v.043l.065.043v.043l.087.065v.043l.043.022v.043l.043.022v.043l.043.022v.043l.043.022.022.087.043.022v.043l.043.022v.043l.043.022v.043h.022v.043h.022v.065l.043.022.043.13h.022l.043.13h.022v.065h.022l.022.087H95.3v.087A.746.746,0,0,1,95.36,63.44Z" transform="translate(-78 -53.479)"/><path class="b" d="M146.591,198.8v-.043h.043l.281-.3h.043l.043-.043h.043v-.022h.043v-.022h.043v-.022l.065-.022.022-.043h.087v-.022l.087-.022v-.022l.152-.022v-.022h.065v-.022h.043v-.022l.152-.022v-.022h.087v-.022h.087v-.022h.087v-.022l.3-.022v-.022h.087v-.022h.108v-.022h.13v-.022h.281a3.075,3.075,0,0,1,.693.022l.39.022v.022h.043V198h.195v.022h.151v.022h.065v.022h.216v.022h.108v.022h.087v.022h.065v.022h.065v.022l.281.022v.022h.065v.022h.065v.022l.476.043v.022H152v.022h.087v.022h.108v.022h.043l.022.043.13.022v.022h.043l.022.043h.043v.022h.065v.022h.043v.022h.043l.043.065.065.022v.022h.043l.043.065h.043l.065.087h.022l.022.087h.022v.043l.043.022v.065h.022v.065h.022l.022.087h.022v.3c-.074.043-.114.136-.173.195l-.13.108-.022.043-.13.043-.065.087h-.043l-.022.043h-.043v.022h-.043v.022h-.043l-.043.043h-.043l-.022.043h-.043l-.022.043h-.043l-.022.043h-.087v.022l-.13.043v.022h-.043v.022h-.065v.022h-.043l-.022.043h-.043v.022l-.195.065-.022.043h-.065v.022h-.043v.022h-.065v.022h-.087v.022h-.043v.022l-.108.022v.022h-.043v.022l-.108.022v.022l-.195.043v.022h-.043v.022l-.087.022v.022H150.6v.022h-.368v.022h-.13v.022h-.087v.022l-.238.022v.022h-.065v.022h-.065v.022h-.152v.022h-.108v-.022h-.065l-.043-.065h-.065v-.022h-.043v-.022h-.152c-.03-.008.009-.018-.022-.022-.057-.007-.065.022-.065.022l-.39.022v.022l-.173.022v.022H148.3v.022h-.13v.022H147.8v-.022h-.087v-.022h-.043v-.022l-.281-.065v-.022h-.065v-.022h-.065V200.9H147.2v-.022h-.065v-.022l-.39-.065v-.022h-.065v-.022h-.043v-.022h-.087v-.022l-.087-.022-.043-.065-.087-.022-.043-.065h-.043l-.13-.152-.087-.065v-.043h-.022l-.022-.087h-.022V200.1h-.022l-.022-.281h.022v-.087h.022v-.065h.022v-.043h.022l.022-.13h.022l.022-.087h.022v-.043l.065-.043v-.043l.065-.043v-.043l.043-.022v-.043l.108-.087C146.444,198.971,146.487,198.831,146.591,198.8Z" transform="translate(-139.794 -184.881)"/><path class="b" d="M238.785,281.3c.028.145.1.145.108.325l-.065.043v.022l-.087.022-.022.043h-.043v.022h-.108v.022H238.5v.022h-.065v.022h-.065v.022l-.087.022-.022.043-.065.022v.043c.027.014.031.035.043.043h.043v.022h.043l.022.043h.043v.022h.065l.022.043h.065l.173.195h.043v.022h.065v.022c.073.037.106.02.13.108a.131.131,0,0,1-.043.216h-.108c-.043.014-.122.089-.195.065v-.022h-.043v-.022h-.043v-.022h-.065l-.022-.043H238.4v-.022h-.087v-.022l-.13-.043v-.022l-.26-.087v-.022h-.043v-.022l-.3-.108c-.03.057-.038.037-.043.13h.022v.108h.022a.26.26,0,0,1,0,.173,1.4,1.4,0,0,1-.13.087h-.13v.022h-.022v-.022H237.2c-.035-.06-.1-.107-.13-.173l-.022-.152h-.022l-.022-.13h-.022v-.043h-.022v-.152h-.022V282.1h-.022v-.065H236.9v-.281h-.022v-.26h.022v-.563a5.242,5.242,0,0,1,0-.866,1.435,1.435,0,0,1,.411-.022c.03.057.038.037.043.13.045.054.019.2.043.281.069.227.041.569.108.8.029.1-.014.282.043.346v.022h.087c.051-.056.056-.016.13-.043v-.022h.065v-.022h.043v-.022h.043V281.5h.043l.043-.043h.043l.022-.043h.043l.043-.043h.043v-.022h.043v-.022h.043V281.3A1.152,1.152,0,0,1,238.785,281.3Z" transform="translate(-222.55 -259.607)"/><path class="b" d="M159.423,282.584a.469.469,0,0,1-.216-.152h-.022v-.065h-.022a.465.465,0,0,1-.043-.238c.025-.025.009,0,.022-.043a.406.406,0,0,0,.173-.043v-.022c.051-.018.085.026.108.022v-.022l.108-.022v.022h.043l.108.152v.043l.043.022v.043l.043.022.022.087.043.022v.043h.022a.192.192,0,0,1,.065.152l-.108.13H159.6v-.022l-.108-.022C159.461,282.647,159.439,282.645,159.423,282.584Z" transform="translate(-151.803 -261.389)"/><path class="b" d="M102.788,278.519v-.043h-.022l-.022-.108-.152-.173h-.065v-.022h-.043v-.022h-.043v-.022l-.065-.043c-.018-.026-.016-.09-.043-.108h-.065v-.022h-.043v-.022l-.108-.022v-.022l-.108-.022-.022-.043-.13-.022v-.022h-.043l-.022-.043h-.043v-.022h-.065V277.7h-.043v-.022l-.087-.022v-.022l-.13-.022v-.022l-.087-.022v-.022l-.541-.238a1.378,1.378,0,0,0-.455.022.618.618,0,0,0,.043.368l.022.152h.022v.043h.022v.065h.022v.152h.022v.065h.022v.065h.022v.087h.022a1.464,1.464,0,0,1-.043.52l.022.3h-.022v.3h-.022l.022.173h-.022l-.043.238a.4.4,0,0,0-.13.065,1.29,1.29,0,0,0,.108.346.886.886,0,0,0,.584.043v-.022h.173v-.022l.455-.043v-.022l.152-.022v-.022h.087v-.022h.043v-.022h.065V280.1h.043v-.022h.065v-.022l.108-.022.022-.043.087-.022.022-.043h.043l.043-.065.13-.108v-.043l.043-.022v-.043l.043-.043v-.043h.022l.043-.13.043-.022v-.065h.022l.022-.087h.022v-.736Zm-.693.476v.108h-.022c0,.134-.023.134-.087.195l-.022.043h-.043l-.022.043-.087.022-.065.087h-.043l-.043.065h-.043l-.022.043-.087.022-.043.065H101.4v.022l-.195-.022v-.043h-.022c-.006-.036.02-.038.022-.043v-.281h.022V279.1h.022v-.26h-.022v-.173h-.022a1.766,1.766,0,0,1,.022-.5l.368.087.022.043h.043l.043.043.13.043.022.043.087.022.087.108.065.022v.043h.022c.03.047-.01.031.043.065A.764.764,0,0,1,102.095,279Z" transform="translate(-98.307 -257.107)"/><path class="b" d="M180.788,278.555v-.043l-.043-.022v-.065h-.022v-.043H180.7v-.043h-.022l-.022-.043h-.043l-.043-.065-.108-.022v-.022l-.065-.022c-.028-.113-.181-.175-.281-.216h-.065v-.022h-.043l-.022-.043h-.043v-.022h-.065v-.022l-.13-.043v-.022l-.152-.022-.022-.043-.108-.022-.022-.043H179.4v-.022h-.043V277.6h-.065v-.022l-.087-.022v-.022h-.043v-.022l-.195-.065v-.022h-.043v-.022c-.061-.027-.472-.086-.541-.022l-.065.022.022.216h.022v.087h.022v.108h.022v.065h.022v.065h.022v.13h.022l.022.152h.022l.022.087h.022v.433a2.477,2.477,0,0,1-.043.606c-.042.15.029.327-.022.455a1.558,1.558,0,0,1-.087.13l-.087.022a.4.4,0,0,0,.043.195h.022v.108h.022c.035.053.016.014.065.043v.022h.043v.022h.043l.022.043a.83.83,0,0,0,.325,0v-.022h.195v-.022h.152v-.022l.411-.043v-.022l.152-.022v-.022h.087V280.2l.13-.043v-.022h.043v-.022h.065v-.022l.13-.043v-.022h.043l.043-.065h.043l.087-.108.065-.043v-.043l.043-.022V279.7l.043-.043v-.043h.022v-.043l.043-.022v-.043h.022v-.043h.022V279.4h.022v-.043l.043-.022v-.779Zm-.671.455H180.1c-.035.114.015.214-.043.3l-.087.065v.022h-.043l-.043.065h-.043l-.022.043h-.043l-.043.065h-.043l-.022.043h-.043v.022h-.043v.022l-.065.022v.043c-.06.013-.123.042-.152.022-.023,0-.044.045-.087.022v-.022l-.065-.022v-.281h.022l.043-.433h-.022c-.03-.11.021-.213-.043-.281a1.763,1.763,0,0,1,.022-.5.762.762,0,0,1,.368.108h.043v.022l.065.022.022.043.108.022.043.065h.065v.022l.195.173v.065h.022Z" transform="translate(-169.272 -257.165)"/><path class="b" d="M159.336,294.479a.627.627,0,0,1,.346.108v.022l.108.022.022.065h.022l-.087.26v.022h.022v.152h.022v.151a1.465,1.465,0,0,1,.043.649.583.583,0,0,1-.195.022c-.034.032-.128.024-.195.022l-.108-.13h-.022l-.065-.195-.043-.022-.043-.368h.022v-.13h-.022v-.216h-.022l-.022-.325c.059-.034.053-.059.152-.065V294.5h.065Z" transform="translate(-151.803 -272.743)"/><path class="b" d="M212.035,291.7h-.022l-.043-.238h-.022l-.087-.108h-.043l-.022-.043h-.043l-.065-.087h-.043l-.022-.043h-.043l-.022-.043-.065-.022-.043-.065h-.043l-.043-.065c-.064-.045-.086-.034-.13-.108l-.281.022v-.022h-.216c-.059.05-.178-.014-.26.022l-.022.043-.087.022-.087.108-.043.022v.043l-.043.022-.043.13-.043.022v.087a.392.392,0,0,1-.108.173.563.563,0,0,0,.065.3h.022v.065h.022v.043h.022v.043h.022v.043h.022v.043h.022v.043h.022v.043h.022v.043l.043.043v.043h.022l.022.043h.065l.13.152h.065v.022l.13.043v.022h.108v.022h.065v.022h.065v.022c.08.024.133-.03.173-.043l.238-.022v-.022l.13-.043v-.022l.108-.022.022-.043.152-.043c.028-.021.024-.079.043-.108l.043-.022.022-.065h.022l.022-.087.087-.065v-.043h.022l.022-.108h.022A.437.437,0,0,0,212.035,291.7Zm-.52.13h-.022l-.022.087-.043.022-.13.152h-.043l-.043.065h-.3c-.023-.028-.038-.023-.065-.043v-.022H210.8l-.173-.195a1.545,1.545,0,0,1,.13-.52.716.716,0,0,1,.455-.087v.022h.065v.022l.065.022a.242.242,0,0,0,.065.108h.022v.043l.043.022v.043l.043.022v.043h.022A.317.317,0,0,1,211.515,291.832Z" transform="translate(-198.094 -269.468)"/><path class="b" d="M265.942,291.629h-.022c-.02-.062.01-.124-.022-.173h-.022l-.087-.108h-.043l-.022-.043h-.043l-.065-.087h-.043l-.022-.043h-.043l-.043-.065h-.043l-.065-.087h-.043l-.065-.087h-.043l-.022-.043h-.065v-.022h-.087v.022h-.39v-.022c-.036-.006-.038.021-.043.022H264.4v.022l-.087.022v.022h-.043l-.043.065h-.022v.043h-.022v.043l-.087.065-.022.087-.043.022-.022.173h-.022c-.022.049-.095.2-.065.281h.022v.043h.022v.043h.022v.043h.022v.043h.022v.065h.022l.022.087h.022v.065h.022v.043a.654.654,0,0,1,.087.173.286.286,0,0,1,.173.087l.022.065.108.022v.022l.087.022v.022l.152.022v.022h.065v.022h.13v-.022l.368-.022v-.022h.065l.022-.043.13-.043.022-.043h.043v-.022h.043l.13-.108.022-.087.043-.022v-.043l.043-.022c.045-.067.061-.131.13-.173A.833.833,0,0,0,265.942,291.629Zm-.649.368-.065.087h-.043l-.043.065h-.325v-.022h-.043v-.022a.18.18,0,0,0-.087-.043.234.234,0,0,0-.108-.152,1.467,1.467,0,0,1,.087-.541c.1-.041.432-.158.541-.043.054.015.035.011.065.043h.022v.043l.065.043v.043l.065.043c.025.037,0,.049.043.087C265.466,291.873,265.409,291.881,265.292,292Z" transform="translate(-247.153 -269.46)"/><path class="b" d="M132.167,294.49l-.043-.022-.022-.087h-.022l-.022-.108h-.022l-.022-.065-.043-.022-.022-.108-.043-.022v-.043l-.043-.043v-.043h-.022v-.043l-.043-.022-.022-.087h-.022v-.043h-.022v-.043h-.022v-.043h-.022V293.6h-.022l-.087-.238h-.022l-.043-.065-.238-.065v-.022l-.152-.022v-.022l-.087-.022v-.022l-.152-.022v-.022h-.043v-.022h-.065v-.022l-.26.043v.022h-.13v.022h-.065v.022h-.043v.022h-.043l-.022.043-.13.043-.043.065-.26.238a1.268,1.268,0,0,0,.022.411h.022v.043h.022a.776.776,0,0,0,.13.195l.065.043v.043h.022l.043.065h.043l.022.043h.043l.108.13.13.022v.022a.541.541,0,0,0,.325.065v-.022h.195c.115-.037.187-.142.3-.173.019-.07.055-.077.087-.13h.108c.035.139.159.166.26.238l.065.087h.043v.022c.027.021.042.016.065.043a2.346,2.346,0,0,0,.26-.043c.018-.024,0,0,.022-.022A.339.339,0,0,0,132.167,294.49Zm-1.212-.628h-.022c-.025.062.006.067-.043.108-.025.092-.1.091-.152.152-.2-.011-.237-.161-.368-.238a.348.348,0,0,1,.13-.26V293.6h.065a.492.492,0,0,0,.152-.108h.151v.022l.065.022A.5.5,0,0,1,130.954,293.863Z" transform="translate(-125.11 -271.433)"/></g></svg>