<svg xmlns="http://www.w3.org/2000/svg" width="264.864" height="100.495" viewBox="0 0 264.864 100.495"><defs><style>.a{fill:#fff;}.a,.b{fill-rule:evenodd;}.b{fill:#b9321a;}</style></defs><g transform="translate(0)"><path class="a" d="M284.043,413.589c-.515,1.957-1.5,1.542-3.833,1.437a4.372,4.372,0,0,0-2.877-2.4c-.729,2.507-.6,1.067-2.4,1.917v.48h-.96v.48h-.958l-.96.958H271.1l-.958,1.437h-1.44v.48h-1.437v.48h-1.438q-.238.479-.48.958h-.958v.48h-.957c-.161.48-.322.958-.48,1.438l-.96.48c-.158.478-.319.958-.478,1.438h-.48v.958l-.958.96v.958h-.48v.96h-.48v.958h-.48q.241,1.677.48,3.355h-.48l-.958,2.875h-.48v1.437h-.478a3.94,3.94,0,0,0,.478,2.877h.48v2.395l-1.437.48v.48a10.072,10.072,0,0,0-1.917-.48v-.48h-.48c-.158-.478-.319-.957-.478-1.437h-.48v-.958h-.48c-.65-1.969,1.044-3.243,1.438-4.315q.479-2.394.96-4.792h.478v-.958h.48l.48-2.877c.755-1.88,1.724-3.071,1.917-5.75h-2.4v-.48a7.052,7.052,0,0,1-5.272-6.71c5.95.1,9.44-1.023,13.9-1.917.317-.6.76-.659.958-.958v-.96c.321-.158.641-.319.96-.478v-.96c.58-1.025,1.377-2.178,1.917-3.355L271.1,404c.58,1.018,1.079,1.041,1.437,2.395l3.355.48v-2.4c-.026-.119-.62-.156-.48-.958h.48v-.96a7.7,7.7,0,0,1,3.835,2.4q.238.479.48.958c1.347.82.573-.711,1.915.96h.48V408.8l1.438.958q.241,1.2.48,2.4H285v-.48h.478c1.118-2.423,1.521-3.208.96-6.23-1.875-.438-2.358-1.568-2.4-3.835,3.565-.7,4.618-.156,7.67.48,1.072,1.845,1.456,1.505,1.438,4.792C290.48,408.44,287.58,413.107,284.043,413.589Z" transform="translate(-250.494 -401.279)"/><path class="a" d="M270.7,404.094h2.4c.158.48.319.96.478,1.438h.48c.857,1.563-.62,4.543.958,6.232v.478h1.44v-.478l2.875-.48c.76,1.309,1.314,1.172,1.438,3.355-.846.657.186.119-.48.958q-.716.482-1.437.96v.48h-.958v.478c-.319.161-.641.319-.96.48v1.438h.48v.48c1.454-.289,4.478-1.065,5.272-.48h.48v.96c-1.447.946-.252.52-.96,1.437l-.958.478v.48h-.96c-2.677,1.824-2.929,2.854-7.667,2.875-.548-.545,0-.189-.96-.478l-2.395-2.877q.238-3.593.48-7.187h-.48v-1.437h-.48c-.729-2.241-.074-4.087.48-5.752v-1.917h.48v-.958C269.87,404.84,270.41,404.625,270.7,404.094Z" transform="translate(-226.606 -397.537)"/><path class="a" d="M276.889,404.507c2.67-.035,3.809.55,5.752.958a7.507,7.507,0,0,1,.48,2.875q-.72.482-1.44.96v.48h-1.437c-.158.319-.319.638-.478.958h-1.917c-.161.319-.319.638-.48.958h-2.875c-.524-.995-.774-.848-.96-2.4h.48v-.48c2.39.082,3.341.718,3.835-.48C276.449,407.277,276.23,406.277,276.889,404.507Z" transform="translate(-219.856 -396.99)"/><path class="a" d="M282.71,416.63c-4.044-.28-7.812-3.173-8.147-7.19l1.438-.48v-.478q1.2-.241,2.4-.48v.48l1.915.478v.48h1.44v.48h9.1v.478h1.917a6.4,6.4,0,0,0,1.438,1.917c-.275.965.058.415-.48.96-.767,2.954-6.789,4.746-10.542,4.792C283.029,417.588,282.871,417.108,282.71,416.63Z" transform="translate(-218.487 -392.339)"/><path class="a" d="M260.7,417.424c-.159.478-.319.958-.478,1.438l5.27.478c2.078-.578,5.752-1.908,7.67,0h.48v3.355c-1.1.92-.613,1.44-2.4,1.917-1.1,1.174-3.886,1.069-6.23.96-3.774-.179-9.214-2.181-9.587-5.752h.48v-1.437h.48c.8-.85,3.464-1.309,3.835-1.917v-.958h-2.4c-.662-1.253-.848-.813-.957-2.877q.957-.717,1.915-1.437v-.478c2.987-1.994,7.625-2.239,11.982-1.44v.48h.48q.241,1.2.48,2.4h-.48c-.932,3.348-5.212,2.521-8.147,3.833v.48h-.96v.48Q261.424,417.181,260.7,417.424Z" transform="translate(-243.929 -391.214)"/><path class="a" d="M268.152,416.635c2.258.559,2.826,3.068,2.877,5.752-1.857,1.58-.5,1.936-4.315,1.917-.918-1.1-1.437-.613-1.917-2.4-1.06-1.016-1.687-6.255-.958-8.147h.48c.158-.48.319-.958.478-1.437h.96C266.608,413.821,267.7,414.592,268.152,416.635Z" transform="translate(-233.166 -386.594)"/><path class="a" d="M267.978,412.323a6.586,6.586,0,0,1,5.272,2.4h.48V417.6c-1.647.734-2.623,1.673-4.792,1.917l-1.44-4.795h-.478c-.161-.478-.319-.958-.48-1.437A3.564,3.564,0,0,0,267.978,412.323Z" transform="translate(-229.156 -386.594)"/><path class="a" d="M276.207,413.146a11.35,11.35,0,0,1,5.272.958v.48h.958q.72.958,1.438,1.917h.96v.478l9.1-.957.48,1.437h.48v.48h-.48v.958l-1.917,1.437-.48.96h-1.437v.48h-.958a10.472,10.472,0,0,1-4.792,1.438c-1.659.042-4.389.324-5.272-.48-3.171-.794-4.678-4.792-4.792-8.627A3.6,3.6,0,0,0,276.207,413.146Z" transform="translate(-218.213 -385.499)"/><g transform="translate(5.544 41.066)"><path class="a" d="M273.691,449.1c-4.653-.065-7.206,1.032-11.025,1.438-.624,4.147-.319,10.291-1.438,13.9q-.241,1.915-.48,3.832h-.478v.96h-.48c-.96,1.813-.648,3.245-2.875,3.832v.48H255a4.651,4.651,0,0,0-.96-.957q-.238-1.44-.478-2.877h-.48q.479-5.749.957-11.5h.48V439.993c-.405-4.613-2.26-9.263-1.437-13.9a38.1,38.1,0,0,1,6.71-.958l.958,1.438h.48v.96h.48v1.437h.478q.482,5.511.96,11.022a52.172,52.172,0,0,1,9.585-.958c1.158-3.129.506-8.96.48-12.942-1.055-1.1-.263-3.558,0-4.792,2.449-1.412,2.528-2.36,6.71-2.395.636.774,1.365.99,1.917,1.917,1.936,1.943,1.487,9.363,1.438,13.42v2.395h-.48v22.527c0,3.667.4,10.454,0,12.46-.729,3.665.084,5.179-4.312,5.272-.492-.934-1.5-1.952-1.917-2.875l-.48-2.875h-.48Q274.649,460.125,273.691,449.1Z" transform="translate(-252.874 -418.906)"/><path class="a" d="M311.9,419.523h4.315c.158.319.319.638.478.957h.48v1.438h.48q-.241,5.511-.48,11.025h-.48q.241,2.876.48,5.75h-.48v5.752c-2.393,8.362.732,22.562-2.4,30.194-1.223.666-1.489,1.237-3.355,1.438-.445-.582-1.1-.526-1.437-.958v-.96c-.322-.159-.641-.319-.96-.478v-.96l-.958-.957h-.96q-1.2-1.44-2.4-2.877-.241-1.677-.48-3.355c-2.2-6.118-3.285-13.662-5.752-19.649h-.478v5.272h-.48v3.355c-1.524,5.154.035,17.765-4.792,19.172v.478h-2.875c-1.566-2.835-2.88-2.933-2.877-7.667h.48q.241-1.44.48-2.875h.478v-1.44h.48v-1.915h.48v-2.4c1.2-3.954,1.44-8.627,1.438-13.9v-5.272h-.48v-2.875h-.478v-.958h-.48v-1.917h-.48q.479-4.791.96-9.585,1.915-1.44,3.832-2.877h3.355c.811.976,1.121.405,1.917.96q.479.716.96,1.438h.478v.957c.319.161.641.319.96.48v.958q.479.241.958.48.241,1.678.48,3.355h.48v1.917h.478v2.4h.48v2.4h.48v1.917h.478v1.917h.48v2.4h.48q.238,2.16.48,4.315h.478V447.8h.48c.582,1.724-.163,3.129.958,4.312v-.478c1.417-1.642-.2-5.717.48-8.147.389-1.393,1.177-8.045.48-10.065h-.48v-.96h-.48c-.55-1.64.669-4.319.96-5.272l.958-6.23A6.366,6.366,0,0,0,311.9,419.523Z" transform="translate(-208.166 -418.086)"/><path class="a" d="M348.6,438.693q2.876.241,5.752.48v-.48l8.147-.478v.478q1.2.241,2.4.48c1.051,1.908,1.424,1.584,1.44,4.792-1.44.946-.452,1.356-2.4,1.917-1.57,1.314-3.856.254-6.23.96v.478h-2.877c-.874.3-6.451,2.84-6.71,3.355v1.917c-.736.829-.44,2.775-.478,4.315q-.241,3.592-.48,7.187h2.4v-.478a1.268,1.268,0,0,1,1.437.478h11.5v.48l5.75.48c.454.862.664.755.96,1.917.971,1.055.135,2.658,0,4.312a6.367,6.367,0,0,0-1.917,1.437q-3.6-.238-7.19-.48c-2.36.678-5.859,1.2-8.147,1.917l-4.792.48v.48h-1.918v.478H343.81v.48h-2.4v.48h-.958v.48H339.5v.478l-1.44-.478c-.158-.641-.319-1.279-.478-1.917h-.48q.241-1.44.48-2.877h.478q.241-2.156.48-4.312h.48v-3.355h.48v-5.752h.478V434.38H339.5v-1.917h-.48v-.958h-.48v-2.4h-.48c-.494-1.836.958-5.519,1.44-6.71.534-.282.753-.836.958-.958h.958v-.48h5.272c4.89-1.4,10.885-1.421,17.254-1.437,1.081,1.852,1.852,1.617,1.918,4.792-1.822,1.566-1.188,2.817-4.793,2.875v.48h-2.877v.48h-3.355v.478H351v.48l-1.917.48C348.271,431.761,348.579,435.748,348.6,438.693Z" transform="translate(-140.871 -418.086)"/><path class="a" d="M354.4,468.938v-.958l-1.44-.48q-1.436-1.677-2.875-3.355h-.958v-.48l-1.437-.957v-.96c-.322-.158-.641-.319-.96-.478v-.96l-.958-.478c-.161-.641-.319-1.279-.48-1.917l-.958-.48c-.161-.638-.322-1.279-.48-1.917h-.48v-.958h-.48l-.958-2.877h-.48c-.722-1.64-.161-2.677-1.437-3.832.161-3.1,1.347-4.114,2.875-5.752q.482-.238.96-.48.238-.958.48-1.915c.319-.161.638-.322.958-.48v-1.437h.48v-.96h.478c.473-1.1.969-6.414.48-8.147h-.48c-.576-2.027.5-2.549-.958-3.835-.482-1.829-1.055-1.484-2.4-2.395-.158-.319-.319-.638-.478-.96h-.96v-.478H340.5v-.48h-1.437v-.48c-2.01-.657-7.828.41-9.107.96v.478c-.638.161-1.279.322-1.917.48v.48h-.957v.48h-1.438l-.48.957h-2.875v.48c-.48.158-.96.319-1.437.478q.479,6.951.958,13.9h.48v3.835h-.48v12.46h-.48v7.19h-.478v8.147q1.436,2.4,2.875,4.792a6.19,6.19,0,0,0,3.835-.958q1.2-11.98,2.395-23.964h1.917v.48c2.069,1.489,1.689,2.63,2.875,4.792h.48v.96l.958.478v.96h.48v.958l.96.96v.958l.958.48v.958l.958.48v.957l.96.48v.958q.479.241.958.48v.96q1.919,1.677,3.835,3.355.479.716.958,1.438c.641.158,1.279.319,1.917.478l.48.96c.07.042,3.355,1.438,3.355,1.438v-.48c2.015-.254,1.559-.678,2.875-1.437v-3.355Zm-16.3-33.549-.958.48-2.4,2.875c-1.163.767-2.274.233-3.355,1.437a5.133,5.133,0,0,1-1.917-.478c-.047-2.139-.62-6.94.48-8.15.123-2.181.678-2.046,1.438-3.355q2.4-.716,4.792-1.437a13.447,13.447,0,0,0,1.917.48,22.556,22.556,0,0,1,.96,6.23C338.106,434.3,338.656,434.586,338.1,435.389Z" transform="translate(-162.481 -417.657)"/><path class="a" d="M296.788,456.017v-2.395h-.48q-.479-2.635-.958-5.272h-.48v-1.437h-.478V445h-.48v-1.437h-.48v-.96h-.48V440.68h-.478v-1.438H292v-.958h-.48q-.238-1.436-.478-2.875h-.48v-1.917h-.48v-.96h-.48V431.1h-.478v-.958h-.48V428.7h-.48v-.96h-.478q-.241-1.436-.48-2.875h-.48v-1.437c-.412-.925-1.44-1.934-1.917-2.877h-5.272c-.543.939-1.547,1.789-1.915,2.877q-.482,6.947-.96,13.9c-.725,2.5-1.177,6.141-1.917,8.627v3.355h-.478q-.241,2.156-.48,4.315h-.48q-.238,2.156-.48,4.312h-.478v1.917h-.48v1.917h-.48v1.917h-.478V465.6h-.48c-.685,2.122-.256,6.009.958,7.187.552.925,1.281,1.144,1.917,1.917,5.072-.063,2.754-2.218,3.835-5.75h.48v-2.4h.478v-1.437h.48v-1.918h.48V461.29h.478q.482-2.394.96-4.792h.48c.158-.48.319-.958.478-1.438,3.395-.117,4.788-.655,7.67.48q2.156,8.384,4.312,16.774h.48l.48.957c.757.545,1.1,0,1.915.958a12.918,12.918,0,0,0,4.315-.478C300.5,467.091,298.545,461.152,296.788,456.017Zm-13.9-8.627c-.012-1.661.217-4.944.96-5.75.289-.958-.068-.412.48-.96.54,2.516,1.829,3.76,1.915,6.71C284.287,447.693,285.03,447.57,282.889,447.39Z" transform="translate(-229.962 -416.719)"/><path class="a" d="M330.626,456.77v-1.917h-.478v-1.917h-.48v-1.917h-.48V449.1h-.48l-.958-4.795h-.48V442.87h-.478v-1.437h-.48V440h-.48v-1.437h-.48q-.238-1.436-.478-2.875h-.48v-.96h-.48v-1.917h-.478v-.958h-.48c-.61-1.2-.394-2.544-.96-3.835h-.478v-.957h-.48l-.957-4.315h-.48v-.957h-.48l-.958-1.437h-4.315a6.407,6.407,0,0,1-1.917,1.437c-.207,1.046-.7,2.97-.958,3.835v5.27h-.48V435.2h-.478q-.241,3.355-.48,6.71h-.48q-.238,2.876-.48,5.75H308.1v2.4h-.48v2.4h-.48v2.4h-.478v1.917h-.48v1.917h-.48V460.6c-.517,1.519-2.982,8.366-1.437,10.065.144,2.474,1.018,2.325,1.917,3.833a9.92,9.92,0,0,0,3.835-.478l1.915-10.065h.48v-1.437h.48V460.6h.48q.479-2.4.958-4.792h.48v-.48c.1-.077,5.981-.918,6.71-.48v.48c.955.289.412-.068.958.48h.48q.238,1.677.48,3.355h.478v1.915h.48q.241,2.156.48,4.315h.478v1.917h.48v1.917h.48v1.437h.48v1.437c.319.159.638.319.958.48.161.319.319.638.48.957h1.437v.48l3.355.478v-.478l1.438-.48C334.344,467.359,332.285,461.63,330.626,456.77ZM319.6,447.663h-2.875v-.478c-.51-.683.373-4.5.478-6.232,1.9,1.239,1.472,3.786,2.877,5.272Q319.842,446.945,319.6,447.663Z" transform="translate(-185.2 -416.991)"/></g></g><g transform="translate(243.251 74.834)"><path class="b" d="M99.576,71.192h-.024v-.31a1.3,1.3,0,0,1-.048-.239l-.048-1.718h-.024v-.143h-.024v-.43h-.024V67.9h-.024v-.263h-.024l-.048-.5-.048-.955h-.024V65.8a.063.063,0,0,1-.024-.072h.024l.024-.6h.024V64.8h.024V64.1h.024v-.215h.024v-.143h.024v-.167h.024l.024-1.05h.024v-.1h.024l.024-.716v-.43H99.5v-.358h.024v-.072h.024V60.6a3.219,3.219,0,0,0,.024-1.1v-.143h-.024v-.072h-.024v-.072H99.5l-.024-.477h-.024V58.59h-.024v-.1h-.024v-.239h-.024v-.263c-.031-.107-.064-.275-.1-.382v-.263h-.024v-.191h-.024v-.1h-.024v-.191h-.024v-.143H99.17v-.048l-.048-.024-.048-.143-.048-.024v-.048H99v-.1h-.024V56.3l-.048-.024-.024-.119-.072-.048-.024-.119h-.024v-.048l-.048-.024-.024-.1h-.024V55.75h-.024l-.048-.143H98.6v-.048h-.024v-.048h-.024v-.048h-.024l-.048-.143-.072-.048V55.2h-.024v-.048l-.048-.024v-.048h-.024l-.024-.119-.143-.191H98.1v-.024h-.048v-.024h-.072V54.7h-.048v-.024l-.1-.024v-.024L97.69,54.6l-.024-.048h-.072v-.024h-.048v-.024h-.072l-.024-.048H97.4v-.024h-.048v-.024h-.072V54.39l-.143-.048v-.024L97,54.294l-.024-.048H96.9v-.024h-.048V54.2l-.143-.048v-.024h-.1V54.1h-.048V54.08l-.406-.167-.788-.024v-.024h-.143v-.024h-.286v-.024h-.43v-.024h-.191v-.024H94.11v-.024h-.263v-.024h-.6a2.679,2.679,0,0,0-.6-.024h-.239v.024H89.933l-.811-.024v.024h-.1V53.7h-.334v-.024h-.716V53.65h-.215c-.006,0-.008-.03-.048-.024v.024h-.668v.024H86.9V53.7h-.167v.024h-.453v.024h-.167v.024h-.1v.024h-.1v.024h-.215v.024H85.47v.024h-.239v.024h-.1v.024h-.191v.024h-.31v.024H84.42v.024a.96.96,0,0,1-.525-.072h-.31v-.024h-.1v-.024h-.072v-.024h-.143v-.024l-.263-.024v-.024H82.94v-.024h-.072v-.024h-.358V53.7h-.1v-.024h-.072V53.65h-.119v-.024l-.286-.024v-.024h-.1v-.024H81.7v-.024h-.215a.717.717,0,0,0-.263-.048v.024l-.1.024-.048.072h-.048l-.024.048h-.048l-.048.072-.143.048-.048.072h-.048l-.024.048H80.6v.024l-.072.024-.024.048h-.048l-.048.072h-.048l-.048.072-.1.024-.048.072-.072.024-.024.048h-.048l-.048.048h-.048l-.024.048c-.082.052-.111,0-.143.119a.344.344,0,0,0-.191.072l-.024.048H79.5l-.048.072h-.048l-.024.048h-.048v.024l-.1.072v.048l-.048.024v.048l-.048.024-.024.1H79.1l-.024.072-.048.024-.024.1-.1.072v.048l-.048.024v.048l-.048.024-.048.143-.048.024V55.7l-.048.024v.048l-.072.048-.024.1-.072.048-.024.1-.048.024v.048l-.048.024V56.2l-.048.024-.024.1-.048.024v.048h-.024v.048l-.048.024v.048l-.048.024v.048l-.048.024v.048l-.048.024v.048L78,56.753q.012,1.432.024,2.864a2.693,2.693,0,0,0,.048.668v.692H78.1v.859h.024v.74h.024v.764s.02,0,.024.048a4.984,4.984,0,0,0,.024.74v4.7h.024l.024.215h.024v.119h.024V69.4c.055.192.066.432.119.621v.31h.024v.119h.024v.167h.024l.048.573.048.024.024.5h.024v.048h.024l.024.167h.024V72h.024l.024.1h.024l.024.167h.024v.072h.024l.024.1h.024l.024.143h.024l.024.1h.024v.119H79l.024.143h.024l.024.1H79.1l.024.143h.024v.048h.024l.024.167h.024v.072h.024v.048h.024v.072a.991.991,0,0,0,.1.143l.1.024.048.072.1.024v.024l.072.024.024.048h.048l.048.072h.048v.024l.072.024.048.072.143.048.024.048h.048l.048.072h.048l.048.072h.048l.024.048.072.024v.024h.048l.024.048.072.024v.024l.1.024.024.048h.048v.024h.048l.048.072h.048v.024l.072.024.024.048h.048l.1.119h.072v.024h.048v.024c.092.031.139-.038.191-.048.221-.043.5.029.692-.024l.6-.024v-.024l.621-.048h.43a2.9,2.9,0,0,1,.716-.024v.024H84.8v.024h.119v.024h.1v.024h.119v.024h.239v.024h.286v.024h.119v.024l.644.024a2.975,2.975,0,0,0,1.48.048l.358-.024v-.024h.382v-.024h.239v-.024h.143v-.024h.31v-.024h.334v-.024h.119v-.024h.143v-.024H90.1V74.82h.406V74.8h.382v-.024h.286v-.024h.263v-.024h.525a6.25,6.25,0,0,1,1.575-.119l.573-.024a4.884,4.884,0,0,0,1.026.024,2.5,2.5,0,0,0,.549-.024l.382.024v-.024h.191v-.024h.1v-.024h.119l.024-.048h.048v-.024l.167-.024v-.024l.143-.024v-.024H96.9v-.024l.191-.024.024-.048.119-.024v-.024h.119V74.2h.072v-.024H97.5v-.024l.191-.024V74.1h.048V74.08h.072v-.024h.048v-.024l.167-.024v-.024H98.1v-.024h.048v-.024h.167s0-.016.048-.024l.024-.1h.024v-.072l.072-.048V73.65l.048-.048v-.048h.024v-.048h.024v-.048l.048-.024v-.048l.048-.024.048-.143.048-.024v-.048l.048-.024v-.072l.048-.024v-.048h.024l.048-.143L99,72.791v-.048h.024V72.7l.048-.024.048-.143.048-.024.024-.1.048-.024v-.048h.024V72.29l.048-.048v-.048l.048-.024v-.048l.048-.024v-.048L99.48,72v-.048H99.5l.048-.143h.024v-.072H99.6v-.358h-.024Zm-4.7-2.076-.072.5h-.024v.072h-.024v.048h-.024l-.024.143h-.024l-.048.143h-.024v.048h-.024l-.024.119H94.54l-.024.072-.048.024-.048.143-.048.024V70.5l-.072.048V70.6l-.072.048v.048l-.048.024v.048l-.119.1v.048l-.239.215-.1.119h-.048l-.048.072h-.048l-.024.048h-.048l-.048.072h-.048l-.024.048h-.048l-.024.048h-.048l-.072.1-.1.024v.024l-.072.024-.024.048h-.048l-.024.048h-.048l-.024.048h-.048l-.024.048H92.75l-.024.048-.1.024L92.606,72h-.048l-.024.048h-.048l-.048.048h-.048v.024h-.048l-.024.048-.143.048v.024l-.143.048v.024h-.1v.024H91.89v.024h-.048l-.024.048h-.143c-.161.048-.368.07-.525.119h-.119v.024l-.1.024V72.6l-.215.024v.024h-.1v.024h-.1V72.7l-.31.024v.024h-.072l-.024.048h-.048v.024h-.1v.024h-.119v.024h-.143v.024H89.6v.024h-.167a4.95,4.95,0,0,1-1.289.1H86.831v-.024h-.1v-.024h-.1v-.024l-.382-.024v-.024h-.1v-.024h-.048v-.024h-.1v-.024l-.644-.024v-.024h-.048v-.024l-.215-.024V72.7h-.048v-.024l-.215-.048V72.6l-.1-.024v-.024h-.048v-.024l-.215-.072v-.024l-.072-.024-.024-.048-.1-.024-.024-.048h-.048l-.024-.048h-.048l-.048-.072h-.048l-.024-.048h-.048l-.048-.072H83.9v-.024c-.054-.045-.089-.1-.167-.119V71.86l-.072-.024-.024-.048h-.048l-.048-.048-.024-.072h-.048v-.048h-.048l-.024-.072-.1-.072v-.048l-.1-.072v-.048l-.119-.1-.239-.453v-.1h-.024V70.6H82.8V70.4h-.024v-.191h-.024l-.024-.1H82.7a1.044,1.044,0,0,1,.048-.382h.024l.024-.191h.024l.024-.1h.024l.048-.215h.024v-.048h.024l.024-.143.239-.573.048-.024V68.4H83.3v-.048h.024V68.3l.048-.048v-.048h.024l.024-.072.048-.024.024-.1.048-.024v-.048l.119-.1V67.8l.048-.024v-.048l.072-.048v-.048l.286-.263v-.048h.024l.048-.072h.048l.024-.048h.048l.048-.072h.048l.1-.119h.048l.048-.072h.048l.048-.072h.048v-.024h.048l.024-.048.1-.024.024-.048h.048l.024-.048h.048v-.024h.143v-.024l.1-.024v-.024h.119v-.024h.072v-.024h.048v-.024h.1V66.49h.048v-.024l.31-.072v-.024l.119-.024v-.024h.048V66.3h.072v-.024h.048v-.024h.072v-.024l.143-.048v-.024h.048l.1-.119.119-.1.024-.048h.048l.072-.1h.048l.072-.1H87l.024-.048h.048l.048-.048h.048v-.024h.048V65.56h.048l.024-.048h.048v-.024l.1-.024V65.44H87.5l.024-.048.143-.024.024-.048h.048V65.3h.048v-.024h.143v-.024h.1v-.024h.1V65.2a1.308,1.308,0,0,1,.43.024,5.4,5.4,0,0,1,1.193.143h.215c.116.033.323-.013.453.024v.024h.143v.024h.119v.024h.143v.024h.072v.024l.1.024v.024l.406.1v.024l.1.024v.024h.072v.024H91.6v.024l.215.048v.024h.048v.024h.072v.024l.119.024v.024h.048v.024h.072v.024l.1.024v.024l.143.024v.024l.143.048v.024h.048v.024h.072V66.2l.1.024v.024l.143.024V66.3l.143.048v.024l.1.024.024.048.119.024.119.143h.048l.119.143.286.263.072.1h.024c.047.065.027.1.119.119l.024.072h.024l.024.072.048.024v.048l.048.024.024.072H94.3v.048l.048.024.024.072H94.4l.048.143.048.024.024.143h.024l.024.1h.024l.024.143h.024v.048h.024l.024.167h.024l.024.143h.024v.048h.024l.048.215.048.024Zm2.267-4.654h-.024V64.6h-.024v.1H97.07v.119h-.024L97,64.963h-.024l-.048.143-.048.024v.048l-.048.024-.048.143-.263.239-.1.119h-.048l-.024.048h-.048l-.191.215-.072.024L96,66.061c-.1.072-.22.082-.286.191h-.43v-.024l-.143-.024V66.18h-.072v-.024H94.85v-.024h-.072v-.024h-.1v-.024l-.358-.024v-.024h-.048l-.024-.048-.1-.024-.048-.072h-.048l-.143-.167-.072-.024-.072-.119-.167-.143v-.048l-.1-.072v-.048l-.072-.048v-.048l-.048-.024v-.048l-.048-.024c-.028-.046-.023-.145-.048-.191l-.048-.024V64.82l-.1-.072V64.7l-.072-.048V64.6l-.1-.072v-.048l-.048-.024v-.048l-.048-.024v-.048l-.072-.048v-.048c-.01-.015-.032-.018-.048-.048a.887.887,0,0,0-.31.072h-.621a5.323,5.323,0,0,0-1.337.1h-.334v.024H89.91l-.406.024v.024a1.437,1.437,0,0,1-.573-.048h-.477v-.024h-.74v-.024h-.382v.024l-.358.024v.024l-.1.024v.024h-.143v.024h-.072v.024h-.048v.024l-.31.048V64.6h-.072v.024h-.072v.024l-.644.024V64.7H85.4v.024h-.072v.024h-.1v.024h-.167V64.8h-.191v.024h-.239v.024h-.263a1.788,1.788,0,0,0-.453.048H83.68a.841.841,0,0,0-.286.048h-.119v.024h-.239v.024a1.645,1.645,0,0,1-.644.072v-.024h-.048v-.024l-.263-.048v-.024H82.01v-.024h-.048v-.024H81.89v-.024l-.215-.024-.024-.048-.072-.024v-.024h-.048v-.024h-.048l-.048-.048h-.048l-.024-.048h-.048l-.024-.048-.1-.024v-.024l-.072-.024-.024-.048-.1-.024-.048-.072h-.048l-.024-.048H80.84l-.024-.048h-.048l-.024-.048-.1-.048a.625.625,0,0,1,.048-.382V63.6h.024V63.34h.024v-.1h.024v-.1h.024V63.03h.024v-.239h.024v-.072h.024v-.072h.024v-.072h.024v-.119h.024v-.072h.024v-.143h.024l.024-.263h.024l.024-.1h.024l.024-.215h.024v-.048h.024l.024-.167H81.2v-.072h.024v-.048h.024v-.072h.024v-.048h.024l.024-.167h.024V61h.024l.024-.167h.024v-.048h.024v-.048h.024v-.048h.024v-.048h.024V60.6h.024l.024-.1h.024v-.072H81.6l.024-.1h.024v-.048l.048-.024v-.048l.048-.048v-.048h.024V60.07h.024v-.048L81.843,60l.024-.1.048-.024.024-.072h.024l.024-.1.048-.024v-.048l.1-.072.024-.1.1-.072v-.048l.048-.048h.048l.024-.048.1-.072v-.048l.119-.1V59l.072-.048a1.066,1.066,0,0,0,.191-.239h.048a1.049,1.049,0,0,1,.215-.286l.072-.048v-.048H83.2l.048-.143h.024v-.072H83.3v-.048h.024v-.048l.048-.024v-.048l.072-.048v-.048l.1-.072v-.048l.048-.024.239-.263.1-.072v-.048a.8.8,0,0,0,.239-.191l.024-.048h.048l.048-.072h.048l.072-.1.1-.024.119-.143h.048l.024-.048.072-.024v-.024l.1-.024.072-.1h.048l.048-.048h.048l.024-.048.1-.024.048-.072h.048l.048-.048h.048v-.024h.048v-.024h.048l.024-.048.072-.024v-.024h.048v-.024h.048v-.024h.072l.31-.191h.072v-.024l.1-.024v-.024h.072v-.024h.048V55.8l.143-.048v-.024h.1V55.7h.072v-.024l.1-.024v-.024l.167-.024v-.024l.1-.024v-.024h.119v-.024h.072v-.024h.1v-.024h.143V55.44h.119v-.024h.119v-.024h.143v-.024h.072v-.024h.263v-.024h.334v.024l.358.024v.024h.072v.024l.239.048v.024h.048v.024l.167.024.024.048.072.024v.024l.1.024.024.048h.048l.048.072h.048l.024.048h.048l.024.048.167.143v.048c.16.042.184.21.263.334l.048.024v.048h.024v.048h.024v.048l.048.024.024.1h.024l.024.143h.024v.048h.024l.024.406h.024a1.137,1.137,0,0,1-.048.334h-.024v.239h-.024v.1h-.024v.119h-.024l-.024.1h-.024l-.024.143h-.024v.048h-.024v.072h-.024l-.048.143H90.2v.048h-.024l-.024.1-.048.024v.048l-.072.048L89.886,59h-.048l-.143.167h-.048l-.1.119H89.5l-.239.263h-.048l-.048.072h-.048l-.048.072h-.048l-.072.1h-.048l-.072.1-.119.024v.024l-.1.024v.024l-.1.024-.024.048h-.048l-.048.072h-.048l-.048.072h-.048l-.048.072h-.048v.024l-.072.024-.024.048h-.048l-.072.1H87.9l-.024.048h-.048l-.024.048-.143.048-.048.072-.1.024-.024.048h-.048l-.048.072h-.048l-.024.048h-.048l-.048.048h-.048v.024h-.048v.024h-.048L87.069,61l-.1.024v.024h-.048v.024h-.048V61.1h-.048v.024h-.048v.024l-.143.048-.024.048h-.048l-.024.048H86.5l-.048.072H86.4l-.024.048H86.33l-.048.072h-.048l-.024.048h-.048l-.1.119-.143.024v.024h-.048v.024l-.215.072-.024.072h-.024l-.048.072L85.351,62l-.024.048h-.048v.024l-.143.024v.024l-.1.024v.024h-.048v.024h-.072v.024l-.1.024v.024l-.1.024v.024h-.048v.024l-.072.024v.048l-.1.072V62.5h-.048l-.143.167-.1.024-.143.167-.1.024-.072.1-.072.024-.024.048a1.675,1.675,0,0,1-.191.048l.024.072.119.024v.024l.5-.024v-.024h.072v-.024h.167v-.024l.1-.024v-.024h.453v-.024H85.3V63.03h.1v-.024h.191v-.024h.1v-.024l.1-.024V62.91h.072v-.024h.453v.024a1.3,1.3,0,0,0,.549.072v-.024L87,62.91v-.024h.119v-.024h.1v-.024h.072v-.024l.43.024a2.836,2.836,0,0,1,.621-.024H89.5a8.537,8.537,0,0,0,2.076-.1c.1-.031.34.008.406-.048a.585.585,0,0,0,.334-.048.461.461,0,0,0-.024-.191h-.024v-.048h-.024v-.167h-.024v-.1H92.2v-.072h-.024V61.98h-.024v-.072h-.024l-.024-.215h-.024v-.048h-.024V61.5h-.024v-.119H92.01v-.072h-.024v-.048h-.024v-.072h-.024l-.024-.263H91.89l-.024-.1h-.024V60.6h-.024v-.1H91.8v-.072h-.024a.811.811,0,0,1,.048-.406l.024-.215.048-.024v-.048l.048-.024v-.048h.024v-.048l.286-.263H92.3l.024-.048.167-.024.024-.048h.048v-.024H92.7v-.024h.1v-.024h.048v-.024h.072v-.024a1.628,1.628,0,0,1,.525.024v.024l.143.048v.024h.048l.024.048.143.048.048.072H93.9l.048.072h.048l.048.072h.048l.048.048v.048l.143.119v.048l.048.024.024.072h.024v.048l.048.024v.048l.072.048v.048l.048.024v.048l.119.1.024.1.072.048.191.215h.048l.072.119.191.167v.048L95.3,61l.024.072h.024v.048l.048.048v.048h.024v.048l.048.024.024.1.048.024.024.1.048.024v.048h.024v.048l.048.048v.048h.024l.024.072.048.024v.048l.048.024v.048l.072.048v.048l.072.048.048.143.072.048v.048l.048.024.024.072h.024v.048l.048.024v.048l.072.048v.048l.1.072v.048l.048.024v.048l.048.024v.048l.048.024v.048l.048.024.024.1.048.024v.048l.048.024v.048l.048.024v.048h.024v.048h.024v.072l.048.024.048.143h.024l.048.143H97v.072h.024l.024.1h.024v.1A.822.822,0,0,1,97.141,64.462Z" transform="translate(-78 -53.479)"/><path class="b" d="M146.66,198.895v-.048h.048l.31-.334h.048l.048-.048h.048v-.024h.048v-.024h.048v-.024l.072-.024.024-.048h.1V198.3l.1-.024v-.024l.167-.024V198.2h.072v-.024h.048v-.024l.167-.024v-.024h.1v-.024h.1v-.024h.1v-.024l.334-.024v-.024h.1v-.024h.119v-.024h.143v-.024h.31a3.391,3.391,0,0,1,.764.024l.43.024v.024h.048v.024h.215v.024h.167v.024h.072v.024h.239v.024h.119v.024h.1v.024h.072v.024h.072v.024l.31.024v.024h.072v.024h.072v.024l.525.048v.024h.072v.024h.1v.024h.119v.024h.048l.024.048.143.024v.024h.048l.024.048h.048v.024h.072v.024h.048v.024h.048l.048.072.072.024v.024h.048l.048.072h.048l.072.1h.024l.024.1h.024v.048l.048.024v.072h.024v.072h.024l.024.1h.024v.334c-.081.047-.126.15-.191.215l-.143.119-.024.048-.143.048-.072.1h-.048l-.024.048H153.2v.024h-.048v.024H153.1l-.048.048h-.048l-.024.048h-.048l-.024.048h-.048l-.024.048h-.1v.024l-.143.048v.024h-.048v.024h-.072v.024h-.048l-.024.048h-.048v.024l-.215.072-.024.048h-.072v.024h-.048v.024h-.072v.024h-.1v.024h-.048v.024l-.119.024V201h-.048v.024l-.119.024v.024l-.215.048v.024h-.048v.024l-.1.024v.024h-.072v.024h-.406v.024h-.143v.024h-.1v.024l-.263.024v.024H150.1v.024h-.072v.024h-.167v.024h-.119V201.4h-.072l-.048-.072h-.072v-.024H149.5v-.024h-.167c-.033-.009.01-.02-.024-.024-.063-.007-.072.024-.072.024l-.43.024v.024l-.191.024v.024h-.072v.024H148.4v.024H148V201.4h-.1v-.024h-.048v-.024l-.31-.072v-.024h-.072v-.024H147.4v-.024h-.072v-.024h-.072v-.024l-.43-.072v-.024h-.072v-.024h-.048v-.024h-.1V201l-.1-.024-.048-.072-.1-.024-.048-.072h-.048l-.143-.167-.1-.072v-.048h-.024l-.024-.1h-.024v-.1h-.024l-.024-.31h.024v-.1h.024v-.072h.024V199.8h.024l.024-.143h.024l.024-.1h.024v-.048l.072-.048v-.048l.072-.048v-.048l.048-.024v-.048l.119-.1C146.5,199.08,146.545,198.926,146.66,198.895Z" transform="translate(-139.166 -183.544)"/><path class="b" d="M238.98,281.43c.031.16.114.16.119.358l-.072.048v.024l-.1.024-.024.048h-.048v.024h-.119v.024h-.072V282H238.6v.024h-.072v.024l-.1.024-.024.048-.072.024v.048c.03.015.034.039.048.048h.048v.024h.048l.024.048h.048v.024h.072l.024.048h.072l.191.215h.048v.024h.072v.024c.081.04.117.022.143.119a.145.145,0,0,1-.048.239H239c-.047.015-.135.1-.215.072v-.024h-.048v-.024h-.048V283h-.072l-.024-.048h-.048v-.024h-.1v-.024l-.143-.048v-.024l-.286-.1v-.024h-.048v-.024l-.334-.119c-.033.062-.042.04-.048.143h.024v.119h.024a.287.287,0,0,1,0,.191,1.551,1.551,0,0,1-.143.1h-.143v.024h-.024v-.024h-.1c-.038-.067-.111-.118-.143-.191l-.024-.167h-.024l-.024-.143H237v-.048h-.024v-.167h-.024v-.1h-.024v-.072H236.9v-.31h-.024v-.286h.024v-.621a5.779,5.779,0,0,1,0-.955,1.58,1.58,0,0,1,.453-.024c.033.062.042.04.048.143.05.059.021.222.048.31.076.25.046.627.119.883.032.111-.015.311.048.382v.024h.1c.056-.061.062-.018.143-.048v-.024h.072v-.024h.048v-.024h.048v-.024h.048l.048-.048h.048l.024-.048h.048l.048-.048h.048v-.024h.048v-.024h.048v-.024A1.269,1.269,0,0,1,238.98,281.43Z" transform="translate(-221.08 -257.511)"/><path class="b" d="M159.454,282.644a.517.517,0,0,1-.239-.167h-.024v-.072h-.024a.513.513,0,0,1-.048-.263c.027-.027.01,0,.024-.048a.448.448,0,0,0,.191-.048v-.024c.056-.019.094.028.119.024v-.024l.119-.024v.024h.048l.119.167v.048l.048.024v.048l.048.024.024.1.048.024v.048h.024a.212.212,0,0,1,.072.167l-.119.143h-.239v-.024l-.119-.024C159.5,282.713,159.471,282.712,159.454,282.644Z" transform="translate(-151.053 -259.275)"/><path class="b" d="M103.041,278.645V278.6h-.024l-.024-.119-.167-.191h-.072v-.024h-.048v-.024h-.048v-.024l-.072-.048c-.02-.029-.018-.1-.048-.119h-.072v-.024h-.048V278l-.119-.024v-.024l-.119-.024-.024-.048-.143-.024v-.024h-.048l-.024-.048H101.9v-.024h-.072v-.024h-.048v-.024l-.1-.024v-.024l-.143-.024v-.024l-.1-.024v-.024l-.6-.263a1.519,1.519,0,0,0-.5.024.681.681,0,0,0,.048.406l.024.167h.024v.048h.024v.072h.024v.167h.024v.072h.024v.072h.024v.1h.024a1.614,1.614,0,0,1-.048.573l.024.334h-.024v.334h-.024l.024.191h-.024l-.048.263a.437.437,0,0,0-.143.072,1.421,1.421,0,0,0,.119.382.977.977,0,0,0,.644.048V280.6h.191v-.024l.5-.048v-.024l.167-.024v-.024h.1v-.024h.048v-.024h.072v-.024h.048v-.024h.072v-.024l.119-.024.024-.048.1-.024.024-.048h.048l.048-.072.143-.119v-.048l.048-.024v-.048l.048-.048v-.048h.024l.048-.143.048-.024v-.072h.024l.024-.1h.024v-.811Zm-.764.525v.119h-.024c0,.147-.026.148-.1.215l-.024.048h-.048l-.024.048-.1.024-.072.1h-.048l-.048.072h-.048l-.024.048-.1.024-.048.072h-.072v.024l-.215-.024v-.048h-.024c-.007-.04.022-.041.024-.048v-.31h.024v-.239h.024V279h-.024v-.191H101.3a1.946,1.946,0,0,1,.024-.549l.406.1.024.048h.048l.048.048.143.048.024.048.1.024.1.119.072.024v.048h.024c.033.052-.011.034.048.072A.843.843,0,0,1,102.277,279.17Z" transform="translate(-98.1 -255.037)"/><path class="b" d="M181.041,278.678v-.048l-.048-.024v-.072h-.024v-.048h-.024v-.048h-.024l-.024-.048h-.048l-.048-.072-.119-.024v-.024l-.072-.024c-.031-.124-.2-.193-.31-.239h-.072v-.024h-.048l-.024-.048h-.048v-.024h-.072v-.024l-.143-.048v-.024l-.167-.024-.024-.048-.119-.024-.024-.048h-.048v-.024h-.048v-.024h-.072V277.6l-.1-.024v-.024h-.048v-.024l-.215-.072v-.024h-.048v-.024c-.067-.03-.52-.1-.6-.024l-.072.024.024.239h.024v.1h.024v.119h.024v.072h.024v.072h.024v.143h.024l.024.167h.024l.024.1h.024v.477a2.73,2.73,0,0,1-.048.668c-.046.166.032.36-.024.5-.018.045-.071.1-.1.143l-.1.024a.444.444,0,0,0,.048.215h.024v.119h.024c.038.058.018.016.072.048v.024h.048v.024h.048l.024.048a.914.914,0,0,0,.358,0v-.024h.215v-.024h.167v-.024l.453-.048v-.024l.167-.024v-.024h.1v-.024l.143-.048v-.024h.048V280.4h.072v-.024l.143-.048V280.3h.048l.048-.072h.048l.1-.119.072-.048v-.048l.048-.024v-.048l.048-.048v-.048h.024V279.8l.048-.024v-.048h.024v-.048h.024v-.072h.024v-.048l.048-.024v-.859Zm-.74.5h-.024c-.039.125.016.237-.048.334l-.1.072v.024h-.048l-.048.072h-.048l-.024.048h-.048l-.048.072h-.048l-.024.048h-.048v.024H179.7v.024l-.072.024v.048c-.067.014-.135.047-.167.024-.026,0-.048.05-.1.024v-.024l-.072-.024v-.31h.024l.048-.477h-.024c-.033-.122.023-.235-.048-.31a1.944,1.944,0,0,1,.024-.549.84.84,0,0,1,.406.119h.048v.024l.072.024.024.048.119.024.048.072h.072v.024l.215.191v.072h.024Z" transform="translate(-168.344 -255.094)"/><path class="b" d="M159.359,294.479a.691.691,0,0,1,.382.119v.024l.119.024.024.072h.024l-.1.286v.024h.024v.167h.024v.167a1.614,1.614,0,0,1,.048.716.641.641,0,0,1-.215.024c-.038.035-.141.026-.215.024l-.119-.143h-.024l-.072-.215-.048-.024-.048-.406h.024V295.2h-.024v-.239h-.024l-.024-.358c.065-.038.058-.065.167-.072V294.5h.072Z" transform="translate(-151.053 -270.513)"/><path class="b" d="M212.243,291.787h-.024l-.048-.263h-.024l-.1-.119H212l-.024-.048h-.048l-.072-.1h-.048l-.024-.048h-.048l-.024-.048-.072-.024-.048-.072h-.048L211.5,291c-.07-.05-.095-.037-.143-.119l-.31.024v-.024h-.239c-.065.056-.2-.016-.286.024l-.024.048-.1.024-.1.119-.048.024v.048l-.048.024-.048.143-.048.024v.1a.433.433,0,0,1-.119.191.621.621,0,0,0,.072.334h.024v.072h.024v.048h.024v.048h.024v.048h.024v.048h.024v.048h.024v.048h.024v.048l.048.048v.048h.024l.024.048h.072l.143.167h.072v.024l.143.048v.024h.119v.024h.072v.024h.072v.024c.088.026.146-.034.191-.048l.263-.024v-.024l.143-.048v-.024l.119-.024.024-.048.167-.048c.031-.023.027-.087.048-.119l.048-.024.024-.072h.024l.024-.1.1-.072v-.048h.024l.024-.119h.024A.482.482,0,0,0,212.243,291.787Zm-.573.143h-.024l-.024.1-.048.024-.143.167h-.048l-.048.072H211c-.025-.031-.042-.025-.072-.048v-.024h-.048l-.191-.215a1.7,1.7,0,0,1,.143-.573.789.789,0,0,1,.5-.1v.024h.072v.024l.072.024a.266.266,0,0,0,.072.119h.024v.048l.048.024v.048l.048.024v.048h.024A.35.35,0,0,1,211.671,291.93Z" transform="translate(-196.873 -267.272)"/><path class="b" d="M266.149,291.707h-.024c-.022-.068.011-.137-.024-.191h-.024l-.1-.119h-.048l-.024-.048h-.048l-.072-.1h-.048l-.024-.048h-.048l-.048-.072h-.048l-.072-.1h-.048l-.072-.1h-.048l-.024-.048h-.072v-.024h-.1v.024h-.43v-.024c-.04-.006-.042.023-.048.024h-.215v.024l-.1.024v.024h-.048l-.048.072h-.024v.048h-.024v.048l-.1.072-.024.1-.048.024-.024.191H264c-.025.054-.1.217-.072.31h.024v.048h.024v.048H264v.048h.024v.048h.024v.072h.024l.024.1h.024v.072h.024v.048a.72.72,0,0,1,.1.191.316.316,0,0,1,.191.1l.024.072.119.024v.024l.1.024v.024l.167.024v.024h.072v.024h.143V292.8l.406-.024v-.024h.072l.024-.048.143-.048.024-.048h.048v-.024h.048l.143-.119.024-.1.048-.024V292.3l.048-.024c.05-.074.067-.144.143-.191A.919.919,0,0,0,266.149,291.707Zm-.716.406-.072.1h-.048l-.048.072h-.358v-.024h-.048v-.024a.2.2,0,0,0-.1-.048.258.258,0,0,0-.119-.167,1.618,1.618,0,0,1,.1-.6c.107-.045.477-.174.6-.048.06.016.039.012.072.048h.024v.048l.072.048v.048l.072.048c.028.041,0,.053.048.1C265.625,291.976,265.562,291.984,265.433,292.113Z" transform="translate(-245.433 -267.263)"/><path class="b" d="M132.412,294.639l-.048-.024-.024-.1h-.024l-.024-.119h-.024l-.024-.072-.048-.024-.024-.119-.048-.024v-.048l-.048-.048v-.048h-.024v-.048l-.048-.024-.024-.1h-.024V293.8h-.024v-.048h-.024v-.048h-.024v-.048h-.024l-.1-.262h-.024l-.048-.072-.263-.072v-.024l-.167-.024v-.024l-.1-.024v-.024l-.167-.024v-.024h-.048v-.024h-.072v-.024l-.286.048v.024h-.143v.024h-.072v.024h-.048v.024h-.048l-.024.048-.143.048-.048.072-.286.263a1.4,1.4,0,0,0,.024.453h.024v.048h.024a.855.855,0,0,0,.143.215l.072.048v.048h.024l.048.072h.048l.024.048h.048l.119.143.143.024v.024a.6.6,0,0,0,.358.072v-.024h.215c.126-.041.206-.157.334-.191.021-.077.061-.084.1-.143h.119c.038.153.175.183.286.263l.072.1h.048v.024c.029.023.046.018.072.048a2.589,2.589,0,0,0,.286-.048c.02-.027,0,0,.024-.024A.374.374,0,0,0,132.412,294.639Zm-1.337-.692h-.024c-.027.068.006.074-.048.119-.027.1-.109.1-.167.167-.221-.012-.262-.178-.406-.263a.384.384,0,0,1,.143-.286v-.024h.072a.542.542,0,0,0,.167-.119h.167v.024l.072.024A.556.556,0,0,1,131.075,293.947Z" transform="translate(-124.631 -269.217)"/></g></svg>