<svg xmlns="http://www.w3.org/2000/svg" width="119.147" height="30.947" viewBox="0 0 119.147 30.947"><defs><style>.a{fill-rule:evenodd;}</style></defs><g transform="translate(0)"><path class="a" d="M263.714,434.629c-2.423-.034-3.753.537-5.741.749-.325,2.16-.166,5.359-.749,7.238q-.126,1-.25,2h-.249v.5h-.25c-.5.944-.337,1.69-1.5,2v.25h-1a2.423,2.423,0,0,0-.5-.5q-.124-.75-.249-1.5h-.25l.5-5.99h.25v-9.484c-.211-2.4-1.177-4.824-.749-7.238a19.839,19.839,0,0,1,3.494-.5l.5.749h.25v.5h.25v.749h.249q.251,2.87.5,5.74a27.172,27.172,0,0,1,4.991-.5c.6-1.629.263-4.666.25-6.739-.55-.575-.137-1.853,0-2.5,1.275-.735,1.316-1.229,3.494-1.247.331.4.711.516,1,1,1.008,1.012.774,4.876.749,6.988v1.247h-.25V439.87c0,1.91.209,5.444,0,6.488-.38,1.908.044,2.7-2.246,2.745-.256-.486-.781-1.017-1-1.5l-.25-1.5h-.25Z" transform="translate(-252.874 -418.906)"/><path class="a" d="M299.722,419.523h2.247l.249.5h.25v.749h.25q-.126,2.87-.25,5.741h-.25q.126,1.5.25,2.994h-.25v3c-1.246,4.354.381,11.749-1.247,15.723a3.436,3.436,0,0,1-1.747.749c-.232-.3-.575-.274-.749-.5v-.5l-.5-.249v-.5l-.5-.5h-.5q-.622-.75-1.247-1.5-.126-.874-.25-1.747c-1.145-3.186-1.711-7.114-3-10.232h-.249v2.745h-.25v1.747c-.793,2.684.018,9.251-2.5,9.984v.249h-1.5c-.815-1.476-1.5-1.527-1.5-3.993h.25q.126-.75.25-1.5h.249v-.75h.25v-1h.25v-1.248a25.488,25.488,0,0,0,.749-7.238v-2.746h-.25v-1.5h-.249v-.5h-.25v-1h-.25q.249-2.495.5-4.991l2-1.5h1.747c.422.508.584.211,1,.5l.5.749h.249v.5l.5.25v.5l.5.25q.126.874.25,1.747h.25v1h.249v1.248h.25v1.247h.25v1h.249v1h.25v1.247h.25q.124,1.125.25,2.247h.249v.749h.25c.3.9-.085,1.629.5,2.246v-.249c.738-.855-.1-2.977.25-4.243.2-.725.613-4.189.25-5.241h-.25v-.5h-.25c-.286-.854.348-2.249.5-2.745l.5-3.244A3.315,3.315,0,0,0,299.722,419.523Z" transform="translate(-245.706 -418.775)"/><path class="a" d="M343.09,429.505l3,.25v-.25l4.243-.249v.249l1.247.25a3.259,3.259,0,0,1,.75,2.5c-.75.493-.235.706-1.248,1-.818.684-2.008.132-3.244.5V434h-1.5a20.834,20.834,0,0,0-3.494,1.747v1c-.383.432-.229,1.445-.249,2.247q-.126,1.871-.25,3.743h1.248v-.249a.66.66,0,0,1,.749.249h5.99v.25l2.994.25c.237.449.346.393.5,1,.506.55.07,1.384,0,2.246a3.317,3.317,0,0,0-1,.749l-3.744-.25c-1.229.353-3.051.627-4.243,1l-2.5.25v.25h-1v.249h-.748v.25h-1.248v.25h-.5v.25h-.5v.249l-.75-.249c-.082-.334-.166-.666-.249-1h-.25q.126-.75.25-1.5h.249q.126-1.123.25-2.246h.25v-1.747h.25v-3h.249V427.26h-.249v-1h-.25v-.5h-.25v-1.248h-.25c-.257-.956.5-2.874.75-3.494.278-.147.392-.436.5-.5h.5v-.25h2.746a34.778,34.778,0,0,1,8.985-.749c.563.964.965.842,1,2.5-.949.815-.619,1.467-2.5,1.5v.25h-1.5v.25h-1.747v.249h-2v.25l-1,.25C342.917,425.9,343.077,427.972,343.09,429.505Z" transform="translate(-234.916 -418.775)"/><path class="a" d="M338.319,445.41v-.5l-.75-.25-1.5-1.747h-.5v-.25l-.749-.5v-.5l-.5-.249v-.5l-.5-.249c-.084-.334-.166-.666-.25-1l-.5-.25c-.084-.332-.167-.666-.25-1h-.25v-.5h-.25l-.5-1.5h-.25c-.376-.854-.084-1.394-.749-2a3.988,3.988,0,0,1,1.5-3c.167-.083.334-.166.5-.25q.124-.5.25-1l.5-.25v-.749h.25v-.5h.249a11.652,11.652,0,0,0,.25-4.243h-.25c-.3-1.056.261-1.327-.5-2-.251-.952-.55-.773-1.248-1.247-.082-.166-.166-.332-.249-.5h-.5v-.249h-.5v-.25h-.749v-.25c-1.047-.342-4.076.214-4.742.5v.249l-1,.25v.25h-.5v.25h-.749l-.25.5h-1.5v.25l-.749.249q.249,3.62.5,7.238h.25v2h-.25v6.488h-.25v3.744h-.249v4.243q.748,1.249,1.5,2.5a3.224,3.224,0,0,0,2-.5q.622-6.238,1.247-12.479h1v.25c1.077.775.88,1.37,1.5,2.5h.25v.5l.5.249v.5h.25v.5l.5.5v.5l.5.25v.5l.5.25v.5l.5.25v.5l.5.25v.5l2,1.747.5.749,1,.249.25.5c.036.022,1.747.749,1.747.749v-.25c1.049-.132.812-.353,1.5-.749V445.41Zm-8.486-17.47-.5.25-1.248,1.5c-.605.4-1.184.121-1.747.749a2.671,2.671,0,0,1-1-.249c-.024-1.114-.323-3.614.25-4.244.064-1.136.353-1.065.749-1.747l2.5-.749a7.008,7.008,0,0,0,1,.25,11.745,11.745,0,0,1,.5,3.244C329.835,427.372,330.122,427.521,329.833,427.94Z" transform="translate(-238.381 -418.706)"/><path class="a" d="M284,439.02v-1.247h-.25l-.5-2.746H283v-.749h-.249v-1h-.25v-.749h-.25v-.5H282v-1h-.249v-.749h-.25v-.5h-.25q-.124-.748-.249-1.5h-.25v-1h-.25v-.5h-.25v-.749h-.249v-.5h-.25v-.749h-.25v-.5h-.249q-.126-.748-.25-1.5h-.25v-.749c-.215-.482-.75-1.007-1-1.5h-2.746a9.113,9.113,0,0,0-1,1.5q-.251,3.618-.5,7.237c-.377,1.3-.613,3.2-1,4.493v1.747h-.249q-.126,1.123-.25,2.247h-.25q-.124,1.123-.25,2.246h-.249v1h-.25v1h-.25v1h-.249v1h-.25c-.357,1.105-.133,3.129.5,3.743.288.482.667.6,1,1,2.641-.033,1.434-1.155,2-2.994h.25v-1.248h.249v-.749h.25v-1h.25v-1h.249q.251-1.247.5-2.5h.25c.083-.25.166-.5.249-.749,1.768-.061,2.493-.341,3.994.25q1.123,4.366,2.246,8.735h.25l.25.5c.394.284.575,0,1,.5a6.728,6.728,0,0,0,2.247-.249A29.936,29.936,0,0,0,284,439.02Zm-7.238-4.493c-.006-.865.113-2.574.5-2.994.15-.5-.035-.215.25-.5.281,1.31.952,1.958,1,3.494A4.091,4.091,0,0,1,276.761,434.527Z" transform="translate(-249.2 -418.555)"/><path class="a" d="M317.752,439.313v-1H317.5v-1h-.25v-1H317v-1h-.25l-.5-2.5h-.25v-.749h-.249v-.749h-.25v-.749h-.25v-.749h-.25q-.124-.748-.249-1.5h-.25v-.5h-.25v-1h-.249v-.5h-.25c-.318-.627-.205-1.325-.5-2h-.249v-.5h-.25l-.5-2.247h-.25v-.5h-.25l-.5-.749h-2.247a3.336,3.336,0,0,1-1,.749c-.108.545-.366,1.547-.5,2v2.744h-.25v2.247h-.249q-.126,1.747-.25,3.494h-.25q-.124,1.5-.25,2.994h-.249v1.248h-.25v1.248h-.25v1.247h-.249v1h-.25v1h-.25v1c-.269.791-1.553,4.357-.749,5.241.075,1.288.53,1.211,1,2a5.166,5.166,0,0,0,2-.249l1-5.241h.25v-.749h.25v-1h.25l.5-2.5h.25v-.25a14.063,14.063,0,0,1,3.494-.25v.25c.5.15.215-.035.5.25h.25q.124.874.25,1.747h.249v1h.25q.126,1.123.25,2.247h.249v1h.25v1h.25v.749h.25v.749l.5.25.25.5h.749v.25l1.747.249V448.3l.749-.25A28.7,28.7,0,0,0,317.752,439.313Zm-5.74-4.742h-1.5v-.249c-.266-.355.194-2.343.249-3.245.989.645.767,1.971,1.5,2.746Q312.137,434.2,312.012,434.571Z" transform="translate(-242.023 -418.599)"/></g></svg>