<svg xmlns="http://www.w3.org/2000/svg" width="82" height="45.179" viewBox="0 0 82 45.179"><defs><style>.a{fill-rule:evenodd;}</style></defs><g transform="translate(0 0)"><path class="a" d="M314.025,581.954a1.406,1.406,0,0,0-.253.108v.036c-.085.024-.092-.029-.108-.036-.136-.061-.175-.1-.181-.289a1.368,1.368,0,0,0,.4-.47l.036-.144.072-.036v-.108l.072-.036.036-.109h.036v-.108l.108-.072.072-.217.072-.036v-.072l.072-.036v-.072l.072-.036.036-.145.109-.072v-.072l.072-.036v-.072l.072-.036.036-.109h.036v-.109L315,579.5l.036-.109h.036l.072-.217.072-.036v-.072l.072-.036v-.072l.072-.036v-.072l.072-.036v-.072h.036l.036-.145.072-.036v-.072l.072-.036v-.072l.072-.036v-.072l.072-.072v-.072h.036v-.072l.072-.036v-.109h.036v-.072h.036v-.072h.036l.072-.217h.036v-.109h.036v-.072h.036l.036-.217h.036l.072-.217h.036l.036-.325h.036l.036-.145h.036v-.4a3.58,3.58,0,0,0,.145-1.084v-.434h-.036V574.4h-.036v-.145h-.036v-.108h-.036v-.109h-.036l-.036-.144h-.036l-.036-.181-.072-.036-.036-.144-.072-.036-.036-.144-.072-.036v-.072h-.036l-.036-.108a1.5,1.5,0,0,1-.434-.289h-.072l-.181-.217h-.072l-.072-.109h-.072l-.036-.072H315l-.217-.253h-.072l-.108-.145h-.072l-.072-.108h-.072l-.036-.072h-.072l-.181-.217h-.072l-.181-.217h-.072l-.072-.072v-.072l-.072-.036v-.072h-.036l-.036-.145h-.036v-.361h-.036l-.036-.217-.072-.036v-.109h-.036l-.036-.144h-.036V570.1l-.072-.036-.036-.144a1.494,1.494,0,0,1-.289-.795c.041-.041.014,0,.036-.072a2.642,2.642,0,0,0,.939-.181l.253-.036V568.8l.144-.036v-.036h.181v-.036h.108v-.036h.072v-.036h.108v-.036l.253-.036v-.036l.145-.036v-.036h.217a2.067,2.067,0,0,1,.976-.145c.2.056.455.087.65.145l.362.036v.036h.108v.036l.289.036v.036h.109v.036h.072v.036l.289.036v.036h.109v.036l.181.036v.036h.072v.036h.108v.036h.072v.036l.217.036v.036l.145.036v.036h.072v.036h.109v.036h.072v.036h.072v.036h.072v.036h.181v.036h.109v.036h.072v.036l.217.036v.036h.072v.036h.109l.036.072.181.036v.036l.217.072v.036l.145.036.036.072.217.072.036.072h.072l.036.072h.072l.072.109.181.036.108.145h.072l.072.072v.072l.072.036.181.217h.036l.036.072h.072l.036.109.217.181v.072l.109.072v.072l.072.036.036.108h.036l.036.145.072.036v.072h.036v.47h.036a.693.693,0,0,1-.036.325l-.036.578h-.036v.072h-.036l-.036.289h-.036v.072l-.072.036v.072h-.036l-.036.181-.072.036v.072h-.036v.072l-.072.072v.072l-.072.036v.072l-.072.036v.072l-.072.036-.036.145-.144.108v.072H321.9l-.036.109-.072.036v.072l-.181.145v.072l-.289.253v.072l-.325.289v.072l-.109.036-.072.109h-.072l-.036.072a1.164,1.164,0,0,0-.217.144v.036l-.072.036v.072l-.181.145-.289.325h-.072l-.181.217h-.072l-.036.072h-.072l-.109.145h-.072l-.109.144-.108.036-.036.072h-.072l-.109.144-.506.434-.144.036-.036.072-.144.036-.036.072h-.072l-.072.072h-.072v.036h-.072v.036h-.072v.036H317.6l-.072.072h-.072l-.036.072h-.072l-.036.072h-.072l-.072.108H317.1l-.072.109-.109.036-.325.361h-.072l-.181.217h-.072l-.144.181h-.072l-.072.108H315.9l-.181.217h-.072l-.072.109h-.072l-.036.109-.217.181-.036.072h-.072l-.253.289h-.072v.036l-.109.072v.072l-.144.108v.072l-.072.036-.036.108h-.036l-.036.145-.072.036v.072l-.072.036v.036l-.072.036v.072h-.036A.39.39,0,0,0,314.025,581.954Z" transform="translate(-275.687 -568.271)"/><path class="a" d="M238.15,583.675v-.831h-.036v-.109h-.036v-.181h-.036v-.072l-.072-.036v-.072l-.108-.072v-.072l-.072-.036-.036-.181-.072-.036v-.036l-.072-.036v-.072l-.145-.109v-.072l-.072-.036-.036-.144-.109-.072v-.072l-.072-.036v-.072l-.109-.072v-.072l-.289-.253v-.072l-.108-.072V580.6l-.109-.036-.109-.144h-.072l-.072-.109h-.072l-.036-.072h-.036v-.072h-.036V580.1l-.072-.036v-.072l-.072-.072v-.072h-.036v-.072l-.072-.036v-.072h-.036v-.109H235.8v-.072h-.036l-.072-.325c-.027-.068-.145-.243-.109-.362h.036v-.072h.036l.036-.217.072-.036.036-.181h.036c.007-.051-.128-.179-.144-.217a.655.655,0,0,1,.108-.65c0-.156.013-.294-.072-.362l-.108-.036v-.036h-.109l-.036.072-.144.109-.036.072h-.072l-.108.144h-.072v.036l-.144.109v.108h-.036v.072l-.072.036v.072l-.325.217a.491.491,0,0,1-.47-.217l-.108-.072-.036-.145-.072-.036-.036-.144-.072-.036v-.072l-.145-.108v-.072l-.108-.072v-.072l-.109-.072-.108-.325-.072-.036-.036-.145-.289-.253v-.072l-.072-.036v-.036l-.217-.181v-.072l-.217-.181v-.072l-.108-.072-.217-.253H231.9l-.181-.217v-.072h-.036l-.036-.072h-.072l-.072-.109h-.072l-.036-.072-.144-.036-.036-.072-.145-.036-.217-.253h-.072l-.036-.072a1.428,1.428,0,0,0-.217-.144l-.145-.036-.325-.362-.109-.036-.217-.253a.993.993,0,0,0-.434.036v.036l-.109.072a2.825,2.825,0,0,0,.144.723l-.036.4h.036v.434H229.3v.325h-.036v.072h-.036v.109h-.036v.072h-.036v.072l-.072.036v.072h-.036v1.192h.036v.217h.036v.108h.036v.109h.036l.036.433h.036V578h.036v.144h.036v.253h.036v.109h.036v.072h.036a1.372,1.372,0,0,1,.036.723.515.515,0,0,1-.4-.181l-.036-.072-.325-.072v-.036h-.072v-.036l-.325-.072V578.8h-.072v-.036H228.1v-.036l-.253-.036v-.036h-.072v-.036l-.217-.036v-.036l-.217-.072v-.036h-.072V578.4H227.2v-.036h-.072v-.036h-.072v-.036h-.072v-.036h-.072v-.036l-.144-.036v-.036l-.325-.036v-.036h-.072v-.036h-.109V578l-.434-.072v-.036l-.145-.036v-.036l-.181-.036-.036-.072-.181-.036-.036-.072h-.072l-.4-.433-.072-.217h-.036l-.036-.109-.072-.036-.036-.145-.072-.036-.036-.108-.217-.181v-.072l-.108-.072-.036-.144h-.036l-.072-.217h-.036l-.036-.253h-.036v-.072H223.8l-.036-.253h-.036v-.072a.76.76,0,0,1-.144-.325,2.7,2.7,0,0,0-.506-.036c-.039.046-.064.038-.109.072v.036H222.9l-.072.109h-.072l-.144.181-.362.325v.072l-.181.145v.072c-.039.048-.2.113-.253.181h-.108a3.481,3.481,0,0,1-.325-.4v-.144c-.026-.073-.08-.183-.109-.253-.072-.022-.031.005-.072-.036-.229,0-.281.037-.362.181v.072h-.036v.072h-.036v.108l-.072.036v.072h-.036v.072h-.036v.072h-.036v.109l-.072.036-.036.144h-.036v.072h-.036l-.072.217H220.3v.109h-.036l-.036.144h-.036v.144h-.036v.145h-.036v.108h-.036v.109h-.036v.108h-.036v.109h-.036v.072h-.036l-.036.181h-.036v.072a1.224,1.224,0,0,0-.181.361h-.072c-.032.139-.092.157-.144.253l-.036.145H219.4l-.036.144-.072.036-.072.217-.072.036-.072.217-.072.036v.072h-.036l-.072.217-.072.036v.072l-.072.036v.072l-.072.036-.036.144H218.6l-.036.109-.072.036v.072l-.072.036-.036.144h-.036v.072h-.036l-.072.217H218.2l-.036.181-.072.036-.072.217-.109.072-.036.145-.072.036-.072.217-.072.036-.036.145-.072.036-.036.108h-.036l-.036.145h-.036l-.036.108-.072.036v.072l-.108.072v.072l-.072.036v.072l-.361.4h-.072v.036l-.217.072v.036h-.217v.036l-.217.072v.036l-.253.036v.036h-.072v.036l-.253.036v.036h-.144v.036h-.072v.036l-.325.072v.036h-.108v.036H214.7v.036h-.108v.036h-.181v.036H214.3v.036h-.072v.036h-.109v.036h-.144v.036H213.8v.036h-.072v.036l-.289.036v.036h-.144v.036l-.253.036V584h-.109v.036l-.253.036v.036H212.6v.036h-.289v.036h-.109v.036h-.072v.036l-.217.036v.036H211.7v.036h-.144v.036h-.109v.036l-.434.036v.036H210.9v.036l-.289.036v.036H210.4c-.165.05-.408.095-.578.144h-.434v.036h-.181v.036h-.144v.036h-.144v.036l-.651.036v.036h-.253v.036H207.8v.036h-.289v.036h-.361v.036h-.362v.036l-.9-.036h-1.843c-.207-.06-.482-.122-.687-.181H201.51a2.949,2.949,0,0,1-.578.145.767.767,0,0,0-.072.289h.036v.072l.072.072h.072v.036h.072c.021.013.028.049.072.072q.018.361.036.723v.325l.072.036.036.217h.036V587l.072.036v.072h.036v.072l.072.072v.072l.072.036.036.144h.036l.036.109.072.036.036.145.072.036v.072l.109.072v.072l.108.072.036.109.289.253v.072l.109.072v.072l.108.072.036.144.361.253.325.362h.072l.181.217h.072l.036.072h.036l.325.361.145.036.072.108.325.289v.072l.072.036v.072l.108.072v.072l.109.036.036.072.144.036.036.072h.072l.036.072h.072l.181.217h.072l.072.108h.072l.072.109.181.036.036.072h.109v.036h.109v.036h.108v.036h.109v.036l.144.036v.036h.072l.036.072h.072v.036h.072l.072.072H207l.072.108h.072v.036l.144.036v.036h.109v.036h.072v.036h.108v.036l.145.036v.036h.289v.036h1.59a2.763,2.763,0,0,1,.759.036v.325h-.036l-.036.144h-.036v.181h-.036v.109h-.036v.109h-.036l-.036.144h-.036v.144h-.036v.072H210l-.072.325h-.036v.072h-.036v.072h-.036v.072h-.036v.108h-.036v.072h-.036l-.036.144h-.036l-.036.217-.072.036-.144.434h-.036l-.072.217h-.036v.072h-.036v.072h-.036v.109l-.072.036-.036.181h-.036v.072h-.036l-.072.217h-.036l-.036.217h-.036v.072h-.036l-.036.181H208.7l-.072.217h-.036v.072h-.036v.108h-.036l-.036.145h-.036v.108h-.036v.072h-.036v.072l-.072.036-.036.217h-.036l-.036.144h-.036l-.072.325h-.036l-.036.144h-.036l-.036.289h-.036l-.036.144h-.036l-.072.361h-.036l-.036.144h-.036v.289l-.072.036-.072.4h-.036v.109h-.036v.072H207.4v.108h-.036l-.036.289h-.036v.072h-.036v.108h-.036v.181h-.036v.109h-.036l-.036.144h-.036v.145h-.036v.108H207v.072h-.036v.109h-.036v.217h-.036v.108h-.036l-.072.217h-.036v.072h-.036v.072h-.036l-.036.217H206.6l-.072.217H206.5v.072h-.036l-.036.217h-.036v.072h-.036l-.036.217h-.036l-.036.144h-.036l-.036.217h-.036l-.072.217h-.036v.145h-.036v.072h-.036v.072h-.036l-.036.145h-.036v.181h-.036v.072h-.036l-.072.325h-.036v.072h-.036l-.036.217h-.036v.181h-.036v.072h-.036v.109h-.036l-.072.434h-.036v.072H205.3v.108h-.036v.217h-.036v.145H205.2v.108h-.036v.145h-.036l-.036.289h-.036v.109h-.036v.109h-.036v.144h-.036v.181h-.036l-.036.145h-.036v.253H204.8v.108h-.036l-.036.145h-.036l-.036.325h-.036l-.036.145h-.036l-.036.289h-.036l-.036.217H204.4v.072h-.036v.181h-.036l-.036.144h-.036l-.036.289h-.036l-.036.217h-.036v.072h-.036l-.036.217-.145.108-.144.181h-.072l-.036.072h-.072l-.036.072h-.072v.036l-.434.072v.036c-.1.044-.167.068-.253.109l-.036.144H202.7a.089.089,0,0,0,.036.109v.108l.072.036v.072h.036v.072l.217.181v.072l.072.036.036.181h.036v.072h.036l.036.145h.036v.108h.036v.072l.072.036v.072l.072.036.036.144.072.036c.08.153-.033.393.036.578h.036v.072l.072.036.036.144h.036l.072.217h.036v.108h.036q-.018.235-.036.47h.036v.109H204v.072h.036v.217h.036v.108h.036v.109h.036v.072h.036l.036.072h.072l.036.072.145.108.036.145.072.036v.072l.181.145a2.313,2.313,0,0,0,.65.542h.108v.036h.072v.036l.542.036v.036h.289a1.278,1.278,0,0,0,.723.109v-.036h.108v-.036h.072V616.7h.109v-.036h.072l.036-.072.145-.036.036-.072.217-.181v-.072l.253-.217.072-.217h.036l.036-.109.072-.036.036-.325a1.294,1.294,0,0,0,.144-.759h-.036v-.253h-.036v-.072l-.072-.036-.036-.217h-.036l-.036-.144-.072-.036v-.072l-.144-.109-.036-.072h-.072l-.072-.072h-.072v-.036H207.8l-.072-.108h-.072l-.072-.109h-.072V613.2a.519.519,0,0,0-.253-.144c-.042-.156-.114-.124-.181-.217v-.072l-.108-.072v-.072h-.036v-.072h-.036v-.109h-.036a.971.971,0,0,1,.072-.506l.036-.434H207v-.108h.036v-.217h.036v-.145h.036v-.108h.036v-.109h.036v-.072h.036v-.181h.036l.072-.217h.036V610.2h.036l.036-.144h.036v-.109h.036v-.072h.036v-.109h.036v-.072h.036l.036-.181h.036v-.072h.036l.072-.217h.036v-.108h.036l.036-.145h.036v-.108h.036v-.109l.072-.036.036-.145.072-.036.036-.217h.036v-.072h.036v-.108l.072-.036v-.072h.036v-.072h.036v-.072h.036v-.072l.072-.072v-.072l.072-.036.036-.144.072-.036.072-.217.072-.036v-.072l.072-.072v-.072h.036v-.072l.072-.036v-.109h.036v-.072h.036v-.072l.072-.036.036-.144.072-.036v-.072l.072-.072v-.072h.036v-.072h.036v-.072h.036v-.072h.036l.072-.217h.036l.036-.253.108-.072v-.109a.6.6,0,0,1,.253-.253v-.144a.348.348,0,0,0-.289.109v.036l-.144.036-.072.109h-.036v.072l-.108.072-.036.145-.072.036v.072h-.036v.072h-.036v.108l-.072.036-.181.217h-.072l-.072.109h-.253l-.036-.181.181-.217.108-.072v-.072l.253-.217v-.108h.036l.036-.109.072-.036v-.073l.072-.072v-.072l.109-.072.036-.108h.072a.3.3,0,0,1,.072-.145h.036v-.072h.036v-.145h.036v-.072l.072-.036c.081-.13.041-.2.181-.289a.562.562,0,0,0-.036-.217h-.181l-.036.108-.109.072c-.054.083-.029.17-.108.253l-.181.144-.072.217-.109.072v.072l-.109.036-.036.072-.109.072v.072l-.217.181-.036.181-.072.036-.289.325a.46.46,0,0,1-.181-.036c-.022-.072,0-.031-.036-.072.023-.18.083-.174.145-.289l.036-.181h.036v-.072l.072-.036.036-.181h.036l.036-.144h.036l.036-.217h.036l.036-.145h.036l.145-.434h.036V603.8h.036l.036-.145h.036l.036-.217.072-.036v-.072h.036v-.072h.036v-.145h.036v-.072h.036v-.072h.036V602.9h.036v-.108h.036v-.072h.036l.072-.217h.036l.036-.217h.036v-.072h.036V602.1h.036v-.072h.036l.072-.217h.036v-.145l.072-.036v-.072h.036v-.072h.036l.036-.217h.036l.036-.145h.036v-.072h.036v-.109H210v-.072h.036v-.144h.036v-.072h.036v-.072h.036v-.072h.036v-.072h.036v-.072h.036V600.3h.036l.072-.217h.036v-.145l.072-.036v-.072h.036v-.072h.036v-.072h.036v-.108l.072-.036v-.109h.036v-.072h.036v-.072l.072-.036v-.072l.072-.072v-.072h.036v-.072h.036v-.072h.036v-.072h.036v-.072l.072-.036v-.072l.072-.072v-.072h.036v-.072h.036v-.072h.036v-.072h.036V598.2l.072-.072v-.072l.072-.036v-.072l.072-.072V597.8h.036v-.072h.036l.036-.144.072-.036.036-.181h.036V597.3l.072-.036v-.072l.072-.072v-.072h.036v-.072h.036V596.9l.072-.072v-.072l.108-.072v-.072l.289-.253v-.072l.109-.072v-.072l.072-.036v-.072l.109-.072v-.072l.072-.036v-.072l.072-.036.036-.144h.036l.036-.109.072-.036.036-.181h.036l.036-.108.072-.036.036-.145h.036v-.072h.036v-.072h.036v-.072h.036V594.7h.036l.036-.145h.036l.036-.144h.036l.072-.217.072-.036.036-.145.072-.036V593.9h.036v-.072l.109-.072v-.072l.144-.109V593.5l.145-.109v-.072l.144-.108v-.072l.145-.109v-.072l.144-.109v-.072l.108-.072v-.072h.036v-.072l.109-.072v-.036h.072l.036-.072.109-.036v-.036l.144-.036.072-.108.145-.036.108-.144h.072l.036-.072.217-.072.072-.108h.072l.036-.072h.072l.072-.109h.072l.036-.072h.072l.036-.072h.072l.036-.072.217-.072v-.036h.072v-.036l.217-.072v-.036h.109v-.036h.108v-.036h.072v-.036h.144v-.036h.181V590.9l.144-.036v-.036h.109v-.036l.325-.036v-.036h.072v-.036h.109v-.036h.108v-.036h.109v-.036h.108v-.036h.072V590.5l.65-.181v-.036l.145-.036v-.036h.072v-.036l.217-.036v-.036h.072v-.036l.217-.036V590h.072v-.036l.47-.109v-.036l.144-.036v-.036h.145v-.036l.217-.072V589.6l.289-.036v-.036l.144-.036v-.036l.253-.036v-.036l.145-.036v-.036h.108v-.036h.145v-.036h.108V589.2h.072v-.036h.108v-.036h.109v-.036h.072v-.036h.072v-.036l.145-.109v-.108h.036v-.217h.036l.036-.109.506-.109.289-.4.289-.036V587.9l.217-.072v-.036h.072v-.036h.144v-.036h.072v-.036h.072v-.036h.072v-.036h.072v-.036h.072v-.036l.144-.036v-.036h.109v-.036l.217-.072v-.036h.072v-.036l.145-.036.036-.072h.108v-.036h.072v-.036h.072v-.036L226.3,587v-.036h.108v-.036h.072v-.036l.181-.036v-.036l.325-.072v-.036h.072v-.036h.108v-.036l.145-.036v-.036h.108v-.036l.145-.036v-.036h.072v-.036h.109v-.036h.072v-.036h.072l.036-.072h.109l.072-.109.145-.036V586.1l.217-.072v-.036l.253-.036.036-.072h.072v-.036h.072v-.036h.109l.036-.072h.072V585.7h.072l.072-.072h.072l.036-.072.217-.072.036-.072h.072v-.036h.072v-.036h.108c.153-.084.284-.28.434-.362v-.181l-.325-.217v-.109h.036l.217-.289a1.014,1.014,0,0,0-.109-.434h-.036v-.072h-.036V583.6l-.072-.036v-.072l-.072-.036v-.072l-.072-.036v-.072H229.8l.036-.217.072-.036.036-.144h.036l.036-.361a.617.617,0,0,0,.108-.108c.241.028.286.171.4.325l.217.181v.072l.65.687h.072v.036l.108.072v.072h.036l.036.108.144.109.036.072h.072l.362.433h.072l.289.325.181.144v.072l.361.325v.036l.072.036v.072l.289.253.109.144h.072l.072.109h.072v.036h.072v.036h.072v.036h.072l.072.072h.072l.144.181h.072l.072.109h.072l.072.108h.072l.036.072h.072l.036.072h.072v.036h.325v.036h.542v-.036h.361a1.7,1.7,0,0,0,.578-.072v-.036h.109v-.036h.072l.036-.072.325-.108.036-.109h.036v-.072l.072-.036.036-.145h.036v-.108h.036v-.109h.036v-.181h.036V585.7h.036v-.108h.036v-.072l.072-.036.036-.144.072-.036v-.072l.072-.036.072-.217.072-.036.036-.4A3.857,3.857,0,0,0,238.15,583.675ZM224.2,579.664c-.059.2-.12.068-.253.144l-.108.145h-.072l-.072.108h-.072l-.036.072h-.109l-.036.072-.434.072v.036h-.072v.036h-.072l-.036.072h-.072l-.036.072a2.4,2.4,0,0,1-.578.109v-.036h-.072c-.012-.007-.037-.052-.072-.072a.951.951,0,0,1,.072-.361h.036l.036-.362h.036V579.7h.036l.036-.181h.036l.036-.47h.036v-.144h.036v-.723a2.075,2.075,0,0,0,.108-.867h-.036l-.036-.325.217-.253.144-.109.036-.108h.072l.108-.145c.061-.042.082,0,.145-.072h.108v.036h.072l.325.542v.109h.036v.072h.036l.072.325h.036l.036.145h.036l.036.4h.036v.109h.036v.072h.036v.109h.036v.47h.036v.217h.036A1.947,1.947,0,0,1,224.2,579.664Z" transform="translate(-200.859 -571.655)"/><path class="a" d="M245.03,637.059a.713.713,0,0,1-.217.289l-.072.036v.072l-.145.108v.072l-.072.072h-.072l-.036.072h-.072l-.036.072h-.072v.036l-.145.109v.072l-.072.036v.072l-.181.144c-.1.113-.115.243-.289.289-.036.135-.1.111-.108.289l.108.072v.036h.072v.036l.253.036v.036h.072v.036h.108v.036h.109v.036h.144v.036h.181v.036h.108v.036h.109v.036h.108v.036l.325.036v.036h.109v.036h.144v.036h.253c.232.068.524.114.759.181h.4v.036h.217v.036h.253v.036h.651v.036h.65v.036h.109v.036l.578-.036v-.036l.867-.036V639.8h.108v-.036h.109v-.036l.361-.036v-.036h.072v-.036h.109v-.036l.361-.036v-.036h.109v-.036h.072v-.036h.325v-.036h.181v-.036h.109v-.036l.289-.036v-.036h.325v-.036h.145v-.036h.108v-.036l.506-.109v-.036h.072v-.036l.361-.072.036-.072h.253v-.036h.145v-.036h.108v-.036h.145v-.036h.217v-.036h.325a2.462,2.462,0,0,1,.94.144h.144v.036h.253v.036h.144v.036h.145v.036l.4.036v.036h.072v.036h.144v.036l.325.036v.036l.144.036v.036h.109v.036h.181v.036l.145.036.036.072.217.072.036.072h.072l.072.109.144.036.036.072h.072l.036.072.144.109v.072h.036c.035.045.027.07.072.109q.018,1.193.036,2.385h-.036v.181h-.036v.072h-.036a1.291,1.291,0,0,0-.144.651l-.181.144v.036h-.072l-.253.181-.253.289-.181.036-.036.072h-.072v.036l-.109.036c-.044.3-.107.527-.325.651-.105.1-.177.023-.325.072v.036h-.109v.036h-.108v.036l-.217.036v.036h-.217v.036h-.181v.036h-.108v.036h-.145v.036l-.4.036v.036l-.217.072v.036H255.4l-.108.145h-.072l-.036.072-.144.036v.036l-.325.036v.036h-.109v.036h-.253v.036l-.217.072v.036h-.108v.036h-.109v.036h-.181v.036h-.362a5.517,5.517,0,0,1-1.229.036,3.1,3.1,0,0,1-.686-.036h-.506v-.036h-.614v-.036h-.614c-.212-.062-.475-.119-.686-.181h-.4v-.036h-.109V645.8h-.072v-.036l-.361-.036v-.036h-.109v-.036h-.108v-.036h-.109v-.036l-.289-.036v-.036h-.072v-.036l-.289-.036v-.036l-.145-.036v-.036h-.108V645.3l-.325-.036v-.036h-.072v-.036h-.109v-.036l-.289-.036v-.036h-.108v-.036H245.9v-.036h-.109v-.036l-.65-.108v-.036h-.144v-.036h-.109v-.036h-.109v-.036H244.7v-.036l-.614-.144V644.5h-.072v-.036l-.181-.036v-.036l-.253-.036v-.036l-.217-.072v-.036H243.3v-.036h-.108v-.036l-.217-.072v-.036H242.9V644h-.072v-.036h-.072v-.036h-.072l-.072-.072h-.072l-.036-.072-.145-.036-.036-.072h-.072l-.036-.072h-.072l-.108-.145h-.072l-.072-.108h-.072l-.072-.109h-.036l-.109-.181h-.144v-.036h-.109v-.036h-.072v-.036H241.2l-.072-.108h-.036v-.072h-.036V642.7l-.072-.036v-.072l-.145-.109v-.072l-.108-.072V642.3h-.072l-.325-.361-.145-.109-.036-.144h-.036l-.036-.109-.072-.036v-.072l-.072-.036v-.072l-.072-.036v-.072l-.072-.036v-.072l-.072-.036v-.072l-.072-.036v-.072l-.072-.036v-.072a.909.909,0,0,1-.181-.578c.109-.072.016-.033.072-.109l.181-.144v-.072l.181-.145V639.7l.108-.072v-.072l.072-.036.036-.144.108-.072v-.072l.072-.036.036-.109h.036l.072-.217.072-.036v-.072h.036l.036-.325c0-.008-.048-.012-.036-.072h.036c.022-.073.014-.089.036-.144l.108-.036.036-.072h.072v-.036l.253-.036V638h.072v-.036h.145v-.036h.217v-.036h.217v-.036h.253v-.036c.213-.057.353.165.542.109v-.036h.108l.036-.072h.072v-.036h.072l.072-.072h.072l.036-.072.217-.036v-.036h.072v-.036h.072l.036-.072.145-.036.036-.072.108-.036.109-.144h.072v-.036h.072l.036-.072.144-.036.109-.145.217-.036.072-.108h.108l.036-.072h.072l.036-.072.217-.072.036-.072h.072l.072-.109h.072l.036-.072.181-.036.036-.072.144-.036.036-.072h.072v-.036h.072l.072-.072h.072l.072-.109.4-.144.036-.072h.072l.144-.181.325-.108.036-.072.145-.036.036-.072h.072v-.036c.156-.086.26-.022.289-.253a.478.478,0,0,1-.144-.108h-.506v.036l-.506.036H245.5v.036h-.144v.036h-.542v.036a4.572,4.572,0,0,1-1.12-.036l-.651.036v-.036h-.181v-.036l-.217-.072v-.036l-.144-.036-.036-.072-.145-.036-.072-.109h-.072v-.036l-.109-.036-.036-.072h-.072l-.072-.109h-.072l-.108-.144h-.072l-.036-.072-.144-.036v-.036h-.072l-.036-.072-.217-.072-.036-.109h-.036a.344.344,0,0,1-.109-.289c.041-.031.005,0,.036-.036.207.007.321-.019.361-.181h.036l-.036-.108a.506.506,0,0,1-.4-.289h-.036v-.145l.109-.072v-.036l.217-.072v-.036l.108-.036.036-.072h.072l.181-.217h.072l.072-.072v-.072l.144-.108v-.072l.072-.072v-.072h.036v-.072l.072-.036v-.072l.217-.181V631.2l.072-.072h.072l.036-.072h.072l.036-.072h.072l.036-.072h.072l.036-.072h.072l.289-.325h.072l.072-.108h.072l.072-.072h.072V630.3h.072l.036-.072.217-.072.072-.109h.072l.108-.144h.072l.036-.072.253-.072.036-.072h.072v-.036h.072l.072-.072h.072l.036-.072.145-.036.036-.072h.072v-.036l.145-.036v-.036h.108v-.036l.217-.072v-.036l.145-.036.036-.072.217-.036.036-.072h.109v-.036h.072v-.036h.072v-.036h.072v-.036h.072v-.036l.217-.072.036-.072.253-.036v-.036l.217-.072v-.036h.253v-.036h.108v-.036h.109v-.036l.361-.036v-.036l.289-.036v-.036h.109v-.036h.217c.18-.053.434-.093.614-.145h.47v-.036h.253v-.036h.144v-.036h.9a7.31,7.31,0,0,1,1.771.108h.506v.036h.434v.036h.253v.036h.434c.18.052.4.126.578.181h.217v.036l.217.072v.036h.145l.036.072h.072v.036h.072v.036l.181.036c.065.043.094.161.145.217l.253.217v.072l.072.036v.072l.109.072v.072l.072.036.036.144.072.036v.072h.036l.036.144h.036l.036.289h.036v.072h.036v.289h.036v.434h.036a2.073,2.073,0,0,1,0,.614l-.144.109v.072l-.072.036v.072l-.109.072v.072l-.072.036-.072.217-.072.036-.036.109-.108.072-.036.145-.145.108v.072l-.072.036-.109.144H255.8v.036h-.072l-.036.072-.217.072-.036.072h-.072l-.036.072-.144.036v.036h-.144v.036h-.109v.036h-.109v.036h-.144v.036h-.072l-.036.072-.253.036v.036h-.072l-.036.072-.253.036v.036h-.109v.036h-.072v.036l-.4.036v.036H253.2v.036h-.144v.036h-.145v.036h-.253v.036h-.325v.036h-.109v.036h-.181v.036h-.217v.036h-.217v.036H251.5v.036h-.109v.036h-.181v.036h-.144v.036h-.145v.036h-.108v.036h-.181v.036l-.217.036v.036h-.072v.036h-.109v.036h-.144v.036h-.181v.036h-.072v.036h-.109v.036l-.253.036v.036H249.4v.036l-.4.109-.036.072h-.181v.036l-.217.072v.036H248.5v.036h-.108v.036h-.072l-.036.072h-.108v.036H248.1v.036l-.145.036v.036l-.325.072v.036l-.181.036-.036.072h-.072v.036l-.144.036v.036l-.217.036-.036.072-.181.036v.036h-.072l-.036.072h-.072v.036h-.072l-.072.072h-.072l-.036.072-.217.072-.072.108h-.072l-.072.109h-.072l-.036.072h-.072l-.036.072h-.072l-.036.072H245.5l-.036.072-.145.036-.036.072h-.072v.036A.4.4,0,0,1,245.03,637.059Z" transform="translate(-226.602 -608.092)"/></g><g transform="translate(33.573 29.212)"><path class="a" d="M304.273,668.6v-.072l-.289-.253-.036-.072h-.109l-.4-.434V667.7l-.072-.036-.036-.144-.072-.036-.036-.181-.072-.036v-.072h-.036l-.036-.144h-.036v-.181l-.072-.036-.072-.325h-.036l-.036-.144h-.036l-.036-.253h-.036l-.036-.145h-.036l-.072-.325h-.036v-.072H302.5v-.109h-.036l-.036-.289-.072-.036v-.181h-.036v-.108h-.036v-.072h-.036v-.109h-.036v-.072h-.036v-.145h-.036l-.072-.687v-.325h-.036v-.614H302l.036-.578h.036v-.108h.036v-.289h.036l.036-.831h.036v-.108h.036v-.217h-.036l-.036-1.048h.036v-.109h.036v-.072h.036l.036-.253h.036v-1.12h.036v-.108h.036v-.109h.036v-.108h.036v-.072h.036v-.072l.072-.036v-.108h.036V657.4h.036v-.072l.072-.036.072-.217.072-.036v-.072l.109-.072v-.072l.072-.036v-.072l.108-.072v-.072h.036V656.5h.036v-.072h.036c.061-.1-.033-.067.108-.109v-.036c.061-.035.212.027.253.036l.072.145.072.036.036.181h.036v.072l.072.036.072.217.072.036v.072l.109.072.036.144.325.289v.072l.145.108v.072l.144.109.036.144.072.036.108.325h.036l.036.144h.036v.181h.036v.072h.036l.036.253h.036v.109h.036v.108h.036v.109h.036v.072h.036v.109l.072.036.036.144.072.036.072.217.072.036v.072h.036v.072h.036l.036.109.072.036.036.144.072.036.036.144h.036l.036.109.072.036v.072l.072.036.072.217.072.036v.072h.036v.072h.036v.108h.036v.109h.036v.072h.036v.144h.036l.036.144h.036v.072l.072.036v.109h.036l.181.361h.145a3.411,3.411,0,0,0,.253-.47v-.325h.036c.024-.075.014-.123.036-.181a.268.268,0,0,0,.109-.072c.073.021.031,0,.072.036.261.075.1.209.181.434h.036v.072h.036v.109l.072.036.036.144.109.072v.072l.072.036v.072l.109.036.036.108.181.145.036.144h.036v.253h.036v.145h.036v.47h.036v.144h.036l-.036,1.156h-.036v.181h.036v.108h.036l.036.325h.036l.253.289.325.108v.036h.072v.036h.145l.217.181v.289c-.048.04-.067.1-.109.144l-.072.036c-.043.064-.05.208-.109.253l-.144.036-.036.072h-.072l-.036.072h-.072l-.036.072h-.072l-.036.072h-.072l-.072.108-.145.036-.144.181-.072.036v.072l-.072.036-.036.181-.072.036v.109h-.036v.072h-.036v.072l-.072.036-.072.217-.145.109v.072l-.181.145v.036l-.325.072v.036h-.181v.036h-.181v.036l-.47-.036h-.506v-.036l-.542-.036v-.036l-.144-.036V669h-.072l-.072-.109h-.072l-.036-.072-.181-.036v-.036h-.506C304.46,668.714,304.384,668.632,304.273,668.6Z" transform="translate(-301.996 -656.27)"/><path class="a" d="M326.517,657.257a4.162,4.162,0,0,1,1.012.036h.253v.036h.109v.036h.072v.036l.325.072.036.072h.072v.036h.108l.036.072.109.036v.036l.144.036.072.109.144.036.217.253h.072l.036.072h.072l.109.145h.072l.072.108h.072l.036.072.144.036v.036h.072v.036h.072v.036l.217.072v.036h.181v.036h.109v.036h.108v.036h.109v.036l.217.036v.036l.144.036v.036h.072l.036.072h.072l.072.109h.072l.109.144h.072l.072.072v.072l.109.072v.072l.072.036v.072l.109.072v.072l.072.036v.072h.036l.036.144h.036v.217h.036v.145h.036v.144h.036v.109h.036l.072.795a1.6,1.6,0,0,0-.072.289l-.687.614-.144.181h-.072l-.036.072-.108.036v.036h-.072l-.036.072h-.072l-.036.072H331l-.072.108h-.072l-.036.072h-.072l-.072.109-.144.036-.036.072h-.072v.036H330.2v.036h-.072v.036h-.072v.036h-.072v.036h-.072v.036h-.072v.036l-.145.036v.036l-.217.036v.036l-.217.072v.036l-.144.036-.036.072-.217.072-.072.109h-.072l-.036.072-.47.144-.036.072-.217.072-.072.108-.253.217c-.138.138-.222.294-.47.325-.1-.172-.112-.136-.109-.434h.036v-.217l.072-.036.036-.109h.036l.036-.217h.036v-.072h.036l.036-.361h.036l.036-.434h-.036v-.145h-.036l-.036-.4-.072-.036v-.072h-.036V662.6l-.072-.072v-.072l-.072-.036v-.072h-.036l-.036-.144-.072-.036v-.108h-.036v-.072h-.036v-.072h-.036v-.072h-.036v-.072h-.036V661.7h-.036v-.108l-.072-.036v-.072h-.036l-.072-.217-.108-.072v-.072l-.072-.036-.036-.109H326.3v-.072h-.036l-.036-.108-.072-.036v-.109h-.036v-.108h-.036v-.109h-.036c-.089-.279.106-.466-.036-.687l-.108-.072v-.072l-.47-.434V659.1l-.145-.109v-.072l-.072-.072v-.072h-.036V658.7h-.036v-.072h-.036v-.072h-.036v-.072a1.3,1.3,0,0,1-.217-.578c.09-.05.148-.145.253-.181l.361-.036.072-.108h.072l.072-.109h.072l.036-.072.145-.036v-.036C326.077,657.276,326.423,657.341,326.517,657.257Z" transform="translate(-317.267 -656.921)"/></g><g transform="translate(45.35 7.976)"><path class="a" d="M346.532,601a.325.325,0,0,0,.144-.072V600.9h1.084v-.036h.108l.036-.072h.072l.072-.109h.072l.036-.072a.991.991,0,0,1,.4-.108v.036l.181.036.181.217h.072l.036.072.144.036.217.289v.072h.036v.072l.181.144v.072l.109.072v.072l.072.036v.072h.036v.108h.036v.325h.036v.072l.072.036.072.217.072.036v.072h.036l.072.217h.036v.109h.036a1.178,1.178,0,0,1-.217.759l-.108.072v.072l-.109.072-.036.181-.361.181c-.047.038-.039.132-.072.181l-.108.072v.072l-.072.036v.036h-.072a2.065,2.065,0,0,0-.217.144l-.036.145-.072.036-.144.181h-.072v.036h-.072v.036l-.072.036v.072l-.109.072v.072H348.3l-.072.109h-.072v.036l-.108.036-.325.4-.434.036v.036h-.072l-.072.108-.108.036v.073l-.072.036-.072.108h-.072v.036l-.109.036-.036.072H346.6l-.036.072h-.036v.072H346.5v.072l-.434.325v.072h-.036v.072l-.072.072v.072l-.108.036-.036.072h-.072v.036H345.7l-.036.108h-.036v.217h-.036v.145c-.059.176-.139.419-.325.47a2.832,2.832,0,0,1-.145.289c-.06.172.045.25,0,.4h-.036v.109h-.036v.289c.067.043.077.1.144.145.1.1.373.072.578.072l.723.036V610l.434-.036V610h.181v.036l.506-.072v-.036h.362a8.705,8.705,0,0,0,2.277-.145l.4-.036v-.036h.109v-.036h.108v-.036h.109V609.6l.542-.036v-.036h.072V609.5l.253-.036v-.036l.145-.036.253-.289h.036v-.072l.4-.072v-.036a.649.649,0,0,1,.325.036c.051.109.1.127.109.289l-.253.289-.144.109-.072.217H352.6l-.036.072h-.072l-.036.072h-.072l-.036.072h-.072l-.108.361-.145.109v.072l-.072.036v.072l-.109.072c-.046.073-.006.16-.036.253a2.982,2.982,0,0,0-.108.289h-.072l-.181.217h-.036v.072l-.109.072v.072l-.108.072v.072h-.036v.072l-.109.072v.036l-.723.4c-.047.038-.039.133-.072.181l-.289.217h-.072v.036h-.072l-.217.289h-.072l-.036.072h-.072v.036l-.144.036v.036h-.109l-.217.253h-.072v.036h-.072v.036H348.7l-.036.072-.144.036-.036.072h-.072l-.072.109a1.009,1.009,0,0,1-.325.181v.036l-.47.036-.036.073-.109.072v.036h-.072l-.145.181-.506.109v.036H346.6v.036h-.072l-.036.072-.145.036-.072.109-.145.036-.036.072-.362.072v.036h-.072v.036l-.181.036v.036h-.072v.036l-.217.072v.036l-.217.036v.036h-.072v.036h-.217c-.2.059-.556-.024-.759.036v.036h-.144v.036h-.144v.036h-.325v.036l-.506-.036v-.036h-.181v-.036h-.145v-.036c-.244-.072-.556.056-.759-.036v-.036h-.072l-.145-.217h-.072v-.036h-.109v-.036h-.109v-.036h-.072V615.2h-.253v-.036h-.072v-.036h-.072l-.072-.108h-.072l-.145-.181h-.072l-.109-.144h-.072l-.109-.144h-.072l-.072-.072v-.072l-.109-.072v-.073l-.072-.036v-.072l-.108-.072v-.072l-.217-.181v-.072l-.109-.072v-.108H339.3v-.072h-.036v-.072l-.072-.036-.036-.108-.145-.109-.072-.217-.072-.036v-.072h-.036v-.289l-.108-.072v-.072h-.036l-.036-.108-.109-.072-.036-.144-.072-.036-.036-.47h-.036v-.072l-.072-.036v-.072l-.253-.217-.036-.144h-.036v-.325h-.036v-.217s.047,0,.036-.072h-.036a2.908,2.908,0,0,1,.036-.9l-.036-.361h.036c.031-.109-.015-.2.036-.289l.072-.036v-.072l.072-.036v-.072l.072-.036v-.072l.072-.036v-.072h.036a1.482,1.482,0,0,0,.072-.506v-.253h.036v-.072h.036v-.072l.072-.036V607.4l.072-.036v-.072l.109-.072v-.072l.072-.036v-.072h.036l.036-.4h-.036v-.217h.036v-.073h.036v-.072h.036l.036-.108h.072c.072-.108.177-.1.217-.253a2.289,2.289,0,0,0,.145-.434h-.036a.882.882,0,0,0-.145-.361l-.108-.072v-.072l-.109-.072-.036-.144-.072-.036-.036-.217h-.036v-.181H338.8v-.072l-.217-.181V604l-.072-.036-.181-.615-.072-.036v-.072l-.217-.181v-.072l-.072-.036-.036-.687H337.9v-.145h-.036v-.108h-.036v-.181h-.036l-.036-.144h-.036v-.072h-.036v-.072h-.036v-.109h-.036v-.108h-.036v-.109h-.036v-2.276H337.5a1.143,1.143,0,0,1,.036-.578v-.217h.036v-.109h.036V597.9h.036v-.217h.036v-.144h.036v-.109h.036v-.144h.036l.036-.506h.036V596.7h.036l.072-.542H338v-.109h.036v-.109h.036v-.108h.036l.036-.289h.036v-.072h.036l.036-.325h.036l.072-.217h.036l.036-.325h.036v-.072h.036v-.108h.036v-.145h.036l.072-.217h.036v-.072h.036v-.144h.036l.072-.217h.036l.036-.145.072-.036v-.072h.036l.036-.109h.072c.034-.043.083-.039.108-.072v-.072l.145-.109.036-.108a1.163,1.163,0,0,1,.325-.181.4.4,0,0,1,.072-.181h.036v-.072l.072-.036.072-.109h.506c.079-.072.484,0,.651,0,.066.1.2.168.289.253l.072.109h.072v.036h.144v.036l.145.036v.036h.072l.036.072h.072a1.287,1.287,0,0,1,.144.289v.108h.036v.109h.036v.108h.036v.072h.036v.072l.108.072v.036h.072l.036.109.072.036v.072h.036l.109,1.626a4.2,4.2,0,0,0-.036,1.048h.036l.036.723h.036l.072.434h.036v.108h.036V598h.036l.036.253h.036v.109h.036v.108h.036l.036.361h.036v.434l.036.723-.036.144h.036v.145h.036l.036.144h.036v.072l.072.036v.072l.072.036v.072h.036v.109h.036v.072h.036v.289h.036c.038.131-.048.376-.036.434a.452.452,0,0,0,.181.253c.135.14.419.013.578-.036h.217l.325-.108.109-.144h.072l.036-.072h.072l.036-.072h.108V601.4h.109v-.036h.325v-.036h.4v-.036h.072v-.036C346.4,601.189,346.494,601.153,346.532,601Z" transform="translate(-337.474 -592.299)"/><path class="a" d="M386.706,595.335a2.43,2.43,0,0,1,.976.181l.4.036v.036h.109v.036h.109v.036h.253v.036l.253.036v.036h.072v.036l.433.072v.036h.072v.036h.181v.036l.253.036v.036h.072v.036l.217.036.036.072h.072v.036h.072v.036h.109v.036h.072v.036l.144.036v.036h.109v.036l.144.036v.036h.072v.036h.108l.036.072.109.036v.036l.217.072.072.109h.072v.036l.145.036V597h.181v.036c.1.051.153.1.253.145a3.165,3.165,0,0,0,.289.795v.506h-.036v.362h-.036v.072h-.036v.217h-.036l-.036.144-.109.072v.072h-.036l-.108.144h-.072l-.072.109-.217.072-.036.072h-.072l-.108.144h-.072l-.289.325-.506.253c-.195.067-.43-.118-.614-.036l-.036.072h-.072v.036h-.072v.036l-.362.036-.867.759c-.152.213-.207.592-.542.614v-.036h-.289l-.144.181-.181.036a2.054,2.054,0,0,1-.036-.578v-1.011h-.036l-.036-.181h-.036v-.108h-.036v-.217h-.036l-.036-.434h-.036v-.144h-.036v-.144h-.036V599.2h-.036v-.072l-.072-.036v-.109l-.072-.036v-.072l-.434-.362v-.072l-.253-.217-.072-.108h-.036v-.072l-.253-.217v-.072l-.109-.072v-.072l-.072-.036V597.5h-.036v-.072h-.036v-.145h-.036l-.072-.217h-.036v-.108h-.036v-.072H385.3V596.6a2.69,2.69,0,0,1-.072-.723l.109-.072v-.036h.072l.072-.108.144-.036v-.036l.578-.036v-.036h.109l.036-.072h.072v-.036C386.509,595.365,386.635,595.4,386.706,595.335Z" transform="translate(-369.373 -594.326)"/><path class="a" d="M376.331,611.911c-.2-.054-.243-.229-.325-.4h-.036l-.036-.217H375.9v-.072l-.108-.072v-.072l-.072-.036v-.072l-.072-.072v-.072h-.036v-.072l-.072-.036a.663.663,0,0,1-.109-.434c.095-.05.061-.064.217-.072.111-.1.392,0,.542,0l.542-.036v.036h.217v.036h.181v.036h.181v.036l.181.036.036.072.217.036v-.036h.144v-.036l.145-.036v-.036h.108v-.036h.181v-.036h.144v-.036h.109v-.036h.181v-.036h.072V610.1a.705.705,0,0,1,.362-.072.694.694,0,0,1,.036.253h-.036c-.055.1.05.464.072.506h.036v.072l.072.036.036.144.072.036.144.434h.036v.072h.036a.741.741,0,0,1,.036.434h-.036c-.049.226-.235.319-.4.434l-.072.109-.145.036-.036.072h-.072v.036l-.361.036v.036H378.5v.036l-.434-.036v.036h-.109v.036h-.65a3.022,3.022,0,0,1-.542-.289v-.072l-.072-.036v-.072l-.108-.072v-.072l-.072-.036v-.072C376.446,612.035,376.372,612.067,376.331,611.911Z" transform="translate(-362.828 -604.145)"/></g><g transform="translate(60.437 18.762)"><path class="a" d="M386.247,624.793a1.38,1.38,0,0,1,.623.173l.242.035v.035l.138.034v.035l.311.1.035.069.138.035.035.069.138.035.069.1.138.035v.035h.069l.035.069.173.034.035.069h.069l.035.069.138.035.035.069.173.034V626h.069v.035h.069l.035.069.208.035v.035l.138.035v.035h.069v.035h.1v.034h.069v.035h.069v.035h.069v.035l.45.1v.035h.1v.034h.069v.035l.311.069v.034h.173v.034l.138.035v.035h.277v.034h.138v.035h.1v.035l.242.035v.034h1v-.034h.1v-.035h.1V626.9h.1v-.035h.138v-.034h.276V626.8h.138v-.035h.1v-.034l.588-.034v-.035h.138v-.035h2.249v.035h.138v.035h1.522v.034h.242v.034h.138v.035h.277v.035h.207v.034l.207.035v.035h.069v.035h.1v.034h.277v.035h.1v.034l.415.035v.034h.242v.035h.173v.034h.138v.035l.554.034v.035h.1v.034h.069v.035l.277.035v.035l.138.035.034.069h.069v.035h.1l.035.069h.069l.035.069h.069l.069.1h.035v.069l.138.1v.069l.069.034.035.1h.035v.069l.069.035.035.138.069.035.035.173.069.035v.1h.035v.069h.035v.1h.034l.069.208h.035v.242h.034v.173h.035l-.035.38h-.034v.138l-.1.069-.069.207-.208.173-.035.1h-.069l-.138.173h-.069l-.035.069h-.069l-.1.138h-.069l-.069.1h-.035l-.035.069h-.069l-.173.207-.1.035-.173.208h-.069l-.035.069h-.069l-.034.069-.1.035-.1.138H401.3l-.035.069-.138.035-.035.069h-.069l-.069.069h-.069v.034h-.069v.035h-.069v.035h-.069v.035H400.6v.034h-.069v.035h-.069v.035l-.208.069v.034l-.311.069v.035l-.138.034v.035l-.277.035v.034h-.1v.035h-.069v.034l-.242.035v.034l-.138.035v.034l-.45.069v.035h-.069v.034l-.277.035v.035l-.346.069v.035h-.311v.035h-.138v.035h-.1v.035h-.138v.035h-.207v.035l-.242.035v.035h-.069v.035l-.311.034v.035h-.1v.035h-.1v.035l-.346.069v.035h-.069v.035l-.242.034v.034l-.138.035v.035h-.173v.034h-.1v.035h-.1v.035l-.138.035v.035l-.242.034v.035l-.138.035v.034l-.207.035v.034h-.069v.035h-.1v.035h-.173v.035h-.1v.034h-.069v.035h-.1v.035h-.173v.034h-.1v.035h-.1v.035h-.1v.035l-.311.034v.035h-.1v.035h-.069v.035a2.1,2.1,0,0,1-.83,0,.93.93,0,0,1-.034-.311h-.035l.035-.311.069-.035v-.069h.034V634.1l.069-.069v-.069l.069-.034.035-.138h.034v-.1l.069-.035v-.069h.035l-.035-.346-.311-.173v-.035h-.138v-.034l-.242-.035v-.034h-.173v-.035h-.554v-.034H390.4v-.035h-.242v-.034h-.38v-.035H389.6v-.035h-.069v-.034h-.1v-.035l-.346-.069v-.034h-.069v-.034l-.173-.035v-.035l-.138-.035v-.034h-.069v-.035h-.069V632.3l-.207-.069V632.2h-.1v-.035h-.069v-.035l-.208-.069v-.035h-.1v-.035l-.208-.069v-.035H387.6v-.034h-.069v-.035h-.069v-.035h-.069v-.034h-.069l-.069-.069h-.069l-.034-.069-.138-.035v-.034l-.1-.035-.035-.069H386.8l-.069-.1h-.069l-.069-.1h-.069l-.035-.069h-.069l-.173-.207h-.069l-.173-.208h-.069l-.1-.138h-.069l-.1-.138h-.069l-.1-.138h-.069l-.138-.173h-.069l-.1-.138h-.069l-.311-.346-.207-.173v-.069l-.069-.035-.034-.1h-.035v-.069l-.069-.034v-.069l-.069-.069v-.069h-.035v-.069l-.069-.035v-.069H384.1l-.034-.208h-.035l-.069-.208h-.034v-.069h-.035v-.069h-.034v-.069h-.035v-.1h-.034v-.069h-.035v-.069l-.069-.035v-.138l-.069-.035v-.069h-.035V627.6h-.035v-.069l-.069-.069v-.069l-.069-.035-.035-.208h-.034l-.034-.138h-.035v-.069h-.034v-.1H383.2v-.069h-.034V626.7h-.035v-.069H383.1l-.035-.277a1.277,1.277,0,0,1-.138-.381h.035v-.1l.069-.035c.126-.135.108-.143.38-.138a1.036,1.036,0,0,1,.761-.069c.053.017.181.1.277.069v-.034h.1l.034-.069.207-.069.035-.069.208-.069.034-.069h.069v-.035h.069l.035-.069h.069l.069-.1h.069l.034-.069.1-.035v-.035h.069l.035-.069h.069v-.035h.069v-.035h.415Z" transform="translate(-382.925 -624.793)"/><path class="a" d="M386.946,662.215a.3.3,0,0,0,.138-.069v-.034l.138-.034v-.035h.138a.926.926,0,0,1,.484-.069v.035h.173v.034l.138.035v.034h.069l.035.069.173.035.035.069.138.035.035.069.381.138.035.069h.1v.035l.1.034.035.069h.069v.034h.069v.035h.1v.035l.138.035v.034h.1v.035h.069v.035h.1v.035l.138.034v.035h.1v.035h.069v.035l.207.034v.035l.208.035v.034l.138.035v.035h.138v.035h.069v.034c.087.044.184.028.277.069v.034l.207.069v.034h.138v.034l.207.069v.034l.173.034.035.069h.069l.035.069h.069v.035h.069l.1.138h.069l.069.1h.069l.242.277.277.242v.069l.1.069v.069l.069.035.035.138.069.034.069.207.069.035v.1h.035l.069.208h.035l.035.138.069.035v.069l.1.069v.069l.138.1v.035h.069l.069.1.138.034v.035l.138.034.035.069h.277v.034a3.239,3.239,0,0,0,.865-.034h.415v-.035h.242v-.035h.277V666.4c.189-.054.489.013.657-.035h.8v-.034h.346V666.3h.173v-.035h.38v-.034h.242v-.035h.1v-.034h.1v-.035l.311-.035v-.034h.138v-.034h.1v-.035h.1v-.035h.173v-.035l.346-.069v-.035l.415-.069v-.035h.069v-.035h.277v-.035h.1v-.035h.069v-.035l.554-.1v-.035h.069V665.4l.415-.035v-.035h.1v-.034h.138v-.034h.138v-.035h.173v-.035h.173v-.034h.138v-.034h.138v-.035h.242v-.035l.415.035v.035l.138.034v.034h.1v.035h.1v.035h.069l.035.1.242.208v.069l.346.311v.069l.069.034.035.1h.035l.035.138h.035v.069l.069.035a1.585,1.585,0,0,1,.1.623h-.035v.173h-.035v.069l-.069.034v.069h-.035v.069l-.069.069v.069l-.138.1v.069l-.346.311-.277.311-.138.034v.035h-.069l-.035.069h-.069l-.069.1h-.069l-.1.138h-.069l-.346.38h-.069l-.173.207h-.069l-.173.208h-.069l-.138.173h-.069l-.035.069-.138.035v.034l-.207.069v.035L402.2,670v.035h-.069v.034c-.087.044-.184.028-.277.069v.034l-.138.035v.035l-.277.035v.035l-.138.034v.035l-.277.035v.035l-.207.035v.035h-.069v.034l-.311.035v.034h-.1v.034h-.069v.035l-.346.069v.035l-.138.034v.034h-.173v.035h-.069v.034h-.1v.035L399.3,671v.035h-.1v.035l-.138.034v.034h-.069v.035h-.1l-.035.069-.242.069-.034.069-.207.069-.035.069-.208.069v.035h-.069v.035h-.069v.034l-.207.069v.035h-.1v.035H397.6v.034h-.1v.035l-.207.069v.034l-.277.035v.034h-.069v.035h-.1v.035h-.1v.034h-.173v.035h-.138v.034h-.1v.035h-.207c-.182.054-.436.085-.623.138h-.519v.034h-.554v.035h-.069v.035a2.725,2.725,0,0,1-.9-.069v-.034h-.208v-.035h-.415v-.034h-.346v-.034a1.882,1.882,0,0,0-.761.069c-.091.02-.33-.077-.484-.034v.034h-.38v-.034h-.1v-.034l-.38-.069v-.034H390.3v-.035h-.1v-.034l-.277-.035v-.035l-.138-.034v-.035h-.208v-.034l-.138-.035V671.9l-.311-.069-.035-.069h-.069v-.035h-.069v-.035h-.1v-.034h-.069l-.034-.069h-.069v-.034h-.069l-.1-.138-.138-.034-.035-.069h-.069l-.069-.1-.1-.035-.173-.207h-.069l-.138-.173h-.069l-.1-.138-.069-.034-.035-.1-.207-.173v-.069l-.207-.173v-.069l-.069-.035v-.069l-.1-.069-.035-.138-.138-.1-.035-.138-.069-.035v-.069h-.035v-.069H386.5v-.069l-.069-.069V669.1l-.069-.034-.035-.138h-.035v-.069h-.034v-.069h-.035v-.069h-.035v-.069h-.035l-.034-.138h-.035l-.035-.138h-.035V668.3h-.035v-.069l-.069-.069V668.1l-.069-.034c-.042-.068-.033-.207-.069-.277l-.069-.035v-.1h-.035v-.069h-.035v-.069H385.6l-.069-.208h-.034l-.035-.207h-.035v-.069h-.035l-.035-.207h-.035v-.069h-.035v-.1h-.035v-.069h-.035l-.034-.276h-.035v-.069h-.035l-.035-.311h-.035l-.035-.208h-.035v-.069h-.035V665.4H384.9l-.035-.277h-.035v-.1H384.8v-.38a3.793,3.793,0,0,1-.173-1.073l-.035-.277h.035v-.1l.069-.034c.077-.119.047-.2.208-.242.151-.144.53-.138.83-.138h.277v-.034h.207V662.7h.1v-.035l.207-.069v-.035h.069l.069-.1h.069l.1-.138h.069Z" transform="translate(-384.039 -649.621)"/></g></svg>